<?xml version="1.0" encoding="UTF-8" standalone="no"?>
<!DOCTYPE svg PUBLIC "-//W3C//DTD SVG 1.1//EN"
 "http://www.w3.org/Graphics/SVG/1.1/DTD/svg11.dtd">
<!-- Generated by graphviz version 2.44.1 (20200629.0846)
 -->
<!-- Title: g Pages: 1 -->
<svg width="692pt" height="342pt"
 viewBox="0.00 0.00 692.00 342.20" xmlns="http://www.w3.org/2000/svg" xmlns:xlink="http://www.w3.org/1999/xlink">
<g id="graph0" class="graph" transform="scale(1 1) rotate(0) translate(4 338.2)">
<title>g</title>
<polygon fill="white" stroke="transparent" points="-4,4 -4,-338.2 688,-338.2 688,4 -4,4"/>
<!-- Axe1135820194 -->
<g id="node1" class="node">
<title>Axe1135820194</title>
<polygon fill="#ffffff" stroke="transparent" points="121,-141.6 67,-141.6 67,-105.6 121,-105.6 121,-141.6"/>
<text text-anchor="start" x="73.51" y="-119" font-family="Times New Roman,serif" font-size="14.00">(C)Axe</text>
<polygon fill="none" stroke="black" points="68.5,-110.6 68.5,-136.6 119.5,-136.6 119.5,-110.6 68.5,-110.6"/>
</g>
<!-- CraftingPlan1135820194 -->
<g id="node6" class="node">
<title>CraftingPlan1135820194</title>
<polygon fill="#dcfbd5" stroke="transparent" points="337.5,-36 238.5,-36 238.5,0 337.5,0 337.5,-36"/>
<text text-anchor="start" x="243.79" y="-13.4" font-family="Times New Roman,serif" font-size="14.00">(E)CraftingPlan</text>
<polygon fill="none" stroke="black" points="238.5,-5 238.5,-31 337.5,-31 337.5,-5 238.5,-5"/>
</g>
<!-- Axe1135820194&#45;&gt;CraftingPlan1135820194 -->
<g id="edge1" class="edge">
<title>Axe1135820194&#45;&gt;CraftingPlan1135820194</title>
<path fill="none" stroke="black" d="M112.09,-105.29C133.32,-84.97 165.68,-54 165.68,-54 165.68,-54 197.47,-44.9 228.63,-35.99"/>
<polygon fill="black" stroke="black" points="229.6,-39.35 238.25,-33.24 227.67,-32.62 229.6,-39.35"/>
<text text-anchor="middle" x="180.16" y="-75" font-family="Times New Roman,serif" font-size="14.00">plan</text>
<text text-anchor="middle" x="180.16" y="-58.2" font-family="Times New Roman,serif" font-size="14.00">[0..1]</text>
</g>
<!-- Buildable1135820194 -->
<g id="node2" class="node">
<title>Buildable1135820194</title>
<polygon fill="#f1e5fd" stroke="transparent" points="481.5,-228.6 348.5,-228.6 348.5,-178.6 481.5,-178.6 481.5,-228.6"/>
<text text-anchor="start" x="354" y="-211" font-family="Times New Roman,serif" font-size="14.00">(I)Buildable</text>
<text text-anchor="start" x="353.62" y="-187" font-family="Times New Roman,serif" font-size="14.00">+ plan(): CraftingPlan</text>
<polygon fill="black" stroke="black" points="349,-203.6 349,-203.6 482,-203.6 482,-203.6 349,-203.6"/>
<polygon fill="none" stroke="black" points="348.5,-178.6 348.5,-228.6 481.5,-228.6 481.5,-178.6 348.5,-178.6"/>
</g>
<!-- Buildable1135820194&#45;&gt;Axe1135820194 -->
<g id="edge2" class="edge">
<title>Buildable1135820194&#45;&gt;Axe1135820194</title>
<path fill="none" stroke="black" d="M338.38,-179.39C295.27,-170.82 131,-141.6 131,-141.6 131,-141.6 126.82,-139.68 121.28,-137.13"/>
<polygon fill="none" stroke="black" points="337.8,-182.85 348.32,-181.54 339.29,-176.01 337.8,-182.85"/>
</g>
<!-- Club1135820194 -->
<g id="node5" class="node">
<title>Club1135820194</title>
<polygon fill="#ffffff" stroke="transparent" points="194.5,-141.6 139.5,-141.6 139.5,-105.6 194.5,-105.6 194.5,-141.6"/>
<text text-anchor="start" x="144.56" y="-119" font-family="Times New Roman,serif" font-size="14.00">(C)Club</text>
<polygon fill="none" stroke="black" points="139.5,-110.6 139.5,-136.6 194.5,-136.6 194.5,-110.6 139.5,-110.6"/>
</g>
<!-- Buildable1135820194&#45;&gt;Club1135820194 -->
<g id="edge3" class="edge">
<title>Buildable1135820194&#45;&gt;Club1135820194</title>
<path fill="none" stroke="black" d="M338.57,-178.73C305.52,-169.42 204,-141.6 204,-141.6 204,-141.6 200.02,-139.77 194.66,-137.31"/>
<polygon fill="none" stroke="black" points="337.74,-182.14 348.32,-181.54 339.68,-175.41 337.74,-182.14"/>
</g>
<!-- Fireplace1135820194 -->
<g id="node7" class="node">
<title>Fireplace1135820194</title>
<polygon fill="#ffffff" stroke="transparent" points="293,-141.6 213,-141.6 213,-105.6 293,-105.6 293,-141.6"/>
<text text-anchor="start" x="217.63" y="-119" font-family="Times New Roman,serif" font-size="14.00">(C)Fireplace</text>
<polygon fill="none" stroke="black" points="213,-110.6 213,-136.6 293,-136.6 293,-110.6 213,-110.6"/>
</g>
<!-- Buildable1135820194&#45;&gt;Fireplace1135820194 -->
<g id="edge4" class="edge">
<title>Buildable1135820194&#45;&gt;Fireplace1135820194</title>
<path fill="none" stroke="black" d="M355.87,-174.13C333.23,-163.23 308.12,-151.14 288.38,-141.63"/>
<polygon fill="none" stroke="black" points="354.54,-177.38 365.07,-178.56 357.58,-171.07 354.54,-177.38"/>
</g>
<!-- GuaranteedRescue1135820194 -->
<g id="node8" class="node">
<title>GuaranteedRescue1135820194</title>
<polygon fill="#ffffff" stroke="transparent" points="657.5,-141.6 524.5,-141.6 524.5,-105.6 657.5,-105.6 657.5,-141.6"/>
<text text-anchor="start" x="529.7" y="-119" font-family="Times New Roman,serif" font-size="14.00">(C)GuaranteedRescue</text>
<polygon fill="none" stroke="black" points="524.5,-110.6 524.5,-136.6 657.5,-136.6 657.5,-110.6 524.5,-110.6"/>
</g>
<!-- Buildable1135820194&#45;&gt;GuaranteedRescue1135820194 -->
<g id="edge5" class="edge">
<title>Buildable1135820194&#45;&gt;GuaranteedRescue1135820194</title>
<path fill="none" stroke="black" d="M478.58,-174.42C503.35,-163.44 530.93,-151.22 552.57,-141.63"/>
<polygon fill="none" stroke="black" points="476.97,-171.31 469.24,-178.56 479.8,-177.71 476.97,-171.31"/>
</g>
<!-- PossibleRescue1135820194 -->
<g id="node9" class="node">
<title>PossibleRescue1135820194</title>
<polygon fill="#ffffff" stroke="transparent" points="506.5,-141.6 391.5,-141.6 391.5,-105.6 506.5,-105.6 506.5,-141.6"/>
<text text-anchor="start" x="396.62" y="-119" font-family="Times New Roman,serif" font-size="14.00">(C)PossibleRescue</text>
<polygon fill="none" stroke="black" points="391.5,-110.6 391.5,-136.6 506.5,-136.6 506.5,-110.6 391.5,-110.6"/>
</g>
<!-- Buildable1135820194&#45;&gt;PossibleRescue1135820194 -->
<g id="edge6" class="edge">
<title>Buildable1135820194&#45;&gt;PossibleRescue1135820194</title>
<path fill="none" stroke="black" d="M429.57,-169.18C433.66,-159.78 437.95,-149.94 441.46,-141.9"/>
<polygon fill="none" stroke="black" points="426.36,-167.78 425.57,-178.35 432.78,-170.58 426.36,-167.78"/>
</g>
<!-- Shack1135820194 -->
<g id="node11" class="node">
<title>Shack1135820194</title>
<polygon fill="#ffffff" stroke="transparent" points="373,-141.6 311,-141.6 311,-105.6 373,-105.6 373,-141.6"/>
<text text-anchor="start" x="315.57" y="-119" font-family="Times New Roman,serif" font-size="14.00">(C)Shack</text>
<polygon fill="none" stroke="black" points="311,-110.6 311,-136.6 373,-136.6 373,-110.6 311,-110.6"/>
</g>
<!-- Buildable1135820194&#45;&gt;Shack1135820194 -->
<g id="edge7" class="edge">
<title>Buildable1135820194&#45;&gt;Shack1135820194</title>
<path fill="none" stroke="black" d="M394.42,-169.82C390.71,-163.92 388,-159.6 388,-159.6 388,-159.6 376.14,-150.57 364.46,-141.69"/>
<polygon fill="none" stroke="black" points="391.64,-171.98 399.92,-178.59 397.57,-168.26 391.64,-171.98"/>
</g>
<!-- Building1135820194 -->
<g id="node3" class="node">
<title>Building1135820194</title>
<polygon fill="#f1e5fd" stroke="transparent" points="330,-228.6 170,-228.6 170,-178.6 330,-178.6 330,-228.6"/>
<text text-anchor="start" x="175" y="-211" font-family="Times New Roman,serif" font-size="14.00">(I)Building</text>
<text text-anchor="start" x="174.91" y="-187" font-family="Times New Roman,serif" font-size="14.00">+ isDestructible(): boolean</text>
<polygon fill="black" stroke="black" points="170,-203.6 170,-203.6 330,-203.6 330,-203.6 170,-203.6"/>
<polygon fill="none" stroke="black" points="170,-178.6 170,-228.6 330,-228.6 330,-178.6 170,-178.6"/>
</g>
<!-- Building1135820194&#45;&gt;Fireplace1135820194 -->
<g id="edge8" class="edge">
<title>Building1135820194&#45;&gt;Fireplace1135820194</title>
<path fill="none" stroke="black" d="M251.32,-168.3C251.67,-159.17 252.03,-149.69 252.33,-141.9"/>
<polygon fill="none" stroke="black" points="247.82,-168.22 250.93,-178.35 254.81,-168.49 247.82,-168.22"/>
</g>
<!-- Building1135820194&#45;&gt;Shack1135820194 -->
<g id="edge9" class="edge">
<title>Building1135820194&#45;&gt;Shack1135820194</title>
<path fill="none" stroke="black" d="M286.14,-171.96C298.25,-161.69 311.32,-150.61 321.77,-141.75"/>
<polygon fill="none" stroke="black" points="283.72,-169.42 278.35,-178.56 288.24,-174.76 283.72,-169.42"/>
</g>
<!-- Camp1135820194 -->
<g id="node4" class="node">
<title>Camp1135820194</title>
<polygon fill="#ffffff" stroke="transparent" points="446,-334.2 384,-334.2 384,-298.2 446,-298.2 446,-334.2"/>
<text text-anchor="start" x="388.95" y="-311.6" font-family="Times New Roman,serif" font-size="14.00">(C)Camp</text>
<polygon fill="none" stroke="black" points="384,-303.2 384,-329.2 446,-329.2 446,-303.2 384,-303.2"/>
</g>
<!-- Camp1135820194&#45;&gt;Buildable1135820194 -->
<g id="edge10" class="edge">
<title>Camp1135820194&#45;&gt;Buildable1135820194</title>
<path fill="none" stroke="black" d="M415,-297.92C415,-282.16 415,-258.42 415,-238.83"/>
<polygon fill="black" stroke="black" points="418.5,-238.73 415,-228.73 411.5,-238.74 418.5,-238.73"/>
<text text-anchor="middle" x="447.27" y="-267.6" font-family="Times New Roman,serif" font-size="14.00">constructed</text>
<text text-anchor="middle" x="447.27" y="-250.8" font-family="Times New Roman,serif" font-size="14.00">[0..*]</text>
</g>
<!-- Club1135820194&#45;&gt;CraftingPlan1135820194 -->
<g id="edge11" class="edge">
<title>Club1135820194&#45;&gt;CraftingPlan1135820194</title>
<path fill="none" stroke="black" d="M183.07,-105.29C201.93,-84.97 230.68,-54 230.68,-54 230.68,-54 240.07,-48.27 251.24,-41.44"/>
<polygon fill="black" stroke="black" points="253.3,-44.29 260.01,-36.09 249.65,-38.31 253.3,-44.29"/>
<text text-anchor="middle" x="245.16" y="-75" font-family="Times New Roman,serif" font-size="14.00">plan</text>
<text text-anchor="middle" x="245.16" y="-58.2" font-family="Times New Roman,serif" font-size="14.00">[0..1]</text>
</g>
<!-- Fireplace1135820194&#45;&gt;CraftingPlan1135820194 -->
<g id="edge12" class="edge">
<title>Fireplace1135820194&#45;&gt;CraftingPlan1135820194</title>
<path fill="none" stroke="black" d="M258.78,-105.49C264.28,-89.22 272.63,-64.5 279,-45.65"/>
<polygon fill="black" stroke="black" points="282.33,-46.73 282.21,-36.13 275.7,-44.49 282.33,-46.73"/>
<text text-anchor="middle" x="290.16" y="-75" font-family="Times New Roman,serif" font-size="14.00">plan</text>
<text text-anchor="middle" x="290.16" y="-58.2" font-family="Times New Roman,serif" font-size="14.00">[0..1]</text>
</g>
<!-- GuaranteedRescue1135820194&#45;&gt;CraftingPlan1135820194 -->
<g id="edge13" class="edge">
<title>GuaranteedRescue1135820194&#45;&gt;CraftingPlan1135820194</title>
<path fill="none" stroke="black" d="M551.79,-105.47C505.28,-85.15 434,-54 434,-54 434,-54 388.03,-42.98 347.67,-33.31"/>
<polygon fill="black" stroke="black" points="348.38,-29.87 337.84,-30.95 346.75,-36.68 348.38,-29.87"/>
<text text-anchor="middle" x="522.16" y="-75" font-family="Times New Roman,serif" font-size="14.00">plan</text>
<text text-anchor="middle" x="522.16" y="-58.2" font-family="Times New Roman,serif" font-size="14.00">[0..1]</text>
</g>
<!-- PossibleRescue1135820194&#45;&gt;CraftingPlan1135820194 -->
<g id="edge14" class="edge">
<title>PossibleRescue1135820194&#45;&gt;CraftingPlan1135820194</title>
<path fill="none" stroke="black" d="M426.04,-105.29C399.08,-84.97 358,-54 358,-54 358,-54 345.62,-47.81 331.27,-40.64"/>
<polygon fill="black" stroke="black" points="332.69,-37.43 322.18,-36.09 329.56,-43.69 332.69,-37.43"/>
<text text-anchor="middle" x="415.16" y="-75" font-family="Times New Roman,serif" font-size="14.00">plan</text>
<text text-anchor="middle" x="415.16" y="-58.2" font-family="Times New Roman,serif" font-size="14.00">[0..1]</text>
</g>
<!-- Rescue1135820194 -->
<g id="node10" class="node">
<title>Rescue1135820194</title>
<polygon fill="#f1e5fd" stroke="transparent" points="684,-228.6 500,-228.6 500,-178.6 684,-178.6 684,-228.6"/>
<text text-anchor="start" x="505" y="-211" font-family="Times New Roman,serif" font-size="14.00">(I)Rescue</text>
<text text-anchor="start" x="504.66" y="-187" font-family="Times New Roman,serif" font-size="14.00">+ endeavor(roll: Roll): boolean</text>
<polygon fill="black" stroke="black" points="500,-203.6 500,-203.6 684,-203.6 684,-203.6 500,-203.6"/>
<polygon fill="none" stroke="black" points="500,-178.6 500,-228.6 684,-228.6 684,-178.6 500,-178.6"/>
</g>
<!-- Rescue1135820194&#45;&gt;GuaranteedRescue1135820194 -->
<g id="edge15" class="edge">
<title>Rescue1135820194&#45;&gt;GuaranteedRescue1135820194</title>
<path fill="none" stroke="black" d="M591.56,-168.3C591.44,-159.17 591.32,-149.69 591.22,-141.9"/>
<polygon fill="none" stroke="black" points="588.06,-168.39 591.69,-178.35 595.06,-168.3 588.06,-168.39"/>
</g>
<!-- Rescue1135820194&#45;&gt;PossibleRescue1135820194 -->
<g id="edge16" class="edge">
<title>Rescue1135820194&#45;&gt;PossibleRescue1135820194</title>
<path fill="none" stroke="black" d="M539.04,-173.71C519.34,-162.97 497.62,-151.12 480.45,-141.75"/>
<polygon fill="none" stroke="black" points="537.47,-176.85 547.93,-178.56 540.83,-170.7 537.47,-176.85"/>
</g>
<!-- Shack1135820194&#45;&gt;CraftingPlan1135820194 -->
<g id="edge17" class="edge">
<title>Shack1135820194&#45;&gt;CraftingPlan1135820194</title>
<path fill="none" stroke="black" d="M333.67,-105.29C323.9,-84.97 309,-54 309,-54 309,-54 306.67,-50.11 303.56,-44.93"/>
<polygon fill="black" stroke="black" points="306.4,-42.86 298.25,-36.09 300.4,-46.47 306.4,-42.86"/>
<text text-anchor="middle" x="339.16" y="-75" font-family="Times New Roman,serif" font-size="14.00">plan</text>
<text text-anchor="middle" x="339.16" y="-58.2" font-family="Times New Roman,serif" font-size="14.00">[0..1]</text>
</g>
<!-- Tool1135820194 -->
<g id="node12" class="node">
<title>Tool1135820194</title>
<polygon fill="#f1e5fd" stroke="transparent" points="152,-228.6 0,-228.6 0,-178.6 152,-178.6 152,-228.6"/>
<text text-anchor="start" x="5" y="-211" font-family="Times New Roman,serif" font-size="14.00">(I)Tool</text>
<text text-anchor="start" x="4.79" y="-187" font-family="Times New Roman,serif" font-size="14.00">+ getBonusDamage(): int</text>
<polygon fill="black" stroke="black" points="0,-203.6 0,-203.6 152,-203.6 152,-203.6 0,-203.6"/>
<polygon fill="none" stroke="black" points="0,-178.6 0,-228.6 152,-228.6 152,-178.6 0,-178.6"/>
</g>
<!-- Tool1135820194&#45;&gt;Axe1135820194 -->
<g id="edge18" class="edge">
<title>Tool1135820194&#45;&gt;Axe1135820194</title>
<path fill="none" stroke="black" d="M83.85,-168.59C85.98,-159.37 88.19,-149.77 90.01,-141.9"/>
<polygon fill="none" stroke="black" points="80.43,-167.82 81.6,-178.35 87.26,-169.39 80.43,-167.82"/>
</g>
<!-- Tool1135820194&#45;&gt;Club1135820194 -->
<g id="edge19" class="edge">
<title>Tool1135820194&#45;&gt;Club1135820194</title>
<path fill="none" stroke="black" d="M111.98,-171.76C123.94,-161.51 136.81,-150.48 147.09,-141.66"/>
<polygon fill="none" stroke="black" points="109.61,-169.18 104.29,-178.35 114.16,-174.5 109.61,-169.18"/>
</g>
</g>
</svg>
