<?xml version="1.0" encoding="UTF-8" standalone="no"?>
<!DOCTYPE svg PUBLIC "-//W3C//DTD SVG 1.1//EN"
 "http://www.w3.org/Graphics/SVG/1.1/DTD/svg11.dtd">
<!-- Generated by graphviz version 2.44.1 (20200629.0846)
 -->
<!-- Title: g Pages: 1 -->
<svg width="965pt" height="498pt"
 viewBox="0.00 0.00 965.00 498.00" xmlns="http://www.w3.org/2000/svg" xmlns:xlink="http://www.w3.org/1999/xlink">
<g id="graph0" class="graph" transform="scale(1 1) rotate(0) translate(4 494)">
<title>g</title>
<polygon fill="white" stroke="transparent" points="-4,4 -4,-494 961,-494 961,4 -4,4"/>
<g id="clust1" class="cluster">
<title>cluster_3082201</title>
<polygon fill="#ececec" stroke="black" points="8,-8 8,-482 949,-482 949,-8 8,-8"/>
<text text-anchor="middle" x="31.55" y="-465.4" font-family="Times New Roman,serif" font-size="14.00">dhbw</text>
</g>
<g id="clust2" class="cluster">
<title>cluster_811044466</title>
<polygon fill="#d8d8d8" stroke="black" points="16,-16 16,-449.2 941,-449.2 941,-16 16,-16"/>
<text text-anchor="middle" x="50.04" y="-432.6" font-family="Times New Roman,serif" font-size="14.00">karlsruhe</text>
</g>
<g id="clust3" class="cluster">
<title>cluster_68198893</title>
<polygon fill="#c4c4c4" stroke="black" points="24,-24 24,-416.4 933,-416.4 933,-24 24,-24"/>
<text text-anchor="middle" x="40.94" y="-399.8" font-family="Times New Roman,serif" font-size="14.00">ase</text>
</g>
<g id="clust4" class="cluster">
<title>cluster_471569909</title>
<polygon fill="#bababa" stroke="black" points="263,-306.8 263,-383.6 639,-383.6 639,-306.8 263,-306.8"/>
<text text-anchor="middle" x="302.1" y="-367" font-family="Times New Roman,serif" font-size="14.00">application</text>
</g>
<g id="clust5" class="cluster">
<title>cluster_531869951</title>
<polygon fill="#bababa" stroke="black" points="32,-32 32,-255.2 925,-255.2 925,-32 32,-32"/>
<text text-anchor="middle" x="61" y="-238.6" font-family="Times New Roman,serif" font-size="14.00">domain</text>
</g>
<g id="clust6" class="cluster">
<title>cluster_1227197999</title>
<polygon fill="#b0b0b0" stroke="black" points="40,-40 40,-222.4 704,-222.4 704,-40 40,-40"/>
<text text-anchor="middle" x="69.77" y="-205.8" font-family="Times New Roman,serif" font-size="14.00">crafting</text>
</g>
<!-- CardInvalidator1052887806 -->
<g id="node1" class="node">
<title>CardInvalidator1052887806</title>
<polygon fill="#ffffff" stroke="black" points="394.79,-350.8 271.21,-350.8 271.21,-314.8 394.79,-314.8 394.79,-350.8"/>
<text text-anchor="middle" x="333" y="-328.6" font-family="Times New Roman,serif" font-size="14.00">(C)CardInvalidator</text>
</g>
<!-- Camp1135820194 -->
<g id="node7" class="node">
<title>Camp1135820194</title>
<polygon fill="#ffffff" stroke="black" points="495.1,-189.6 426.9,-189.6 426.9,-153.6 495.1,-153.6 495.1,-189.6"/>
<text text-anchor="middle" x="461" y="-167.4" font-family="Times New Roman,serif" font-size="14.00">(C)Camp</text>
</g>
<!-- CardInvalidator1052887806&#45;&gt;Camp1135820194 -->
<g id="edge8" class="edge">
<title>CardInvalidator1052887806&#45;&gt;Camp1135820194</title>
<path fill="none" stroke="black" d="M346.7,-314.76C369.2,-286.78 414.09,-230.94 440.43,-198.19"/>
<polygon fill="black" stroke="black" points="443.47,-199.98 447.01,-190 438.02,-195.6 443.47,-199.98"/>
<text text-anchor="middle" x="400.16" y="-284.2" font-family="Times New Roman,serif" font-size="14.00">camp</text>
<text text-anchor="middle" x="400.16" y="-267.4" font-family="Times New Roman,serif" font-size="14.00">[0..1]</text>
</g>
<!-- GameState1052887806 -->
<g id="node2" class="node">
<title>GameState1052887806</title>
<polygon fill="#ffffff" stroke="black" points="509.08,-350.8 412.92,-350.8 412.92,-314.8 509.08,-314.8 509.08,-350.8"/>
<text text-anchor="middle" x="461" y="-328.6" font-family="Times New Roman,serif" font-size="14.00">(C)GameState</text>
</g>
<!-- GameState1052887806&#45;&gt;Camp1135820194 -->
<g id="edge9" class="edge">
<title>GameState1052887806&#45;&gt;Camp1135820194</title>
<path fill="none" stroke="black" d="M461,-314.76C461,-287.38 461,-233.3 461,-200.31"/>
<polygon fill="black" stroke="black" points="464.5,-200 461,-190 457.5,-200 464.5,-200"/>
<text text-anchor="middle" x="476.16" y="-284.2" font-family="Times New Roman,serif" font-size="14.00">camp</text>
<text text-anchor="middle" x="476.16" y="-267.4" font-family="Times New Roman,serif" font-size="14.00">[0..1]</text>
</g>
<!-- RollHandler1052887806 -->
<g id="node3" class="node">
<title>RollHandler1052887806</title>
<polygon fill="#ffffff" stroke="black" points="630.86,-350.8 527.14,-350.8 527.14,-314.8 630.86,-314.8 630.86,-350.8"/>
<text text-anchor="middle" x="579" y="-328.6" font-family="Times New Roman,serif" font-size="14.00">(C)RollHandler</text>
</g>
<!-- RollHandler1052887806&#45;&gt;Camp1135820194 -->
<g id="edge10" class="edge">
<title>RollHandler1052887806&#45;&gt;Camp1135820194</title>
<path fill="none" stroke="black" d="M566.37,-314.76C545.63,-286.78 504.24,-230.94 479.97,-198.19"/>
<polygon fill="black" stroke="black" points="482.66,-195.95 473.89,-190 477.04,-200.12 482.66,-195.95"/>
<text text-anchor="middle" x="565.16" y="-284.2" font-family="Times New Roman,serif" font-size="14.00">camp</text>
<text text-anchor="middle" x="565.16" y="-267.4" font-family="Times New Roman,serif" font-size="14.00">[0..1]</text>
</g>
<!-- IllegalActionException593698258 -->
<g id="node4" class="node">
<title>IllegalActionException593698258</title>
<polygon fill="#ffffff" stroke="black" points="877.79,-84 712.21,-84 712.21,-48 877.79,-48 877.79,-84"/>
<text text-anchor="middle" x="795" y="-61.8" font-family="Times New Roman,serif" font-size="14.00">(C)IllegalActionException</text>
</g>
<!-- Buildable1135820194 -->
<g id="node5" class="node">
<title>Buildable1135820194</title>
<polygon fill="#f1e5fd" stroke="black" points="132.42,-84 47.58,-84 47.58,-48 132.42,-48 132.42,-84"/>
<text text-anchor="middle" x="90" y="-61.8" font-family="Times New Roman,serif" font-size="14.00">(I)Buildable</text>
</g>
<!-- Building1135820194 -->
<g id="node6" class="node">
<title>Building1135820194</title>
<polygon fill="#f1e5fd" stroke="black" points="229.49,-84 150.51,-84 150.51,-48 229.49,-48 229.49,-84"/>
<text text-anchor="middle" x="190" y="-61.8" font-family="Times New Roman,serif" font-size="14.00">(I)Building</text>
</g>
<!-- Camp1135820194&#45;&gt;IllegalActionException593698258 -->
<g id="edge3" class="edge">
<title>Camp1135820194&#45;&gt;IllegalActionException593698258</title>
<path fill="none" stroke="black" d="M495.28,-165.36C559.17,-155.6 690,-135.6 690,-135.6 690,-135.6 729.49,-109.8 760.04,-89.84"/>
<polygon fill="black" stroke="black" points="762.32,-92.53 768.77,-84.13 758.49,-86.67 762.32,-92.53"/>
<text text-anchor="middle" x="837.8" y="-114.6" font-family="Times New Roman,serif" font-size="14.00">build() &#45;&gt; IllegalActionException()</text>
</g>
<!-- Camp1135820194&#45;&gt;Buildable1135820194 -->
<g id="edge1" class="edge">
<title>Camp1135820194&#45;&gt;Buildable1135820194</title>
<path fill="none" stroke="black" d="M426.71,-167.31C335.96,-158.59 96.47,-135.6 96.47,-135.6 96.47,-135.6 94.39,-113.55 92.59,-94.46"/>
<polygon fill="black" stroke="black" points="96.06,-93.94 91.63,-84.31 89.09,-94.6 96.06,-93.94"/>
<text text-anchor="middle" x="128.27" y="-123" font-family="Times New Roman,serif" font-size="14.00">constructed</text>
<text text-anchor="middle" x="128.27" y="-106.2" font-family="Times New Roman,serif" font-size="14.00">[0..*]</text>
</g>
<!-- Camp1135820194&#45;&gt;Building1135820194 -->
<g id="edge2" class="edge">
<title>Camp1135820194&#45;&gt;Building1135820194</title>
<path fill="none" stroke="black" d="M426.87,-166.55C349.21,-157.34 165.96,-135.6 165.96,-135.6 165.96,-135.6 165.96,-102 165.96,-102 165.96,-102 168.76,-97.93 172.45,-92.56"/>
<polygon fill="black" stroke="black" points="175.49,-94.31 178.26,-84.09 169.72,-90.35 175.49,-94.31"/>
<text text-anchor="middle" x="249.02" y="-114.6" font-family="Times New Roman,serif" font-size="14.00">devastate() &#45;&gt; isDestructible()</text>
</g>
<!-- Rescue1135820194 -->
<g id="node8" class="node">
<title>Rescue1135820194</title>
<polygon fill="#f1e5fd" stroke="black" points="361.41,-84 290.59,-84 290.59,-48 361.41,-48 361.41,-84"/>
<text text-anchor="middle" x="326" y="-61.8" font-family="Times New Roman,serif" font-size="14.00">(I)Rescue</text>
</g>
<!-- Camp1135820194&#45;&gt;Rescue1135820194 -->
<g id="edge4" class="edge">
<title>Camp1135820194&#45;&gt;Rescue1135820194</title>
<path fill="none" stroke="black" d="M426.7,-159.91C393.68,-149.62 348.72,-135.6 348.72,-135.6 348.72,-135.6 341.28,-113.14 334.92,-93.93"/>
<polygon fill="black" stroke="black" points="338.2,-92.7 331.73,-84.31 331.55,-94.9 338.2,-92.7"/>
<text text-anchor="middle" x="394.64" y="-123" font-family="Times New Roman,serif" font-size="14.00">currentEndeavor</text>
<text text-anchor="middle" x="394.64" y="-106.2" font-family="Times New Roman,serif" font-size="14.00">[0..1]</text>
</g>
<!-- ResourceStash1135820194 -->
<g id="node9" class="node">
<title>ResourceStash1135820194</title>
<polygon fill="#ffffff" stroke="black" points="496.58,-84 379.42,-84 379.42,-48 496.58,-48 496.58,-84"/>
<text text-anchor="middle" x="438" y="-61.8" font-family="Times New Roman,serif" font-size="14.00">(C)ResourceStash</text>
</g>
<!-- Camp1135820194&#45;&gt;ResourceStash1135820194 -->
<g id="edge5" class="edge">
<title>Camp1135820194&#45;&gt;ResourceStash1135820194</title>
<path fill="none" stroke="black" d="M457.2,-153.49C453.61,-137.3 448.15,-112.73 443.97,-93.91"/>
<polygon fill="black" stroke="black" points="447.39,-93.14 441.8,-84.13 440.55,-94.65 447.39,-93.14"/>
<text text-anchor="middle" x="467.16" y="-123" font-family="Times New Roman,serif" font-size="14.00">stash</text>
<text text-anchor="middle" x="467.16" y="-106.2" font-family="Times New Roman,serif" font-size="14.00">[0..1]</text>
</g>
<!-- Tool1135820194 -->
<g id="node10" class="node">
<title>Tool1135820194</title>
<polygon fill="#f1e5fd" stroke="black" points="571.43,-84 514.57,-84 514.57,-48 571.43,-48 571.43,-84"/>
<text text-anchor="middle" x="543" y="-61.8" font-family="Times New Roman,serif" font-size="14.00">(I)Tool</text>
</g>
<!-- Camp1135820194&#45;&gt;Tool1135820194 -->
<g id="edge6" class="edge">
<title>Camp1135820194&#45;&gt;Tool1135820194</title>
<path fill="none" stroke="black" d="M474.58,-153.29C490.52,-132.97 514.81,-102 514.81,-102 514.81,-102 518.25,-97.73 522.72,-92.18"/>
<polygon fill="black" stroke="black" points="525.69,-94.07 529.24,-84.09 520.24,-89.68 525.69,-94.07"/>
<text text-anchor="middle" x="562.59" y="-123" font-family="Times New Roman,serif" font-size="14.00">strongestWeapon</text>
<text text-anchor="middle" x="562.59" y="-106.2" font-family="Times New Roman,serif" font-size="14.00">[0..1]</text>
</g>
<!-- Workbench1135820194 -->
<g id="node11" class="node">
<title>Workbench1135820194</title>
<polygon fill="#ffffff" stroke="black" points="688.96,-84 589.04,-84 589.04,-48 688.96,-48 688.96,-84"/>
<text text-anchor="middle" x="639" y="-61.8" font-family="Times New Roman,serif" font-size="14.00">(C)Workbench</text>
</g>
<!-- Camp1135820194&#45;&gt;Workbench1135820194 -->
<g id="edge7" class="edge">
<title>Camp1135820194&#45;&gt;Workbench1135820194</title>
<path fill="none" stroke="black" d="M495.26,-162.66C539.82,-152.33 612,-135.6 612,-135.6 612,-135.6 620.92,-112.94 628.51,-93.66"/>
<polygon fill="black" stroke="black" points="631.78,-94.9 632.19,-84.31 625.27,-92.33 631.78,-94.9"/>
<text text-anchor="middle" x="655.1" y="-123" font-family="Times New Roman,serif" font-size="14.00">workbench</text>
<text text-anchor="middle" x="655.1" y="-106.2" font-family="Times New Roman,serif" font-size="14.00">[0..1]</text>
</g>
</g>
</svg>
