<?xml version="1.0" encoding="UTF-8" standalone="no"?>
<!DOCTYPE svg PUBLIC "-//W3C//DTD SVG 1.1//EN"
 "http://www.w3.org/Graphics/SVG/1.1/DTD/svg11.dtd">
<!-- Generated by graphviz version 2.44.1 (20200629.0846)
 -->
<!-- Title: g Pages: 1 -->
<svg width="1036pt" height="1334pt"
 viewBox="0.00 0.00 1036.00 1334.40" xmlns="http://www.w3.org/2000/svg" xmlns:xlink="http://www.w3.org/1999/xlink">
<g id="graph0" class="graph" transform="scale(1 1) rotate(0) translate(4 1330.4)">
<title>g</title>
<polygon fill="white" stroke="transparent" points="-4,4 -4,-1330.4 1032,-1330.4 1032,4 -4,4"/>
<g id="clust2" class="cluster">
<title>cluster_3082202</title>
<polygon fill="#ececec" stroke="black" points="8,-8 8,-1084.4 1020,-1084.4 1020,-8 8,-8"/>
<text text-anchor="middle" x="37" y="-1067.8" font-family="Times New Roman,serif" font-size="14.00">domain</text>
</g>
<g id="clust3" class="cluster">
<title>cluster_811044466</title>
<polygon fill="#d8d8d8" stroke="black" points="16,-16 16,-1051.6 1012,-1051.6 1012,-16 16,-16"/>
<text text-anchor="middle" x="45.77" y="-1035" font-family="Times New Roman,serif" font-size="14.00">crafting</text>
</g>
<g id="clust1" class="cluster">
<title>cluster_3082201</title>
<polygon fill="#ececec" stroke="black" points="203,-1136 203,-1318.4 550,-1318.4 550,-1136 203,-1136"/>
<text text-anchor="middle" x="242.1" y="-1301.8" font-family="Times New Roman,serif" font-size="14.00">application</text>
</g>
<!-- CardInvalidator1052887806 -->
<g id="node1" class="node">
<title>CardInvalidator1052887806</title>
<polygon fill="#ffffff" stroke="transparent" points="501.5,-1180 384.5,-1180 384.5,-1144 501.5,-1144 501.5,-1180"/>
<text text-anchor="start" x="389.85" y="-1157.4" font-family="Times New Roman,serif" font-size="14.00">(C)CardInvalidator</text>
<polygon fill="none" stroke="black" points="384.5,-1149 384.5,-1175 501.5,-1175 501.5,-1149 384.5,-1149"/>
</g>
<!-- Camp1135820194 -->
<g id="node8" class="node">
<title>Camp1135820194</title>
<polygon fill="#ffffff" stroke="transparent" points="586.5,-1018.8 299.5,-1018.8 299.5,-632.8 586.5,-632.8 586.5,-1018.8"/>
<text text-anchor="start" x="305" y="-1001.2" font-family="Times New Roman,serif" font-size="14.00">(C)Camp</text>
<text text-anchor="start" x="305" y="-977.2" font-family="Times New Roman,serif" font-size="14.00">&#45; &#160;&#160;constructed: Deque&lt;Buildable&gt; [0..*]</text>
<text text-anchor="start" x="305" y="-953.2" font-family="Times New Roman,serif" font-size="14.00">&#45; &#160;&#160;currentEndeavor: Rescue [0..1]</text>
<text text-anchor="start" x="305" y="-929.2" font-family="Times New Roman,serif" font-size="14.00">&#45; &#160;&#160;hasFireplace: boolean [1]</text>
<text text-anchor="start" x="305" y="-905.2" font-family="Times New Roman,serif" font-size="14.00">&#45; &#160;&#160;stash: ResourceStash [0..1]</text>
<text text-anchor="start" x="305" y="-881.2" font-family="Times New Roman,serif" font-size="14.00">&#45; &#160;&#160;strongestWeapon: Tool [0..1]</text>
<text text-anchor="start" x="305" y="-857.2" font-family="Times New Roman,serif" font-size="14.00">&#45; &#160;&#160;uuid: UUID [0..1]</text>
<text text-anchor="start" x="305" y="-833.2" font-family="Times New Roman,serif" font-size="14.00">&#45; &#160;&#160;workbench: Workbench [0..1]</text>
<text text-anchor="start" x="305" y="-809.2" font-family="Times New Roman,serif" font-size="14.00">+ addResource(r: Resource)</text>
<text text-anchor="start" x="305" y="-785.2" font-family="Times New Roman,serif" font-size="14.00">+ build(plan: CraftingPlan): Buildable</text>
<text text-anchor="start" x="305" y="-761.2" font-family="Times New Roman,serif" font-size="14.00">+ canBuildAnything(): boolean</text>
<text text-anchor="start" x="305" y="-737.2" font-family="Times New Roman,serif" font-size="14.00">+ devastate()</text>
<text text-anchor="start" x="305" y="-713.2" font-family="Times New Roman,serif" font-size="14.00">+ listConstructed(): List&lt;Buildable&gt;</text>
<text text-anchor="start" x="304.51" y="-689.2" font-family="Times New Roman,serif" font-size="14.00">+ listPossibleCraftingPlans(): List&lt;CraftingPlan&gt;</text>
<text text-anchor="start" x="305" y="-665.2" font-family="Times New Roman,serif" font-size="14.00">+ ravage()</text>
<text text-anchor="start" x="305" y="-641.2" font-family="Times New Roman,serif" font-size="14.00">+ resources(): List&lt;Resource&gt;</text>
<polygon fill="black" stroke="black" points="300,-993.8 300,-993.8 587,-993.8 587,-993.8 300,-993.8"/>
<polygon fill="black" stroke="black" points="300,-825.8 300,-825.8 587,-825.8 587,-825.8 300,-825.8"/>
<polygon fill="none" stroke="black" points="299.5,-632.8 299.5,-1018.8 586.5,-1018.8 586.5,-632.8 299.5,-632.8"/>
</g>
<!-- CardInvalidator1052887806&#45;&gt;Camp1135820194 -->
<g id="edge16" class="edge">
<title>CardInvalidator1052887806&#45;&gt;Camp1135820194</title>
<path fill="none" stroke="black" d="M443,-1143.97C443,-1120.93 443,-1077.19 443,-1029.39"/>
<polygon fill="black" stroke="black" points="446.5,-1029.13 443,-1019.13 439.5,-1029.13 446.5,-1029.13"/>
<text text-anchor="middle" x="458.16" y="-1113.4" font-family="Times New Roman,serif" font-size="14.00">camp</text>
<text text-anchor="middle" x="458.16" y="-1096.6" font-family="Times New Roman,serif" font-size="14.00">[0..1]</text>
</g>
<!-- Game1052887806 -->
<g id="node2" class="node">
<title>Game1052887806</title>
<polygon fill="#ffffff" stroke="transparent" points="334,-1285.6 272,-1285.6 272,-1249.6 334,-1249.6 334,-1285.6"/>
<text text-anchor="start" x="276.96" y="-1263" font-family="Times New Roman,serif" font-size="14.00">(C)Game</text>
<polygon fill="none" stroke="black" points="272,-1254.6 272,-1280.6 334,-1280.6 334,-1254.6 272,-1254.6"/>
</g>
<!-- Game1052887806&#45;&gt;CardInvalidator1052887806 -->
<g id="edge19" class="edge">
<title>Game1052887806&#45;&gt;CardInvalidator1052887806</title>
<path fill="none" stroke="black" d="M322.04,-1249.51C331.94,-1240.63 342,-1231.6 342,-1231.6 342,-1231.6 360.84,-1198 360.84,-1198 360.84,-1198 376.2,-1191.46 393.64,-1184.03"/>
<polygon fill="black" stroke="black" points="395.05,-1187.23 402.88,-1180.09 392.31,-1180.79 395.05,-1187.23"/>
<text text-anchor="middle" x="407.08" y="-1210.6" font-family="Times New Roman,serif" font-size="14.00">draw() &#45;&gt; draw()</text>
</g>
<!-- RollHandler1052887806 -->
<g id="node4" class="node">
<title>RollHandler1052887806</title>
<polygon fill="#ffffff" stroke="transparent" points="328.5,-1180 231.5,-1180 231.5,-1144 328.5,-1144 328.5,-1180"/>
<text text-anchor="start" x="236.57" y="-1157.4" font-family="Times New Roman,serif" font-size="14.00">(C)RollHandler</text>
<polygon fill="none" stroke="black" points="231.5,-1149 231.5,-1175 328.5,-1175 328.5,-1149 231.5,-1149"/>
</g>
<!-- Game1052887806&#45;&gt;RollHandler1052887806 -->
<g id="edge20" class="edge">
<title>Game1052887806&#45;&gt;RollHandler1052887806</title>
<path fill="none" stroke="black" d="M271.59,-1251.55C251.79,-1242.07 229.93,-1231.6 229.93,-1231.6 229.93,-1231.6 229.93,-1198 229.93,-1198 229.93,-1198 237.81,-1192.49 247.32,-1185.84"/>
<polygon fill="black" stroke="black" points="249.36,-1188.69 255.55,-1180.09 245.35,-1182.95 249.36,-1188.69"/>
<text text-anchor="middle" x="285.03" y="-1210.6" font-family="Times New Roman,serif" font-size="14.00">rollDx() &#45;&gt; handle()</text>
</g>
<!-- GameState1052887806 -->
<g id="node3" class="node">
<title>GameState1052887806</title>
<polygon fill="#ffffff" stroke="transparent" points="534,-1285.6 444,-1285.6 444,-1249.6 534,-1249.6 534,-1285.6"/>
<text text-anchor="start" x="448.96" y="-1263" font-family="Times New Roman,serif" font-size="14.00">(C)GameState</text>
<polygon fill="none" stroke="black" points="444,-1254.6 444,-1280.6 534,-1280.6 534,-1254.6 444,-1254.6"/>
</g>
<!-- GameState1052887806&#45;&gt;CardInvalidator1052887806 -->
<g id="edge22" class="edge">
<title>GameState1052887806&#45;&gt;CardInvalidator1052887806</title>
<path fill="none" stroke="black" d="M481.43,-1249.29C472.54,-1228.97 459,-1198 459,-1198 459,-1198 457.31,-1194.3 455.02,-1189.3"/>
<polygon fill="black" stroke="black" points="458.15,-1187.73 450.81,-1180.09 451.79,-1190.64 458.15,-1187.73"/>
<text text-anchor="middle" x="503.33" y="-1219" font-family="Times New Roman,serif" font-size="14.00">invalidator</text>
<text text-anchor="middle" x="503.33" y="-1202.2" font-family="Times New Roman,serif" font-size="14.00">[0..1]</text>
</g>
<!-- GameState1052887806&#45;&gt;Camp1135820194 -->
<g id="edge21" class="edge">
<title>GameState1052887806&#45;&gt;Camp1135820194</title>
<path fill="none" stroke="black" d="M512.93,-1249.51C525.36,-1240.63 538,-1231.6 538,-1231.6 538,-1231.6 538,-1198 538,-1198 538,-1198 516.96,-1115.78 494.68,-1028.73"/>
<polygon fill="black" stroke="black" points="498.04,-1027.74 492.17,-1018.92 491.26,-1029.48 498.04,-1027.74"/>
<text text-anchor="middle" x="548.16" y="-1166.2" font-family="Times New Roman,serif" font-size="14.00">camp</text>
<text text-anchor="middle" x="548.16" y="-1149.4" font-family="Times New Roman,serif" font-size="14.00">[0..1]</text>
</g>
<!-- RollHandler1052887806&#45;&gt;Camp1135820194 -->
<g id="edge28" class="edge">
<title>RollHandler1052887806&#45;&gt;Camp1135820194</title>
<path fill="none" stroke="black" d="M288.31,-1143.97C299.64,-1120.74 321.23,-1076.46 344.78,-1028.19"/>
<polygon fill="black" stroke="black" points="347.95,-1029.66 349.19,-1019.13 341.66,-1026.59 347.95,-1029.66"/>
<text text-anchor="middle" x="326.16" y="-1113.4" font-family="Times New Roman,serif" font-size="14.00">camp</text>
<text text-anchor="middle" x="326.16" y="-1096.6" font-family="Times New Roman,serif" font-size="14.00">[0..1]</text>
</g>
<!-- Axe1135820194 -->
<g id="node5" class="node">
<title>Axe1135820194</title>
<polygon fill="#ffffff" stroke="transparent" points="542,-244.6 488,-244.6 488,-208.6 542,-208.6 542,-244.6"/>
<text text-anchor="start" x="494.51" y="-222" font-family="Times New Roman,serif" font-size="14.00">(C)Axe</text>
<polygon fill="none" stroke="black" points="489.5,-213.6 489.5,-239.6 540.5,-239.6 540.5,-213.6 489.5,-213.6"/>
</g>
<!-- CraftingPlan1135820194 -->
<g id="node10" class="node">
<title>CraftingPlan1135820194</title>
<polygon fill="#dcfbd5" stroke="transparent" points="434.5,-60 335.5,-60 335.5,-24 434.5,-24 434.5,-60"/>
<text text-anchor="start" x="340.79" y="-37.4" font-family="Times New Roman,serif" font-size="14.00">(E)CraftingPlan</text>
<polygon fill="none" stroke="black" points="335.5,-29 335.5,-55 434.5,-55 434.5,-29 335.5,-29"/>
</g>
<!-- Axe1135820194&#45;&gt;CraftingPlan1135820194 -->
<g id="edge1" class="edge">
<title>Axe1135820194&#45;&gt;CraftingPlan1135820194</title>
<path fill="none" stroke="black" d="M508.56,-208.44C498.21,-180.82 479,-129.6 479,-129.6 479,-129.6 438,-78 438,-78 438,-78 429.49,-72.38 419.29,-65.64"/>
<polygon fill="black" stroke="black" points="421.15,-62.68 410.88,-60.09 417.29,-68.52 421.15,-62.68"/>
<text text-anchor="middle" x="479.16" y="-99" font-family="Times New Roman,serif" font-size="14.00">plan</text>
<text text-anchor="middle" x="479.16" y="-82.2" font-family="Times New Roman,serif" font-size="14.00">[0..1]</text>
</g>
<!-- Buildable1135820194 -->
<g id="node6" class="node">
<title>Buildable1135820194</title>
<polygon fill="#f1e5fd" stroke="transparent" points="438,-496.2 360,-496.2 360,-460.2 438,-460.2 438,-496.2"/>
<text text-anchor="start" x="364.79" y="-473.6" font-family="Times New Roman,serif" font-size="14.00">(I)Buildable</text>
<polygon fill="none" stroke="black" points="360,-465.2 360,-491.2 438,-491.2 438,-465.2 360,-465.2"/>
</g>
<!-- Buildable1135820194&#45;&gt;Axe1135820194 -->
<g id="edge2" class="edge">
<title>Buildable1135820194&#45;&gt;Axe1135820194</title>
<path fill="none" stroke="black" d="M412.53,-451.23C435.34,-407.43 479,-323.6 479,-323.6 479,-323.6 498.21,-272.38 508.56,-244.76"/>
<polygon fill="none" stroke="black" points="409.38,-449.69 407.87,-460.18 415.59,-452.92 409.38,-449.69"/>
</g>
<!-- Club1135820194 -->
<g id="node9" class="node">
<title>Club1135820194</title>
<polygon fill="#ffffff" stroke="transparent" points="615.5,-244.6 560.5,-244.6 560.5,-208.6 615.5,-208.6 615.5,-244.6"/>
<text text-anchor="start" x="565.56" y="-222" font-family="Times New Roman,serif" font-size="14.00">(C)Club</text>
<polygon fill="none" stroke="black" points="560.5,-213.6 560.5,-239.6 615.5,-239.6 615.5,-213.6 560.5,-213.6"/>
</g>
<!-- Buildable1135820194&#45;&gt;Club1135820194 -->
<g id="edge3" class="edge">
<title>Buildable1135820194&#45;&gt;Club1135820194</title>
<path fill="none" stroke="black" d="M422.56,-452.47C446.16,-427.69 479,-393.2 479,-393.2 479,-393.2 551,-323.6 551,-323.6 551,-323.6 570.74,-272.38 581.39,-244.76"/>
<polygon fill="none" stroke="black" points="419.94,-450.14 415.58,-459.8 425.01,-454.97 419.94,-450.14"/>
</g>
<!-- Fireplace1135820194 -->
<g id="node11" class="node">
<title>Fireplace1135820194</title>
<polygon fill="#ffffff" stroke="transparent" points="256,-244.6 176,-244.6 176,-208.6 256,-208.6 256,-244.6"/>
<text text-anchor="start" x="180.63" y="-222" font-family="Times New Roman,serif" font-size="14.00">(C)Fireplace</text>
<polygon fill="none" stroke="black" points="176,-213.6 176,-239.6 256,-239.6 256,-213.6 176,-213.6"/>
</g>
<!-- Buildable1135820194&#45;&gt;Fireplace1135820194 -->
<g id="edge4" class="edge">
<title>Buildable1135820194&#45;&gt;Fireplace1135820194</title>
<path fill="none" stroke="black" d="M377.69,-452.59C340.12,-409.2 266,-323.6 266,-323.6 266,-323.6 239.32,-272.38 224.94,-244.76"/>
<polygon fill="none" stroke="black" points="375.07,-454.91 384.26,-460.18 380.36,-450.32 375.07,-454.91"/>
</g>
<!-- GuaranteedRescue1135820194 -->
<g id="node12" class="node">
<title>GuaranteedRescue1135820194</title>
<polygon fill="#ffffff" stroke="transparent" points="157.5,-244.6 24.5,-244.6 24.5,-208.6 157.5,-208.6 157.5,-244.6"/>
<text text-anchor="start" x="29.7" y="-222" font-family="Times New Roman,serif" font-size="14.00">(C)GuaranteedRescue</text>
<polygon fill="none" stroke="black" points="24.5,-213.6 24.5,-239.6 157.5,-239.6 157.5,-213.6 24.5,-213.6"/>
</g>
<!-- Buildable1135820194&#45;&gt;GuaranteedRescue1135820194 -->
<g id="edge5" class="edge">
<title>Buildable1135820194&#45;&gt;GuaranteedRescue1135820194</title>
<path fill="none" stroke="black" d="M364.65,-454.46C300.07,-411.7 167,-323.6 167,-323.6 167,-323.6 126.45,-272.38 104.59,-244.76"/>
<polygon fill="none" stroke="black" points="363.02,-457.57 373.29,-460.18 366.88,-451.74 363.02,-457.57"/>
</g>
<!-- PossibleRescue1135820194 -->
<g id="node13" class="node">
<title>PossibleRescue1135820194</title>
<polygon fill="#ffffff" stroke="transparent" points="389.5,-244.6 274.5,-244.6 274.5,-208.6 389.5,-208.6 389.5,-244.6"/>
<text text-anchor="start" x="279.62" y="-222" font-family="Times New Roman,serif" font-size="14.00">(C)PossibleRescue</text>
<polygon fill="none" stroke="black" points="274.5,-213.6 274.5,-239.6 389.5,-239.6 389.5,-213.6 274.5,-213.6"/>
</g>
<!-- Buildable1135820194&#45;&gt;PossibleRescue1135820194 -->
<g id="edge6" class="edge">
<title>Buildable1135820194&#45;&gt;PossibleRescue1135820194</title>
<path fill="none" stroke="black" d="M391.78,-450.29C377.96,-398.81 348.12,-287.66 336.64,-244.88"/>
<polygon fill="none" stroke="black" points="388.42,-451.29 394.39,-460.04 395.18,-449.48 388.42,-451.29"/>
</g>
<!-- Shack1135820194 -->
<g id="node17" class="node">
<title>Shack1135820194</title>
<polygon fill="#ffffff" stroke="transparent" points="470,-244.6 408,-244.6 408,-208.6 470,-208.6 470,-244.6"/>
<text text-anchor="start" x="412.57" y="-222" font-family="Times New Roman,serif" font-size="14.00">(C)Shack</text>
<polygon fill="none" stroke="black" points="408,-213.6 408,-239.6 470,-239.6 470,-213.6 408,-213.6"/>
</g>
<!-- Buildable1135820194&#45;&gt;Shack1135820194 -->
<g id="edge7" class="edge">
<title>Buildable1135820194&#45;&gt;Shack1135820194</title>
<path fill="none" stroke="black" d="M403.36,-449.97C411.64,-398.34 429.39,-287.57 436.23,-244.88"/>
<polygon fill="none" stroke="black" points="399.88,-449.62 401.75,-460.04 406.79,-450.72 399.88,-449.62"/>
</g>
<!-- Building1135820194 -->
<g id="node7" class="node">
<title>Building1135820194</title>
<polygon fill="#f1e5fd" stroke="transparent" points="252,-496.2 180,-496.2 180,-460.2 252,-460.2 252,-496.2"/>
<text text-anchor="start" x="184.5" y="-473.6" font-family="Times New Roman,serif" font-size="14.00">(I)Building</text>
<polygon fill="none" stroke="black" points="180,-465.2 180,-491.2 252,-491.2 252,-465.2 180,-465.2"/>
</g>
<!-- Building1135820194&#45;&gt;Fireplace1135820194 -->
<g id="edge8" class="edge">
<title>Building1135820194&#45;&gt;Fireplace1135820194</title>
<path fill="none" stroke="black" d="M216,-449.97C216,-398.34 216,-287.57 216,-244.88"/>
<polygon fill="none" stroke="black" points="212.5,-450.04 216,-460.04 219.5,-450.04 212.5,-450.04"/>
</g>
<!-- Building1135820194&#45;&gt;Shack1135820194 -->
<g id="edge9" class="edge">
<title>Building1135820194&#45;&gt;Shack1135820194</title>
<path fill="none" stroke="black" d="M244.04,-453.67C295.32,-410.62 399,-323.6 399,-323.6 399,-323.6 420.34,-272.38 431.85,-244.76"/>
<polygon fill="none" stroke="black" points="241.69,-451.07 236.28,-460.18 246.19,-456.43 241.69,-451.07"/>
</g>
<!-- Camp1135820194&#45;&gt;Buildable1135820194 -->
<g id="edge10" class="edge">
<title>Camp1135820194&#45;&gt;Buildable1135820194</title>
<path fill="none" stroke="black" d="M404.1,-632.7C401.84,-621.58 400.47,-614.8 400.47,-614.8 400.47,-614.8 399.72,-546.05 399.3,-506.45"/>
<polygon fill="black" stroke="black" points="402.79,-506.34 399.19,-496.37 395.79,-506.41 402.79,-506.34"/>
<text text-anchor="middle" x="432.27" y="-602.2" font-family="Times New Roman,serif" font-size="14.00">constructed</text>
<text text-anchor="middle" x="432.27" y="-585.4" font-family="Times New Roman,serif" font-size="14.00">[0..*]</text>
</g>
<!-- Camp1135820194&#45;&gt;Building1135820194 -->
<g id="edge11" class="edge">
<title>Camp1135820194&#45;&gt;Building1135820194</title>
<path fill="none" stroke="black" d="M299.27,-684.44C259.96,-646.05 227.96,-614.8 227.96,-614.8 227.96,-614.8 221.9,-546.05 218.4,-506.45"/>
<polygon fill="black" stroke="black" points="221.88,-506.03 217.52,-496.37 214.91,-506.64 221.88,-506.03"/>
<text text-anchor="middle" x="311.02" y="-593.8" font-family="Times New Roman,serif" font-size="14.00">devastate() &#45;&gt; isDestructible()</text>
</g>
<!-- Rescue1135820194 -->
<g id="node14" class="node">
<title>Rescue1135820194</title>
<polygon fill="#f1e5fd" stroke="transparent" points="124,-496.2 60,-496.2 60,-460.2 124,-460.2 124,-496.2"/>
<text text-anchor="start" x="64.8" y="-473.6" font-family="Times New Roman,serif" font-size="14.00">(I)Rescue</text>
<polygon fill="none" stroke="black" points="60,-465.2 60,-491.2 124,-491.2 124,-465.2 60,-465.2"/>
</g>
<!-- Camp1135820194&#45;&gt;Rescue1135820194 -->
<g id="edge12" class="edge">
<title>Camp1135820194&#45;&gt;Rescue1135820194</title>
<path fill="none" stroke="black" d="M299.2,-729.02C216.04,-673.63 127.72,-614.8 127.72,-614.8 127.72,-614.8 109.53,-545.75 99.11,-506.2"/>
<polygon fill="black" stroke="black" points="102.46,-505.15 96.52,-496.37 95.69,-506.94 102.46,-505.15"/>
<text text-anchor="middle" x="173.64" y="-602.2" font-family="Times New Roman,serif" font-size="14.00">currentEndeavor</text>
<text text-anchor="middle" x="173.64" y="-585.4" font-family="Times New Roman,serif" font-size="14.00">[0..1]</text>
</g>
<!-- ResourceStash1135820194 -->
<g id="node16" class="node">
<title>ResourceStash1135820194</title>
<polygon fill="#ffffff" stroke="transparent" points="1004,-323.6 634,-323.6 634,-129.6 1004,-129.6 1004,-323.6"/>
<text text-anchor="start" x="639" y="-306" font-family="Times New Roman,serif" font-size="14.00">(C)ResourceStash</text>
<text text-anchor="start" x="639" y="-282" font-family="Times New Roman,serif" font-size="14.00">&#45; &#160;&#160;protectedResourcesCount: NonNegativeInteger [0..1]</text>
<text text-anchor="start" x="639" y="-258" font-family="Times New Roman,serif" font-size="14.00">&#45; &#160;&#160;stash: Deque&lt;Resource&gt; [0..*]</text>
<text text-anchor="start" x="639" y="-234" font-family="Times New Roman,serif" font-size="14.00">+ add(resource: Resource)</text>
<text text-anchor="start" x="639" y="-210" font-family="Times New Roman,serif" font-size="14.00">+ consumeResources(required: Set&lt;ResourceRequirement&gt;)</text>
<text text-anchor="start" x="639" y="-186" font-family="Times New Roman,serif" font-size="14.00">+ devastate()</text>
<text text-anchor="start" x="638.64" y="-162" font-family="Times New Roman,serif" font-size="14.00">+ hasResources(required: Set&lt;ResourceRequirement&gt;): boolean</text>
<text text-anchor="start" x="639" y="-138" font-family="Times New Roman,serif" font-size="14.00">+ protectTopMostNResources(n: NonNegativeInteger)</text>
<polygon fill="black" stroke="black" points="634,-298.6 634,-298.6 1004,-298.6 1004,-298.6 634,-298.6"/>
<polygon fill="black" stroke="black" points="634,-250.6 634,-250.6 1004,-250.6 1004,-250.6 634,-250.6"/>
<polygon fill="none" stroke="black" points="634,-129.6 634,-323.6 1004,-323.6 1004,-129.6 634,-129.6"/>
</g>
<!-- Camp1135820194&#45;&gt;ResourceStash1135820194 -->
<g id="edge13" class="edge">
<title>Camp1135820194&#45;&gt;ResourceStash1135820194</title>
<path fill="none" stroke="black" d="M572.89,-632.7C580.42,-621.58 585,-614.8 585,-614.8 585,-614.8 599.68,-393.2 599.68,-393.2 599.68,-393.2 638.55,-363.85 683.57,-329.86"/>
<polygon fill="black" stroke="black" points="685.87,-332.51 691.74,-323.69 681.65,-326.92 685.87,-332.51"/>
<text text-anchor="middle" x="614.16" y="-482.4" font-family="Times New Roman,serif" font-size="14.00">stash</text>
<text text-anchor="middle" x="614.16" y="-465.6" font-family="Times New Roman,serif" font-size="14.00">[0..1]</text>
</g>
<!-- Tool1135820194 -->
<g id="node18" class="node">
<title>Tool1135820194</title>
<polygon fill="#f1e5fd" stroke="transparent" points="542,-496.2 488,-496.2 488,-460.2 542,-460.2 542,-496.2"/>
<text text-anchor="start" x="494.79" y="-473.6" font-family="Times New Roman,serif" font-size="14.00">(I)Tool</text>
<polygon fill="none" stroke="black" points="490,-465.2 490,-491.2 540,-491.2 540,-465.2 490,-465.2"/>
</g>
<!-- Camp1135820194&#45;&gt;Tool1135820194 -->
<g id="edge14" class="edge">
<title>Camp1135820194&#45;&gt;Tool1135820194</title>
<path fill="none" stroke="black" d="M478.36,-632.56C483.89,-602.53 487.81,-581.2 487.81,-581.2 487.81,-581.2 499.67,-536.71 507.72,-506.5"/>
<polygon fill="black" stroke="black" points="511.19,-507.07 510.39,-496.5 504.43,-505.26 511.19,-507.07"/>
<text text-anchor="middle" x="535.59" y="-602.2" font-family="Times New Roman,serif" font-size="14.00">strongestWeapon</text>
<text text-anchor="middle" x="535.59" y="-585.4" font-family="Times New Roman,serif" font-size="14.00">[0..1]</text>
</g>
<!-- Workbench1135820194 -->
<g id="node19" class="node">
<title>Workbench1135820194</title>
<polygon fill="#ffffff" stroke="transparent" points="1003.5,-563.2 638.5,-563.2 638.5,-393.2 1003.5,-393.2 1003.5,-563.2"/>
<text text-anchor="start" x="644" y="-545.6" font-family="Times New Roman,serif" font-size="14.00">(C)Workbench</text>
<text text-anchor="start" x="644" y="-521.6" font-family="Times New Roman,serif" font-size="14.00">&#45; &#160;&#160;stash: ResourceStash [0..1]</text>
<text text-anchor="start" x="644" y="-497.6" font-family="Times New Roman,serif" font-size="14.00">+ build(plan: CraftingPlan, hasFireplace: boolean): Buildable</text>
<text text-anchor="start" x="644" y="-473.6" font-family="Times New Roman,serif" font-size="14.00">&#45; build(plan: CraftingPlan): Buildable</text>
<text text-anchor="start" x="644" y="-449.6" font-family="Times New Roman,serif" font-size="14.00">&#45; canBuild(plan: CraftingPlan, hasFireplace: boolean): boolean</text>
<text text-anchor="start" x="643.85" y="-425.6" font-family="Times New Roman,serif" font-size="14.00">+ getCraftablePlans(hasFireplace: boolean): Set&lt;CraftingPlan&gt;</text>
<text text-anchor="start" x="644" y="-401.6" font-family="Times New Roman,serif" font-size="14.00">+ stash(): ResourceStash</text>
<polygon fill="black" stroke="black" points="639,-538.2 639,-538.2 1004,-538.2 1004,-538.2 639,-538.2"/>
<polygon fill="black" stroke="black" points="639,-514.2 639,-514.2 1004,-514.2 1004,-514.2 639,-514.2"/>
<polygon fill="none" stroke="black" points="638.5,-393.2 638.5,-563.2 1003.5,-563.2 1003.5,-393.2 638.5,-393.2"/>
</g>
<!-- Camp1135820194&#45;&gt;Workbench1135820194 -->
<g id="edge15" class="edge">
<title>Camp1135820194&#45;&gt;Workbench1135820194</title>
<path fill="none" stroke="black" d="M586.71,-693.4C631.62,-652.35 680.15,-607.98 721.33,-570.33"/>
<polygon fill="black" stroke="black" points="723.91,-572.71 728.93,-563.38 719.18,-567.55 723.91,-572.71"/>
<text text-anchor="middle" x="740.1" y="-602.2" font-family="Times New Roman,serif" font-size="14.00">workbench</text>
<text text-anchor="middle" x="740.1" y="-585.4" font-family="Times New Roman,serif" font-size="14.00">[0..1]</text>
</g>
<!-- Club1135820194&#45;&gt;CraftingPlan1135820194 -->
<g id="edge17" class="edge">
<title>Club1135820194&#45;&gt;CraftingPlan1135820194</title>
<path fill="none" stroke="black" d="M581.39,-208.44C570.74,-180.82 551,-129.6 551,-129.6 551,-129.6 498,-78 498,-78 498,-78 471.53,-69.8 444.22,-61.34"/>
<polygon fill="black" stroke="black" points="445.15,-57.97 434.56,-58.35 443.08,-64.65 445.15,-57.97"/>
<text text-anchor="middle" x="547.16" y="-99" font-family="Times New Roman,serif" font-size="14.00">plan</text>
<text text-anchor="middle" x="547.16" y="-82.2" font-family="Times New Roman,serif" font-size="14.00">[0..1]</text>
</g>
<!-- Fireplace1135820194&#45;&gt;CraftingPlan1135820194 -->
<g id="edge18" class="edge">
<title>Fireplace1135820194&#45;&gt;CraftingPlan1135820194</title>
<path fill="none" stroke="black" d="M224.94,-208.44C239.32,-180.82 266,-129.6 266,-129.6 266,-129.6 318.68,-78 318.68,-78 318.68,-78 330.19,-71.93 343.62,-64.84"/>
<polygon fill="black" stroke="black" points="345.41,-67.85 352.62,-60.09 342.14,-61.66 345.41,-67.85"/>
<text text-anchor="middle" x="333.16" y="-99" font-family="Times New Roman,serif" font-size="14.00">plan</text>
<text text-anchor="middle" x="333.16" y="-82.2" font-family="Times New Roman,serif" font-size="14.00">[0..1]</text>
</g>
<!-- GuaranteedRescue1135820194&#45;&gt;CraftingPlan1135820194 -->
<g id="edge23" class="edge">
<title>GuaranteedRescue1135820194&#45;&gt;CraftingPlan1135820194</title>
<path fill="none" stroke="black" d="M104.59,-208.44C126.45,-180.82 167,-129.6 167,-129.6 167,-129.6 249.68,-78 249.68,-78 249.68,-78 289.01,-67.83 325.27,-58.45"/>
<polygon fill="black" stroke="black" points="326.57,-61.73 335.38,-55.83 324.82,-54.95 326.57,-61.73"/>
<text text-anchor="middle" x="264.16" y="-99" font-family="Times New Roman,serif" font-size="14.00">plan</text>
<text text-anchor="middle" x="264.16" y="-82.2" font-family="Times New Roman,serif" font-size="14.00">[0..1]</text>
</g>
<!-- PossibleRescue1135820194&#45;&gt;CraftingPlan1135820194 -->
<g id="edge24" class="edge">
<title>PossibleRescue1135820194&#45;&gt;CraftingPlan1135820194</title>
<path fill="none" stroke="black" d="M335.23,-208.38C342.53,-169.44 359.68,-78 359.68,-78 359.68,-78 362.63,-73.93 366.51,-68.56"/>
<polygon fill="black" stroke="black" points="369.61,-70.24 372.64,-60.09 363.94,-66.14 369.61,-70.24"/>
<text text-anchor="middle" x="374.16" y="-99" font-family="Times New Roman,serif" font-size="14.00">plan</text>
<text text-anchor="middle" x="374.16" y="-82.2" font-family="Times New Roman,serif" font-size="14.00">[0..1]</text>
</g>
<!-- Rescue1135820194&#45;&gt;GuaranteedRescue1135820194 -->
<g id="edge25" class="edge">
<title>Rescue1135820194&#45;&gt;GuaranteedRescue1135820194</title>
<path fill="none" stroke="black" d="M91.89,-449.97C91.68,-398.34 91.24,-287.57 91.07,-244.88"/>
<polygon fill="none" stroke="black" points="88.39,-450.06 91.93,-460.04 95.39,-450.03 88.39,-450.06"/>
</g>
<!-- Rescue1135820194&#45;&gt;PossibleRescue1135820194 -->
<g id="edge26" class="edge">
<title>Rescue1135820194&#45;&gt;PossibleRescue1135820194</title>
<path fill="none" stroke="black" d="M115.26,-452.47C138.57,-427.69 171,-393.2 171,-393.2 171,-393.2 265,-323.6 265,-323.6 265,-323.6 300.75,-272.38 320.02,-244.76"/>
<polygon fill="none" stroke="black" points="112.67,-450.11 108.37,-459.8 117.77,-454.91 112.67,-450.11"/>
</g>
<!-- Resource1135820194 -->
<g id="node15" class="node">
<title>Resource1135820194</title>
<polygon fill="#dcfbd5" stroke="transparent" points="858.5,-60 779.5,-60 779.5,-24 858.5,-24 858.5,-60"/>
<text text-anchor="start" x="784.52" y="-37.4" font-family="Times New Roman,serif" font-size="14.00">(E)Resource</text>
<polygon fill="none" stroke="black" points="779.5,-29 779.5,-55 858.5,-55 858.5,-29 779.5,-29"/>
</g>
<!-- ResourceStash1135820194&#45;&gt;Resource1135820194 -->
<g id="edge27" class="edge">
<title>ResourceStash1135820194&#45;&gt;Resource1135820194</title>
<path fill="none" stroke="black" d="M819,-129.49C819,-107.71 819,-86.29 819,-70.22"/>
<polygon fill="black" stroke="black" points="822.5,-70.01 819,-60.01 815.5,-70.01 822.5,-70.01"/>
<text text-anchor="middle" x="834.16" y="-99" font-family="Times New Roman,serif" font-size="14.00">stash</text>
<text text-anchor="middle" x="834.16" y="-82.2" font-family="Times New Roman,serif" font-size="14.00">[0..*]</text>
</g>
<!-- Shack1135820194&#45;&gt;CraftingPlan1135820194 -->
<g id="edge29" class="edge">
<title>Shack1135820194&#45;&gt;CraftingPlan1135820194</title>
<path fill="none" stroke="black" d="M433.92,-208.42C424.51,-176.61 404.31,-108.31 393.03,-70.17"/>
<polygon fill="black" stroke="black" points="396.3,-68.86 390.11,-60.27 389.59,-70.85 396.3,-68.86"/>
<text text-anchor="middle" x="419.16" y="-99" font-family="Times New Roman,serif" font-size="14.00">plan</text>
<text text-anchor="middle" x="419.16" y="-82.2" font-family="Times New Roman,serif" font-size="14.00">[0..1]</text>
</g>
<!-- Tool1135820194&#45;&gt;Axe1135820194 -->
<g id="edge30" class="edge">
<title>Tool1135820194&#45;&gt;Axe1135820194</title>
<path fill="none" stroke="black" d="M515,-449.97C515,-398.34 515,-287.57 515,-244.88"/>
<polygon fill="none" stroke="black" points="511.5,-450.04 515,-460.04 518.5,-450.04 511.5,-450.04"/>
</g>
<!-- Tool1135820194&#45;&gt;Club1135820194 -->
<g id="edge31" class="edge">
<title>Tool1135820194&#45;&gt;Club1135820194</title>
<path fill="none" stroke="black" d="M522.87,-450.29C537.93,-398.81 570.43,-287.66 582.95,-244.88"/>
<polygon fill="none" stroke="black" points="519.47,-449.46 520.02,-460.04 526.18,-451.43 519.47,-449.46"/>
</g>
<!-- Workbench1135820194&#45;&gt;ResourceStash1135820194 -->
<g id="edge32" class="edge">
<title>Workbench1135820194&#45;&gt;ResourceStash1135820194</title>
<path fill="none" stroke="black" d="M820.33,-393.04C820.17,-374.12 820.01,-353.8 819.85,-334.1"/>
<polygon fill="black" stroke="black" points="823.35,-333.84 819.77,-323.87 816.35,-333.9 823.35,-333.84"/>
<text text-anchor="middle" x="835.16" y="-362.6" font-family="Times New Roman,serif" font-size="14.00">stash</text>
<text text-anchor="middle" x="835.16" y="-345.8" font-family="Times New Roman,serif" font-size="14.00">[0..1]</text>
</g>
</g>
</svg>
