<?xml version="1.0" encoding="UTF-8" standalone="no"?>
<!DOCTYPE svg PUBLIC "-//W3C//DTD SVG 1.1//EN"
 "http://www.w3.org/Graphics/SVG/1.1/DTD/svg11.dtd">
<!-- Generated by graphviz version 2.44.1 (20200629.0846)
 -->
<!-- Title: g Pages: 1 -->
<svg width="918pt" height="641pt"
 viewBox="0.00 0.00 917.50 640.80" xmlns="http://www.w3.org/2000/svg" xmlns:xlink="http://www.w3.org/1999/xlink">
<g id="graph0" class="graph" transform="scale(1 1) rotate(0) translate(4 636.8)">
<title>g</title>
<polygon fill="white" stroke="transparent" points="-4,4 -4,-636.8 913.5,-636.8 913.5,4 -4,4"/>
<!-- Camp1135820194 -->
<g id="node1" class="node">
<title>Camp1135820194</title>
<polygon fill="#ffffff" stroke="transparent" points="287,-632.8 0,-632.8 0,-150.8 287,-150.8 287,-632.8"/>
<text text-anchor="start" x="5.5" y="-615.2" font-family="Times New Roman,serif" font-size="14.00">(C)Camp</text>
<text text-anchor="start" x="5.5" y="-591.2" font-family="Times New Roman,serif" font-size="14.00">&#45; &#160;&#160;constructed: Deque&lt;Buildable&gt; [0..*]</text>
<text text-anchor="start" x="5.5" y="-567.2" font-family="Times New Roman,serif" font-size="14.00">&#45; &#160;&#160;currentEndeavor: Rescue [0..1]</text>
<text text-anchor="start" x="5.5" y="-543.2" font-family="Times New Roman,serif" font-size="14.00">&#45; &#160;&#160;hasFireplace: boolean [1]</text>
<text text-anchor="start" x="5.5" y="-519.2" font-family="Times New Roman,serif" font-size="14.00">&#45; &#160;&#160;stash: ResourceStash [0..1]</text>
<text text-anchor="start" x="5.5" y="-495.2" font-family="Times New Roman,serif" font-size="14.00">&#45; &#160;&#160;strongestWeapon: Tool [0..1]</text>
<text text-anchor="start" x="5.5" y="-471.2" font-family="Times New Roman,serif" font-size="14.00">&#45; &#160;&#160;uuid: UUID [0..1]</text>
<text text-anchor="start" x="5.5" y="-447.2" font-family="Times New Roman,serif" font-size="14.00">&#45; &#160;&#160;workbench: Workbench [0..1]</text>
<text text-anchor="start" x="5.5" y="-423.2" font-family="Times New Roman,serif" font-size="14.00">+ Camp(uuid: UUID)</text>
<text text-anchor="start" x="5.5" y="-399.2" font-family="Times New Roman,serif" font-size="14.00">+ addResource(r: Resource)</text>
<text text-anchor="start" x="5.5" y="-375.2" font-family="Times New Roman,serif" font-size="14.00">+ build(plan: CraftingPlan): Buildable</text>
<text text-anchor="start" x="5.5" y="-351.2" font-family="Times New Roman,serif" font-size="14.00">+ canBuildAnything(): boolean</text>
<text text-anchor="start" x="5.5" y="-327.2" font-family="Times New Roman,serif" font-size="14.00">+ devastate()</text>
<text text-anchor="start" x="5.5" y="-303.2" font-family="Times New Roman,serif" font-size="14.00">+ getBonusDamage(): int</text>
<text text-anchor="start" x="5.5" y="-279.2" font-family="Times New Roman,serif" font-size="14.00">+ getCurrentEndeavor(): Rescue</text>
<text text-anchor="start" x="5.5" y="-255.2" font-family="Times New Roman,serif" font-size="14.00">+ hashCode(): int</text>
<text text-anchor="start" x="5.5" y="-231.2" font-family="Times New Roman,serif" font-size="14.00">+ listConstructed(): List&lt;Buildable&gt;</text>
<text text-anchor="start" x="5.01" y="-207.2" font-family="Times New Roman,serif" font-size="14.00">+ listPossibleCraftingPlans(): List&lt;CraftingPlan&gt;</text>
<text text-anchor="start" x="5.5" y="-183.2" font-family="Times New Roman,serif" font-size="14.00">+ ravage()</text>
<text text-anchor="start" x="5.5" y="-159.2" font-family="Times New Roman,serif" font-size="14.00">+ resources(): List&lt;Resource&gt;</text>
<polygon fill="black" stroke="black" points="0.5,-607.8 0.5,-607.8 287.5,-607.8 287.5,-607.8 0.5,-607.8"/>
<polygon fill="black" stroke="black" points="0.5,-439.8 0.5,-439.8 287.5,-439.8 287.5,-439.8 0.5,-439.8"/>
<polygon fill="none" stroke="black" points="0,-150.8 0,-632.8 287,-632.8 287,-150.8 0,-150.8"/>
</g>
<!-- CampMock1052887806 -->
<g id="node3" class="node">
<title>CampMock1052887806</title>
<polygon fill="#ffffff" stroke="transparent" points="484.5,-98 266.5,-98 266.5,0 484.5,0 484.5,-98"/>
<text text-anchor="start" x="271.5" y="-80.4" font-family="Times New Roman,serif" font-size="14.00">(C)CampMock</text>
<text text-anchor="start" x="271.5" y="-56.4" font-family="Times New Roman,serif" font-size="14.00">&#45; &#160;&#160;bonusDamage: int [1]</text>
<text text-anchor="start" x="271.5" y="-32.4" font-family="Times New Roman,serif" font-size="14.00">+ CampMock(bonusDamage: int)</text>
<text text-anchor="start" x="271.22" y="-8.4" font-family="Times New Roman,serif" font-size="14.00">@Override + getBonusDamage(): int</text>
<polygon fill="black" stroke="black" points="266.5,-73 266.5,-73 484.5,-73 484.5,-73 266.5,-73"/>
<polygon fill="black" stroke="black" points="266.5,-49 266.5,-49 484.5,-49 484.5,-49 266.5,-49"/>
<polygon fill="none" stroke="black" points="266.5,0 266.5,-98 484.5,-98 484.5,0 266.5,0"/>
</g>
<!-- Camp1135820194&#45;&gt;CampMock1052887806 -->
<g id="edge1" class="edge">
<title>Camp1135820194&#45;&gt;CampMock1052887806</title>
<path fill="none" stroke="black" d="M292.7,-156.76C295.15,-152.92 296.5,-150.8 296.5,-150.8 296.5,-150.8 317.5,-124 337.85,-98.04"/>
<polygon fill="none" stroke="black" points="289.58,-155.14 287.16,-165.45 295.49,-158.9 289.58,-155.14"/>
</g>
<!-- RollHandlerTest1052887806 -->
<g id="node2" class="node">
<title>RollHandlerTest1052887806</title>
<polygon fill="#ffffff" stroke="transparent" points="909.5,-452.8 305.5,-452.8 305.5,-330.8 909.5,-330.8 909.5,-452.8"/>
<text text-anchor="start" x="310.5" y="-435.2" font-family="Times New Roman,serif" font-size="14.00">(C)RollHandlerTest</text>
<text text-anchor="start" x="310.5" y="-411.2" font-family="Times New Roman,serif" font-size="14.00"># encounter(bonusDamage: int, card: Card, roll: Roll, expectedOutcome: OutcomeType)</text>
<text text-anchor="start" x="310.5" y="-387.2" font-family="Times New Roman,serif" font-size="14.00">&#45; encounter(): List&lt;Arguments&gt;</text>
<text text-anchor="start" x="310.13" y="-363.2" font-family="Times New Roman,serif" font-size="14.00"># endeavor(rescueSuccess: boolean, expectedOutcome: OutcomeType, expectedGamePhase: GamePhase)</text>
<text text-anchor="start" x="310.5" y="-339.2" font-family="Times New Roman,serif" font-size="14.00">&#45; endeavor(): List&lt;Arguments&gt;</text>
<polygon fill="black" stroke="black" points="305.5,-427.8 305.5,-427.8 909.5,-427.8 909.5,-427.8 305.5,-427.8"/>
<polygon fill="none" stroke="black" points="305.5,-330.8 305.5,-452.8 909.5,-452.8 909.5,-330.8 305.5,-330.8"/>
</g>
<!-- RollHandlerTest1052887806&#45;&gt;CampMock1052887806 -->
<g id="edge2" class="edge">
<title>RollHandlerTest1052887806&#45;&gt;CampMock1052887806</title>
<path fill="none" stroke="black" d="M566.56,-330.66C523.51,-267.42 456.29,-168.68 414.13,-106.75"/>
<polygon fill="black" stroke="black" points="416.87,-104.56 408.35,-98.26 411.09,-108.5 416.87,-104.56"/>
<text text-anchor="middle" x="512.25" y="-120.2" font-family="Times New Roman,serif" font-size="14.00">encounter() &#45;&gt; CampMock()</text>
</g>
</g>
</svg>
