<?xml version="1.0" encoding="UTF-8" standalone="no"?>
<!DOCTYPE svg PUBLIC "-//W3C//DTD SVG 1.1//EN"
 "http://www.w3.org/Graphics/SVG/1.1/DTD/svg11.dtd">
<!-- Generated by graphviz version 2.44.1 (20200629.0846)
 -->
<!-- Title: g Pages: 1 -->
<svg width="524pt" height="787pt"
 viewBox="0.00 0.00 524.00 787.40" xmlns="http://www.w3.org/2000/svg" xmlns:xlink="http://www.w3.org/1999/xlink">
<g id="graph0" class="graph" transform="scale(1 1) rotate(0) translate(4 783.4)">
<title>g</title>
<polygon fill="white" stroke="transparent" points="-4,4 -4,-783.4 520,-783.4 520,4 -4,4"/>
<!-- Camp1135820194 -->
<g id="node1" class="node">
<title>Camp1135820194</title>
<polygon fill="#ffffff" stroke="transparent" points="206,-458.2 144,-458.2 144,-422.2 206,-422.2 206,-458.2"/>
<text text-anchor="start" x="148.95" y="-435.6" font-family="Times New Roman,serif" font-size="14.00">(C)Camp</text>
<polygon fill="none" stroke="black" points="144,-427.2 144,-453.2 206,-453.2 206,-427.2 144,-427.2"/>
</g>
<!-- Card1697264569 -->
<g id="node2" class="node">
<title>Card1697264569</title>
<polygon fill="#f1e5fd" stroke="transparent" points="338,-352.6 178,-352.6 178,-302.6 338,-302.6 338,-352.6"/>
<text text-anchor="start" x="183" y="-335" font-family="Times New Roman,serif" font-size="14.00">(I)Card</text>
<text text-anchor="start" x="182.71" y="-311" font-family="Times New Roman,serif" font-size="14.00">+ &#160;invalidate(camp: Camp)</text>
<polygon fill="black" stroke="black" points="178,-327.6 178,-327.6 338,-327.6 338,-327.6 178,-327.6"/>
<polygon fill="none" stroke="black" points="178,-302.6 178,-352.6 338,-352.6 338,-302.6 178,-302.6"/>
</g>
<!-- MetalCard1697264569 -->
<g id="node3" class="node">
<title>MetalCard1697264569</title>
<polygon fill="#ffffff" stroke="transparent" points="160,-265.6 0,-265.6 0,-191.6 160,-191.6 160,-265.6"/>
<text text-anchor="start" x="5" y="-248" font-family="Times New Roman,serif" font-size="14.00">(C)MetalCard</text>
<text text-anchor="start" x="5" y="-224" font-family="Times New Roman,serif" font-size="14.00">&#45; &#160;resource: Resource [1]</text>
<text text-anchor="start" x="4.71" y="-200" font-family="Times New Roman,serif" font-size="14.00">+ &#160;invalidate(camp: Camp)</text>
<polygon fill="black" stroke="black" points="0,-240.6 0,-240.6 160,-240.6 160,-240.6 0,-240.6"/>
<polygon fill="black" stroke="black" points="0,-216.6 0,-216.6 160,-216.6 160,-216.6 0,-216.6"/>
<polygon fill="none" stroke="black" points="0,-191.6 0,-265.6 160,-265.6 160,-191.6 0,-191.6"/>
</g>
<!-- Card1697264569&#45;&gt;MetalCard1697264569 -->
<g id="edge8" class="edge">
<title>Card1697264569&#45;&gt;MetalCard1697264569</title>
<path fill="none" stroke="black" d="M204.71,-297.56C186.28,-287.52 165.4,-276.14 146.07,-265.6"/>
<polygon fill="none" stroke="black" points="203.09,-300.66 213.54,-302.37 206.44,-294.51 203.09,-300.66"/>
</g>
<!-- WoodCard1697264569 -->
<g id="node4" class="node">
<title>WoodCard1697264569</title>
<polygon fill="#ffffff" stroke="transparent" points="338,-265.6 178,-265.6 178,-191.6 338,-191.6 338,-265.6"/>
<text text-anchor="start" x="183" y="-248" font-family="Times New Roman,serif" font-size="14.00">(C)WoodCard</text>
<text text-anchor="start" x="183" y="-224" font-family="Times New Roman,serif" font-size="14.00">&#45; &#160;resource: Resource [1]</text>
<text text-anchor="start" x="182.71" y="-200" font-family="Times New Roman,serif" font-size="14.00">+ &#160;invalidate(camp: Camp)</text>
<polygon fill="black" stroke="black" points="178,-240.6 178,-240.6 338,-240.6 338,-240.6 178,-240.6"/>
<polygon fill="black" stroke="black" points="178,-216.6 178,-216.6 338,-216.6 338,-216.6 178,-216.6"/>
<polygon fill="none" stroke="black" points="178,-191.6 178,-265.6 338,-265.6 338,-191.6 178,-191.6"/>
</g>
<!-- Card1697264569&#45;&gt;WoodCard1697264569 -->
<g id="edge9" class="edge">
<title>Card1697264569&#45;&gt;WoodCard1697264569</title>
<path fill="none" stroke="black" d="M258,-292.11C258,-283.58 258,-274.42 258,-265.81"/>
<polygon fill="none" stroke="black" points="254.5,-292.12 258,-302.12 261.5,-292.12 254.5,-292.12"/>
</g>
<!-- TigerCard1697264569 -->
<g id="node5" class="node">
<title>TigerCard1697264569</title>
<polygon fill="#ffffff" stroke="transparent" points="516,-253.6 356,-253.6 356,-203.6 516,-203.6 516,-253.6"/>
<text text-anchor="start" x="361" y="-236" font-family="Times New Roman,serif" font-size="14.00">(C)TigerCard</text>
<text text-anchor="start" x="360.71" y="-212" font-family="Times New Roman,serif" font-size="14.00">+ &#160;invalidate(camp: Camp)</text>
<polygon fill="black" stroke="black" points="356,-228.6 356,-228.6 516,-228.6 516,-228.6 356,-228.6"/>
<polygon fill="none" stroke="black" points="356,-203.6 356,-253.6 516,-253.6 516,-203.6 356,-203.6"/>
</g>
<!-- Card1697264569&#45;&gt;TigerCard1697264569 -->
<g id="edge10" class="edge">
<title>Card1697264569&#45;&gt;TigerCard1697264569</title>
<path fill="none" stroke="black" d="M311.33,-297.54C337.01,-283.55 367.43,-266.96 391.8,-253.69"/>
<polygon fill="none" stroke="black" points="309.56,-294.51 302.46,-302.37 312.91,-300.66 309.56,-294.51"/>
</g>
<!-- Resource1135820194 -->
<g id="node9" class="node">
<title>Resource1135820194</title>
<polygon fill="#dcfbd5" stroke="transparent" points="273,-122 65,-122 65,0 273,0 273,-122"/>
<text text-anchor="start" x="70" y="-104.4" font-family="Times New Roman,serif" font-size="14.00">(E)Resource</text>
<text text-anchor="start" x="70" y="-80.4" font-family="Times New Roman,serif" font-size="14.00">+ &#160;&#160;METAL: Resource [1]</text>
<text text-anchor="start" x="69.99" y="-56.4" font-family="Times New Roman,serif" font-size="14.00">+ &#160;&#160;NO_RESOURCE: Resource [1]</text>
<text text-anchor="start" x="70" y="-32.4" font-family="Times New Roman,serif" font-size="14.00">+ &#160;&#160;PLASTIC: Resource [1]</text>
<text text-anchor="start" x="70" y="-8.4" font-family="Times New Roman,serif" font-size="14.00">+ &#160;&#160;WOOD: Resource [1]</text>
<polygon fill="black" stroke="black" points="65,-97 65,-97 273,-97 273,-97 65,-97"/>
<polygon fill="none" stroke="black" points="65,0 65,-122 273,-122 273,0 65,0"/>
</g>
<!-- MetalCard1697264569&#45;&gt;Resource1135820194 -->
<g id="edge1" class="edge">
<title>MetalCard1697264569&#45;&gt;Resource1135820194</title>
<path fill="none" stroke="black" d="M99.53,-191.26C109.03,-173.59 120.76,-151.76 131.87,-131.09"/>
<polygon fill="black" stroke="black" points="135.1,-132.48 136.75,-122.01 128.93,-129.16 135.1,-132.48"/>
<text text-anchor="middle" x="148.7" y="-161" font-family="Times New Roman,serif" font-size="14.00">resource</text>
<text text-anchor="middle" x="148.7" y="-144.2" font-family="Times New Roman,serif" font-size="14.00">[1]</text>
</g>
<!-- WoodCard1697264569&#45;&gt;Resource1135820194 -->
<g id="edge2" class="edge">
<title>WoodCard1697264569&#45;&gt;Resource1135820194</title>
<path fill="none" stroke="black" d="M238.47,-191.26C228.97,-173.59 217.24,-151.76 206.13,-131.09"/>
<polygon fill="black" stroke="black" points="209.07,-129.16 201.25,-122.01 202.9,-132.48 209.07,-129.16"/>
<text text-anchor="middle" x="250.7" y="-161" font-family="Times New Roman,serif" font-size="14.00">resource</text>
<text text-anchor="middle" x="250.7" y="-144.2" font-family="Times New Roman,serif" font-size="14.00">[1]</text>
</g>
<!-- CardDeck1697264569 -->
<g id="node6" class="node">
<title>CardDeck1697264569</title>
<polygon fill="#ffffff" stroke="transparent" points="466.5,-458.2 381.5,-458.2 381.5,-422.2 466.5,-422.2 466.5,-458.2"/>
<text text-anchor="start" x="386.8" y="-435.6" font-family="Times New Roman,serif" font-size="14.00">(C)CardDeck</text>
<polygon fill="none" stroke="black" points="381.5,-427.2 381.5,-453.2 466.5,-453.2 466.5,-427.2 381.5,-427.2"/>
</g>
<!-- CardDeck1697264569&#45;&gt;Card1697264569 -->
<g id="edge3" class="edge">
<title>CardDeck1697264569&#45;&gt;Card1697264569</title>
<path fill="none" stroke="black" d="M398.43,-422.16C372.91,-405.16 333.18,-378.69 302.48,-358.24"/>
<polygon fill="black" stroke="black" points="304.34,-355.27 294.08,-352.64 300.46,-361.1 304.34,-355.27"/>
<text text-anchor="middle" x="385.16" y="-391.6" font-family="Times New Roman,serif" font-size="14.00">deck</text>
<text text-anchor="middle" x="385.16" y="-374.8" font-family="Times New Roman,serif" font-size="14.00">[0..*]</text>
</g>
<!-- CardInvalidator1052887806 -->
<g id="node7" class="node">
<title>CardInvalidator1052887806</title>
<polygon fill="#ffffff" stroke="transparent" points="316.5,-673.8 167.5,-673.8 167.5,-527.8 316.5,-527.8 316.5,-673.8"/>
<text text-anchor="start" x="173" y="-656.2" font-family="Times New Roman,serif" font-size="14.00">(C)CardInvalidator</text>
<text text-anchor="start" x="173" y="-632.2" font-family="Times New Roman,serif" font-size="14.00">&#45; &#160;&#160;camp: Camp [0..1]</text>
<text text-anchor="start" x="172.73" y="-608.2" font-family="Times New Roman,serif" font-size="14.00">&#45; &#160;&#160;deck: CardDeck [0..1]</text>
<text text-anchor="start" x="173" y="-584.2" font-family="Times New Roman,serif" font-size="14.00">&#45; &#160;&#160;depleted: boolean [1]</text>
<text text-anchor="start" x="173" y="-560.2" font-family="Times New Roman,serif" font-size="14.00">&#45; &#160;&#160;lastDraw: Card [0..1]</text>
<text text-anchor="start" x="173" y="-536.2" font-family="Times New Roman,serif" font-size="14.00">+ draw(): GamePhase</text>
<polygon fill="black" stroke="black" points="168,-648.8 168,-648.8 317,-648.8 317,-648.8 168,-648.8"/>
<polygon fill="black" stroke="black" points="168,-552.8 168,-552.8 317,-552.8 317,-552.8 168,-552.8"/>
<polygon fill="none" stroke="black" points="167.5,-527.8 167.5,-673.8 316.5,-673.8 316.5,-527.8 167.5,-527.8"/>
</g>
<!-- CardInvalidator1052887806&#45;&gt;Camp1135820194 -->
<g id="edge4" class="edge">
<title>CardInvalidator1052887806&#45;&gt;Camp1135820194</title>
<path fill="none" stroke="black" d="M206.44,-527.58C201.28,-517.12 197.68,-509.8 197.68,-509.8 197.68,-509.8 190.25,-487.34 183.9,-468.13"/>
<polygon fill="black" stroke="black" points="187.18,-466.91 180.72,-458.51 180.54,-469.1 187.18,-466.91"/>
<text text-anchor="middle" x="213.16" y="-497.2" font-family="Times New Roman,serif" font-size="14.00">camp</text>
<text text-anchor="middle" x="213.16" y="-480.4" font-family="Times New Roman,serif" font-size="14.00">[0..1]</text>
</g>
<!-- CardInvalidator1052887806&#45;&gt;Card1697264569 -->
<g id="edge5" class="edge">
<title>CardInvalidator1052887806&#45;&gt;Card1697264569</title>
<path fill="none" stroke="black" d="M245.91,-527.56C248.57,-478.39 251.61,-422.2 251.61,-422.2 251.61,-422.2 253.83,-389.65 255.66,-362.94"/>
<polygon fill="black" stroke="black" points="259.17,-362.92 256.36,-352.7 252.18,-362.44 259.17,-362.92"/>
<text text-anchor="middle" x="312.69" y="-444.4" font-family="Times New Roman,serif" font-size="14.00">draw() &#45;&gt; invalidate()</text>
<text text-anchor="middle" x="312.69" y="-427.6" font-family="Times New Roman,serif" font-size="14.00">[0..1]</text>
</g>
<!-- CardInvalidator1052887806&#45;&gt;CardDeck1697264569 -->
<g id="edge6" class="edge">
<title>CardInvalidator1052887806&#45;&gt;CardDeck1697264569</title>
<path fill="none" stroke="black" d="M316.55,-534.83C344.93,-510.1 375.51,-483.45 396.77,-464.93"/>
<polygon fill="black" stroke="black" points="399.19,-467.46 404.43,-458.25 394.59,-462.18 399.19,-467.46"/>
<text text-anchor="middle" x="395.16" y="-497.2" font-family="Times New Roman,serif" font-size="14.00">deck</text>
<text text-anchor="middle" x="395.16" y="-480.4" font-family="Times New Roman,serif" font-size="14.00">[0..1]</text>
</g>
<!-- GameState1052887806 -->
<g id="node8" class="node">
<title>GameState1052887806</title>
<polygon fill="#ffffff" stroke="transparent" points="287,-779.4 197,-779.4 197,-743.4 287,-743.4 287,-779.4"/>
<text text-anchor="start" x="201.96" y="-756.8" font-family="Times New Roman,serif" font-size="14.00">(C)GameState</text>
<polygon fill="none" stroke="black" points="197,-748.4 197,-774.4 287,-774.4 287,-748.4 197,-748.4"/>
</g>
<!-- GameState1052887806&#45;&gt;CardInvalidator1052887806 -->
<g id="edge7" class="edge">
<title>GameState1052887806&#45;&gt;CardInvalidator1052887806</title>
<path fill="none" stroke="black" d="M242,-743.13C242,-728.57 242,-706.62 242,-684.32"/>
<polygon fill="black" stroke="black" points="245.5,-684.07 242,-674.07 238.5,-684.07 245.5,-684.07"/>
<text text-anchor="middle" x="272.33" y="-712.8" font-family="Times New Roman,serif" font-size="14.00">invalidator</text>
<text text-anchor="middle" x="272.33" y="-696" font-family="Times New Roman,serif" font-size="14.00">[0..1]</text>
</g>
</g>
</svg>
