<?xml version="1.0" encoding="UTF-8" standalone="no"?>
<!DOCTYPE svg PUBLIC "-//W3C//DTD SVG 1.1//EN"
 "http://www.w3.org/Graphics/SVG/1.1/DTD/svg11.dtd">
<!-- Generated by graphviz version 2.44.1 (20200629.0846)
 -->
<!-- Title: g Pages: 1 -->
<svg width="707pt" height="490pt"
 viewBox="0.00 0.00 706.50 489.60" xmlns="http://www.w3.org/2000/svg" xmlns:xlink="http://www.w3.org/1999/xlink">
<g id="graph0" class="graph" transform="scale(1 1) rotate(0) translate(4 485.6)">
<title>g</title>
<polygon fill="white" stroke="transparent" points="-4,4 -4,-485.6 702.5,-485.6 702.5,4 -4,4"/>
<!-- Card1697264569 -->
<g id="node1" class="node">
<title>Card1697264569</title>
<polygon fill="#dcfbd5" stroke="transparent" points="63,-79 0,-79 0,-43 63,-43 63,-79"/>
<text text-anchor="start" x="9.46" y="-56.4" font-family="Times New Roman,serif" font-size="14.00">(E)Card</text>
<polygon fill="none" stroke="black" points="0,-44 0,-78 63,-78 63,-44 0,-44"/>
</g>
<!-- CardDeck1697264569 -->
<g id="node2" class="node">
<title>CardDeck1697264569</title>
<polygon fill="#ffffff" stroke="transparent" points="570.5,-481.6 214.5,-481.6 214.5,-191.6 570.5,-191.6 570.5,-481.6"/>
<text text-anchor="start" x="219.5" y="-464" font-family="Times New Roman,serif" font-size="14.00">(C)CardDeck</text>
<text text-anchor="start" x="219.5" y="-440" font-family="Times New Roman,serif" font-size="14.00">&#45; &#160;&#160;config: CardDeckConfiguration [0..1]</text>
<text text-anchor="start" x="219.5" y="-416" font-family="Times New Roman,serif" font-size="14.00">&#45; &#160;&#160;deck: Deck&lt;Card&gt; [0..1]</text>
<text text-anchor="start" x="219.04" y="-392" font-family="Times New Roman,serif" font-size="14.00">+ &#160;&#160;DEFAULT_CONFIGURATION: CardDeckConfiguration</text>
<text text-anchor="start" x="219.5" y="-368" font-family="Times New Roman,serif" font-size="14.00">+ CardDeck()</text>
<text text-anchor="start" x="219.5" y="-344" font-family="Times New Roman,serif" font-size="14.00">+ CardDeck(config: CardDeckConfiguration)</text>
<text text-anchor="start" x="219.5" y="-320" font-family="Times New Roman,serif" font-size="14.00">+ draw(): Card</text>
<text text-anchor="start" x="219.5" y="-296" font-family="Times New Roman,serif" font-size="14.00">+ isDepleted(): boolean</text>
<text text-anchor="start" x="219.5" y="-272" font-family="Times New Roman,serif" font-size="14.00">+ isValid(): boolean</text>
<text text-anchor="start" x="219.5" y="-248" font-family="Times New Roman,serif" font-size="14.00">+ iterator(): Iterator&lt;Card&gt;</text>
<text text-anchor="start" x="219.5" y="-224" font-family="Times New Roman,serif" font-size="14.00">+ lay(card: Card)</text>
<text text-anchor="start" x="219.5" y="-200" font-family="Times New Roman,serif" font-size="14.00">+ reset()</text>
<polygon fill="black" stroke="black" points="214.5,-456.6 214.5,-456.6 570.5,-456.6 570.5,-456.6 214.5,-456.6"/>
<polygon fill="black" stroke="black" points="214.5,-384.6 214.5,-384.6 570.5,-384.6 570.5,-384.6 214.5,-384.6"/>
<polygon fill="none" stroke="black" points="214.5,-191.6 214.5,-481.6 570.5,-481.6 570.5,-191.6 214.5,-191.6"/>
</g>
<!-- CardDeck1697264569&#45;&gt;Card1697264569 -->
<g id="edge1" class="edge">
<title>CardDeck1697264569&#45;&gt;Card1697264569</title>
<path fill="none" stroke="black" d="M214.16,-216.93C140.28,-167.77 71.5,-122 71.5,-122 71.5,-122 59.53,-104.04 48.68,-87.77"/>
<polygon fill="black" stroke="black" points="51.31,-85.41 42.86,-79.03 45.49,-89.3 51.31,-85.41"/>
<text text-anchor="middle" x="156.66" y="-161" font-family="Times New Roman,serif" font-size="14.00">deck</text>
<text text-anchor="middle" x="156.66" y="-144.2" font-family="Times New Roman,serif" font-size="14.00">[0..1]</text>
</g>
<!-- CardDeckConfiguration1697264569 -->
<g id="node3" class="node">
<title>CardDeckConfiguration1697264569</title>
<polygon fill="#ffffff" stroke="transparent" points="538,-122 81,-122 81,0 538,0 538,-122"/>
<text text-anchor="start" x="86.5" y="-104.4" font-family="Times New Roman,serif" font-size="14.00">(C)CardDeckConfiguration</text>
<text text-anchor="start" x="86.5" y="-80.4" font-family="Times New Roman,serif" font-size="14.00">&#45; &#160;&#160;cardOccurrences: Map&lt;Card, NonNegativeInteger&gt; [0..*]</text>
<text text-anchor="start" x="86.31" y="-56.4" font-family="Times New Roman,serif" font-size="14.00">+ CardDeckConfiguration(cardOccurrences: Map&lt;Card, NonNegativeInteger&gt;)</text>
<text text-anchor="start" x="86.5" y="-32.4" font-family="Times New Roman,serif" font-size="14.00">+ cardOccurrences(): Map&lt;Card, NonNegativeInteger&gt;</text>
<text text-anchor="start" x="86.5" y="-8.4" font-family="Times New Roman,serif" font-size="14.00">+ withoutZeroOccurrenceEntries(): CardDeckConfiguration</text>
<polygon fill="black" stroke="black" points="81.5,-97 81.5,-97 538.5,-97 538.5,-97 81.5,-97"/>
<polygon fill="black" stroke="black" points="81.5,-73 81.5,-73 538.5,-73 538.5,-73 81.5,-73"/>
<polygon fill="none" stroke="black" points="81,0 81,-122 538,-122 538,0 81,0"/>
</g>
<!-- CardDeck1697264569&#45;&gt;CardDeckConfiguration1697264569 -->
<g id="edge2" class="edge">
<title>CardDeck1697264569&#45;&gt;CardDeckConfiguration1697264569</title>
<path fill="none" stroke="black" d="M348.81,-191.59C342.52,-170.86 336.3,-150.34 330.72,-131.96"/>
<polygon fill="black" stroke="black" points="334.04,-130.83 327.78,-122.27 327.34,-132.86 334.04,-130.83"/>
<text text-anchor="middle" x="359.38" y="-161" font-family="Times New Roman,serif" font-size="14.00">config</text>
<text text-anchor="middle" x="359.38" y="-144.2" font-family="Times New Roman,serif" font-size="14.00">[0..1]</text>
</g>
<!-- Deck1697264569 -->
<g id="node4" class="node">
<title>Deck1697264569</title>
<polygon fill="#f1e5fd" stroke="transparent" points="698.5,-122 556.5,-122 556.5,0 698.5,0 698.5,-122"/>
<text text-anchor="start" x="561.5" y="-104.4" font-family="Times New Roman,serif" font-size="14.00">(I)Deck&lt;T&gt;</text>
<text text-anchor="start" x="561.5" y="-80.4" font-family="Times New Roman,serif" font-size="14.00">+ draw(): T</text>
<text text-anchor="start" x="561.35" y="-56.4" font-family="Times New Roman,serif" font-size="14.00">+ isDepleted(): boolean</text>
<text text-anchor="start" x="561.5" y="-32.4" font-family="Times New Roman,serif" font-size="14.00">+ lay(element: T)</text>
<text text-anchor="start" x="561.5" y="-8.4" font-family="Times New Roman,serif" font-size="14.00">+ reset()</text>
<polygon fill="black" stroke="black" points="556.5,-97 556.5,-97 698.5,-97 698.5,-97 556.5,-97"/>
<polygon fill="none" stroke="black" points="556.5,0 556.5,-122 698.5,-122 698.5,0 556.5,0"/>
</g>
<!-- CardDeck1697264569&#45;&gt;Deck1697264569 -->
<g id="edge3" class="edge">
<title>CardDeck1697264569&#45;&gt;Deck1697264569</title>
<path fill="none" stroke="black" d="M493.27,-191.39C513.75,-162.07 529.18,-140 529.18,-140 529.18,-140 537.09,-133.73 548.42,-124.74"/>
<polygon fill="black" stroke="black" points="550.65,-127.44 556.31,-118.48 546.3,-121.95 550.65,-127.44"/>
<text text-anchor="middle" x="543.66" y="-161" font-family="Times New Roman,serif" font-size="14.00">deck</text>
<text text-anchor="middle" x="543.66" y="-144.2" font-family="Times New Roman,serif" font-size="14.00">[0..1]</text>
</g>
<!-- Deck1697264569&#45;&gt;CardDeck1697264569 -->
<g id="edge4" class="edge">
<title>Deck1697264569&#45;&gt;CardDeck1697264569</title>
<path fill="none" stroke="black" d="M585.68,-130.64C571.65,-153.66 559.5,-173.6 559.5,-173.6 559.5,-173.6 552.34,-180.54 540.99,-191.56"/>
<polygon fill="none" stroke="black" points="588.7,-132.41 590.91,-122.05 582.72,-128.77 588.7,-132.41"/>
</g>
</g>
</svg>
