<?xml version="1.0" encoding="UTF-8" standalone="no"?>
<!DOCTYPE svg PUBLIC "-//W3C//DTD SVG 1.1//EN"
 "http://www.w3.org/Graphics/SVG/1.1/DTD/svg11.dtd">
<!-- Generated by graphviz version 2.44.1 (20200629.0846)
 -->
<!-- Title: g Pages: 1 -->
<svg width="468pt" height="868pt"
 viewBox="0.00 0.00 468.00 868.40" xmlns="http://www.w3.org/2000/svg" xmlns:xlink="http://www.w3.org/1999/xlink">
<g id="graph0" class="graph" transform="scale(1 1) rotate(0) translate(4 864.4)">
<title>g</title>
<polygon fill="white" stroke="transparent" points="-4,4 -4,-864.4 464,-864.4 464,4 -4,4"/>
<!-- Camp1135820194 -->
<g id="node1" class="node">
<title>Camp1135820194</title>
<polygon fill="#ffffff" stroke="transparent" points="164,-539.2 102,-539.2 102,-503.2 164,-503.2 164,-539.2"/>
<text text-anchor="start" x="106.95" y="-516.6" font-family="Times New Roman,serif" font-size="14.00">(C)Camp</text>
<polygon fill="none" stroke="black" points="102,-508.2 102,-534.2 164,-534.2 164,-508.2 102,-508.2"/>
</g>
<!-- Card1697264569 -->
<g id="node2" class="node">
<title>Card1697264569</title>
<polygon fill="#dcfbd5" stroke="transparent" points="334.5,-433.6 137.5,-433.6 137.5,-191.6 334.5,-191.6 334.5,-433.6"/>
<text text-anchor="start" x="143" y="-416" font-family="Times New Roman,serif" font-size="14.00">(E)Card</text>
<text text-anchor="start" x="143" y="-392" font-family="Times New Roman,serif" font-size="14.00">+ &#160;&#160;METAL: Card [1]</text>
<text text-anchor="start" x="143" y="-368" font-family="Times New Roman,serif" font-size="14.00">+ &#160;&#160;PLASTIC: Card [1]</text>
<text text-anchor="start" x="143" y="-344" font-family="Times New Roman,serif" font-size="14.00">+ &#160;&#160;SNAKE: Card [1]</text>
<text text-anchor="start" x="143" y="-320" font-family="Times New Roman,serif" font-size="14.00">+ &#160;&#160;SPIDER: Card [1]</text>
<text text-anchor="start" x="142.55" y="-296" font-family="Times New Roman,serif" font-size="14.00">+ &#160;&#160;THUNDERSTORM: Card [1]</text>
<text text-anchor="start" x="143" y="-272" font-family="Times New Roman,serif" font-size="14.00">+ &#160;&#160;TIGER: Card [1]</text>
<text text-anchor="start" x="143" y="-248" font-family="Times New Roman,serif" font-size="14.00">+ &#160;&#160;WOOD: Card [1]</text>
<text text-anchor="start" x="143" y="-224" font-family="Times New Roman,serif" font-size="14.00">&#45; &#160;&#160;category: CardCategory [0..1]</text>
<text text-anchor="start" x="143" y="-200" font-family="Times New Roman,serif" font-size="14.00">&#45; &#160;&#160;resource: Resource [0..1]</text>
<polygon fill="black" stroke="black" points="138,-408.6 138,-408.6 335,-408.6 335,-408.6 138,-408.6"/>
<polygon fill="none" stroke="black" points="137.5,-191.6 137.5,-433.6 334.5,-433.6 334.5,-191.6 137.5,-191.6"/>
</g>
<!-- CardCategory1697264569 -->
<g id="node3" class="node">
<title>CardCategory1697264569</title>
<polygon fill="#dcfbd5" stroke="transparent" points="234,-110 0,-110 0,-12 234,-12 234,-110"/>
<text text-anchor="start" x="5" y="-92.4" font-family="Times New Roman,serif" font-size="14.00">(E)CardCategory</text>
<text text-anchor="start" x="5" y="-68.4" font-family="Times New Roman,serif" font-size="14.00">+ &#160;&#160;ANIMAL: CardCategory [1]</text>
<text text-anchor="start" x="4.77" y="-44.4" font-family="Times New Roman,serif" font-size="14.00">+ &#160;&#160;CATASTROPHE: CardCategory [1]</text>
<text text-anchor="start" x="5" y="-20.4" font-family="Times New Roman,serif" font-size="14.00">+ &#160;&#160;RESOURCE: CardCategory [1]</text>
<polygon fill="black" stroke="black" points="0,-85 0,-85 234,-85 234,-85 0,-85"/>
<polygon fill="none" stroke="black" points="0,-12 0,-110 234,-110 234,-12 0,-12"/>
</g>
<!-- Card1697264569&#45;&gt;CardCategory1697264569 -->
<g id="edge1" class="edge">
<title>Card1697264569&#45;&gt;CardCategory1697264569</title>
<path fill="none" stroke="black" d="M178.77,-191.55C166.78,-166.42 154.68,-141.03 144.4,-119.47"/>
<polygon fill="black" stroke="black" points="147.43,-117.69 139.96,-110.17 141.11,-120.7 147.43,-117.69"/>
<text text-anchor="middle" x="194.1" y="-161" font-family="Times New Roman,serif" font-size="14.00">category</text>
<text text-anchor="middle" x="194.1" y="-144.2" font-family="Times New Roman,serif" font-size="14.00">[0..1]</text>
</g>
<!-- Resource1135820194 -->
<g id="node7" class="node">
<title>Resource1135820194</title>
<polygon fill="#dcfbd5" stroke="transparent" points="460,-122 252,-122 252,0 460,0 460,-122"/>
<text text-anchor="start" x="257" y="-104.4" font-family="Times New Roman,serif" font-size="14.00">(E)Resource</text>
<text text-anchor="start" x="257" y="-80.4" font-family="Times New Roman,serif" font-size="14.00">+ &#160;&#160;METAL: Resource [1]</text>
<text text-anchor="start" x="256.99" y="-56.4" font-family="Times New Roman,serif" font-size="14.00">+ &#160;&#160;NO_RESOURCE: Resource [1]</text>
<text text-anchor="start" x="257" y="-32.4" font-family="Times New Roman,serif" font-size="14.00">+ &#160;&#160;PLASTIC: Resource [1]</text>
<text text-anchor="start" x="257" y="-8.4" font-family="Times New Roman,serif" font-size="14.00">+ &#160;&#160;WOOD: Resource [1]</text>
<polygon fill="black" stroke="black" points="252,-97 252,-97 460,-97 460,-97 252,-97"/>
<polygon fill="none" stroke="black" points="252,0 252,-122 460,-122 460,0 252,0"/>
</g>
<!-- Card1697264569&#45;&gt;Resource1135820194 -->
<g id="edge2" class="edge">
<title>Card1697264569&#45;&gt;Resource1135820194</title>
<path fill="none" stroke="black" d="M293.72,-191.55C303.67,-170.84 313.72,-149.95 322.74,-131.17"/>
<polygon fill="black" stroke="black" points="325.91,-132.66 327.09,-122.13 319.6,-129.63 325.91,-132.66"/>
<text text-anchor="middle" x="340.7" y="-161" font-family="Times New Roman,serif" font-size="14.00">resource</text>
<text text-anchor="middle" x="340.7" y="-144.2" font-family="Times New Roman,serif" font-size="14.00">[0..1]</text>
</g>
<!-- CardDeck1697264569 -->
<g id="node4" class="node">
<title>CardDeck1697264569</title>
<polygon fill="#ffffff" stroke="transparent" points="353.5,-539.2 268.5,-539.2 268.5,-503.2 353.5,-503.2 353.5,-539.2"/>
<text text-anchor="start" x="273.8" y="-516.6" font-family="Times New Roman,serif" font-size="14.00">(C)CardDeck</text>
<polygon fill="none" stroke="black" points="268.5,-508.2 268.5,-534.2 353.5,-534.2 353.5,-508.2 268.5,-508.2"/>
</g>
<!-- CardDeck1697264569&#45;&gt;Card1697264569 -->
<g id="edge3" class="edge">
<title>CardDeck1697264569&#45;&gt;Card1697264569</title>
<path fill="none" stroke="black" d="M304.73,-502.94C299.58,-488.73 291.74,-467.14 283.18,-443.56"/>
<polygon fill="black" stroke="black" points="286.44,-442.29 279.74,-434.08 279.86,-444.68 286.44,-442.29"/>
<text text-anchor="middle" x="311.16" y="-472.6" font-family="Times New Roman,serif" font-size="14.00">deck</text>
<text text-anchor="middle" x="311.16" y="-455.8" font-family="Times New Roman,serif" font-size="14.00">[0..*]</text>
</g>
<!-- CardInvalidator1052887806 -->
<g id="node5" class="node">
<title>CardInvalidator1052887806</title>
<polygon fill="#ffffff" stroke="transparent" points="274.5,-754.8 125.5,-754.8 125.5,-608.8 274.5,-608.8 274.5,-754.8"/>
<text text-anchor="start" x="131" y="-737.2" font-family="Times New Roman,serif" font-size="14.00">(C)CardInvalidator</text>
<text text-anchor="start" x="131" y="-713.2" font-family="Times New Roman,serif" font-size="14.00">&#45; &#160;&#160;camp: Camp [0..1]</text>
<text text-anchor="start" x="130.73" y="-689.2" font-family="Times New Roman,serif" font-size="14.00">&#45; &#160;&#160;deck: CardDeck [0..1]</text>
<text text-anchor="start" x="131" y="-665.2" font-family="Times New Roman,serif" font-size="14.00">&#45; &#160;&#160;depleted: boolean [1]</text>
<text text-anchor="start" x="131" y="-641.2" font-family="Times New Roman,serif" font-size="14.00">&#45; &#160;&#160;lastDraw: Card [0..1]</text>
<text text-anchor="start" x="131" y="-617.2" font-family="Times New Roman,serif" font-size="14.00">+ draw(): GamePhase</text>
<polygon fill="black" stroke="black" points="126,-729.8 126,-729.8 275,-729.8 275,-729.8 126,-729.8"/>
<polygon fill="black" stroke="black" points="126,-633.8 126,-633.8 275,-633.8 275,-633.8 126,-633.8"/>
<polygon fill="none" stroke="black" points="125.5,-608.8 125.5,-754.8 274.5,-754.8 274.5,-608.8 125.5,-608.8"/>
</g>
<!-- CardInvalidator1052887806&#45;&gt;Camp1135820194 -->
<g id="edge4" class="edge">
<title>CardInvalidator1052887806&#45;&gt;Camp1135820194</title>
<path fill="none" stroke="black" d="M164.44,-608.58C159.28,-598.12 155.68,-590.8 155.68,-590.8 155.68,-590.8 148.25,-568.34 141.9,-549.13"/>
<polygon fill="black" stroke="black" points="145.18,-547.91 138.72,-539.51 138.54,-550.1 145.18,-547.91"/>
<text text-anchor="middle" x="171.16" y="-578.2" font-family="Times New Roman,serif" font-size="14.00">camp</text>
<text text-anchor="middle" x="171.16" y="-561.4" font-family="Times New Roman,serif" font-size="14.00">[0..1]</text>
</g>
<!-- CardInvalidator1052887806&#45;&gt;Card1697264569 -->
<g id="edge5" class="edge">
<title>CardInvalidator1052887806&#45;&gt;Card1697264569</title>
<path fill="none" stroke="black" d="M203.45,-608.56C205.79,-559.39 208.47,-503.2 208.47,-503.2 208.47,-503.2 212.31,-476.78 217.12,-443.66"/>
<polygon fill="black" stroke="black" points="220.59,-444.08 218.57,-433.68 213.66,-443.07 220.59,-444.08"/>
<text text-anchor="middle" x="234.26" y="-525.4" font-family="Times New Roman,serif" font-size="14.00">lastDraw</text>
<text text-anchor="middle" x="234.26" y="-508.6" font-family="Times New Roman,serif" font-size="14.00">[0..1]</text>
</g>
<!-- CardInvalidator1052887806&#45;&gt;CardDeck1697264569 -->
<g id="edge6" class="edge">
<title>CardInvalidator1052887806&#45;&gt;CardDeck1697264569</title>
<path fill="none" stroke="black" d="M250.63,-608.46C265.78,-586.82 281.41,-564.48 292.98,-547.95"/>
<polygon fill="black" stroke="black" points="296.09,-549.61 298.95,-539.41 290.35,-545.6 296.09,-549.61"/>
<text text-anchor="middle" x="299.16" y="-578.2" font-family="Times New Roman,serif" font-size="14.00">deck</text>
<text text-anchor="middle" x="299.16" y="-561.4" font-family="Times New Roman,serif" font-size="14.00">[0..1]</text>
</g>
<!-- GameState1052887806 -->
<g id="node6" class="node">
<title>GameState1052887806</title>
<polygon fill="#ffffff" stroke="transparent" points="245,-860.4 155,-860.4 155,-824.4 245,-824.4 245,-860.4"/>
<text text-anchor="start" x="159.96" y="-837.8" font-family="Times New Roman,serif" font-size="14.00">(C)GameState</text>
<polygon fill="none" stroke="black" points="155,-829.4 155,-855.4 245,-855.4 245,-829.4 155,-829.4"/>
</g>
<!-- GameState1052887806&#45;&gt;CardInvalidator1052887806 -->
<g id="edge7" class="edge">
<title>GameState1052887806&#45;&gt;CardInvalidator1052887806</title>
<path fill="none" stroke="black" d="M200,-824.13C200,-809.57 200,-787.62 200,-765.32"/>
<polygon fill="black" stroke="black" points="203.5,-765.07 200,-755.07 196.5,-765.07 203.5,-765.07"/>
<text text-anchor="middle" x="230.33" y="-793.8" font-family="Times New Roman,serif" font-size="14.00">invalidator</text>
<text text-anchor="middle" x="230.33" y="-777" font-family="Times New Roman,serif" font-size="14.00">[0..1]</text>
</g>
</g>
</svg>
