<?xml version="1.0" encoding="UTF-8" standalone="no"?>
<!DOCTYPE svg PUBLIC "-//W3C//DTD SVG 1.1//EN"
 "http://www.w3.org/Graphics/SVG/1.1/DTD/svg11.dtd">
<!-- Generated by graphviz version 2.44.1 (20200629.0846)
 -->
<!-- Title: g Pages: 1 -->
<svg width="534pt" height="457pt"
 viewBox="0.00 0.00 534.00 456.60" xmlns="http://www.w3.org/2000/svg" xmlns:xlink="http://www.w3.org/1999/xlink">
<g id="graph0" class="graph" transform="scale(1 1) rotate(0) translate(4 452.6)">
<title>g</title>
<polygon fill="white" stroke="transparent" points="-4,4 -4,-452.6 530,-452.6 530,4 -4,4"/>
<!-- Iterator697264569 -->
<g id="node1" class="node">
<title>Iterator697264569</title>
<polygon fill="#f1e5fd" stroke="transparent" points="154.5,-448.6 10.5,-448.6 10.5,-398.6 154.5,-398.6 154.5,-448.6"/>
<text text-anchor="start" x="15.5" y="-431" font-family="Times New Roman,serif" font-size="14.00">(I)Iterator&lt;T&gt;</text>
<text text-anchor="start" x="15.47" y="-407" font-family="Times New Roman,serif" font-size="14.00">+ iterator(): Iterator&lt;T&gt;</text>
<polygon fill="black" stroke="black" points="10.5,-423.6 10.5,-423.6 154.5,-423.6 154.5,-423.6 10.5,-423.6"/>
<polygon fill="none" stroke="black" points="10.5,-398.6 10.5,-448.6 154.5,-448.6 154.5,-398.6 10.5,-398.6"/>
</g>
<!-- Deck1697264569 -->
<g id="node3" class="node">
<title>Deck1697264569</title>
<polygon fill="#f1e5fd" stroke="transparent" points="222.5,-361.6 80.5,-361.6 80.5,-239.6 222.5,-239.6 222.5,-361.6"/>
<text text-anchor="start" x="85.5" y="-344" font-family="Times New Roman,serif" font-size="14.00">(I)Deck&lt;T&gt;</text>
<text text-anchor="start" x="85.5" y="-320" font-family="Times New Roman,serif" font-size="14.00">+ draw(): T</text>
<text text-anchor="start" x="85.35" y="-296" font-family="Times New Roman,serif" font-size="14.00">+ isDepleted(): boolean</text>
<text text-anchor="start" x="85.5" y="-272" font-family="Times New Roman,serif" font-size="14.00">+ lay(element: T)</text>
<text text-anchor="start" x="85.5" y="-248" font-family="Times New Roman,serif" font-size="14.00">+ reset()</text>
<polygon fill="black" stroke="black" points="80.5,-336.6 80.5,-336.6 222.5,-336.6 222.5,-336.6 80.5,-336.6"/>
<polygon fill="none" stroke="black" points="80.5,-239.6 80.5,-361.6 222.5,-361.6 222.5,-239.6 80.5,-239.6"/>
</g>
<!-- Iterator697264569&#45;&gt;Deck1697264569 -->
<g id="edge4" class="edge">
<title>Iterator697264569&#45;&gt;Deck1697264569</title>
<path fill="none" stroke="black" d="M101.38,-389.48C106.29,-380.88 111.73,-371.35 117.16,-361.82"/>
<polygon fill="none" stroke="black" points="98.21,-387.98 96.3,-398.4 104.29,-391.45 98.21,-387.98"/>
</g>
<!-- Serializable697264569 -->
<g id="node2" class="node">
<title>Serializable697264569</title>
<polygon fill="#f1e5fd" stroke="transparent" points="268.5,-441.6 172.5,-441.6 172.5,-405.6 268.5,-405.6 268.5,-441.6"/>
<text text-anchor="start" x="180.47" y="-419" font-family="Times New Roman,serif" font-size="14.00">(I)Serializable</text>
<polygon fill="none" stroke="black" points="172.5,-407.6 172.5,-439.6 268.5,-439.6 268.5,-407.6 172.5,-407.6"/>
</g>
<!-- Serializable697264569&#45;&gt;Deck1697264569 -->
<g id="edge5" class="edge">
<title>Serializable697264569&#45;&gt;Deck1697264569</title>
<path fill="none" stroke="black" d="M205.72,-396.68C199.85,-386.38 192.82,-374.07 185.81,-361.77"/>
<polygon fill="none" stroke="black" points="202.77,-398.57 210.76,-405.52 208.85,-395.1 202.77,-398.57"/>
</g>
<!-- CardDeck1697264569 -->
<g id="node4" class="node">
<title>CardDeck1697264569</title>
<polygon fill="#ffffff" stroke="transparent" points="237,-170 0,-170 0,0 237,0 237,-170"/>
<text text-anchor="start" x="5.5" y="-152.4" font-family="Times New Roman,serif" font-size="14.00">(C)CardDeck</text>
<text text-anchor="start" x="5.28" y="-128.4" font-family="Times New Roman,serif" font-size="14.00">&#45; &#160;&#160;config: CardDeckConfiguration [0..1]</text>
<text text-anchor="start" x="5.5" y="-104.4" font-family="Times New Roman,serif" font-size="14.00">&#45; &#160;&#160;deck: Deck&lt;Card&gt; [0..1]</text>
<text text-anchor="start" x="5.5" y="-80.4" font-family="Times New Roman,serif" font-size="14.00">+ draw(): Card</text>
<text text-anchor="start" x="5.5" y="-56.4" font-family="Times New Roman,serif" font-size="14.00">+ iterator(): Iterator&lt;Card&gt;</text>
<text text-anchor="start" x="5.5" y="-32.4" font-family="Times New Roman,serif" font-size="14.00">+ lay(card: Card)</text>
<text text-anchor="start" x="5.5" y="-8.4" font-family="Times New Roman,serif" font-size="14.00">+ reset()</text>
<polygon fill="black" stroke="black" points="0.5,-145 0.5,-145 237.5,-145 237.5,-145 0.5,-145"/>
<polygon fill="black" stroke="black" points="0.5,-97 0.5,-97 237.5,-97 237.5,-97 0.5,-97"/>
<polygon fill="none" stroke="black" points="0,0 0,-170 237,-170 237,0 0,0"/>
</g>
<!-- Deck1697264569&#45;&gt;CardDeck1697264569 -->
<g id="edge2" class="edge">
<title>Deck1697264569&#45;&gt;CardDeck1697264569</title>
<path fill="none" stroke="black" d="M134.43,-229.54C133.24,-224.65 132.5,-221.6 132.5,-221.6 132.5,-221.6 130.05,-197.91 127.21,-170.34"/>
<polygon fill="none" stroke="black" points="131.04,-230.41 136.81,-239.3 137.85,-228.76 131.04,-230.41"/>
</g>
<!-- RefabDeck1697264569 -->
<g id="node5" class="node">
<title>RefabDeck1697264569</title>
<polygon fill="#ffffff" stroke="transparent" points="526,-170 255,-170 255,0 526,0 526,-170"/>
<text text-anchor="start" x="260.16" y="-152.4" font-family="Times New Roman,serif" font-size="14.00">(C)RefabDeck&lt;T extends Refabricatable&lt;T&gt;&gt;</text>
<text text-anchor="start" x="260.5" y="-128.4" font-family="Times New Roman,serif" font-size="14.00">&#45; &#160;&#160;active: Deque&lt;T&gt; [0..*]</text>
<text text-anchor="start" x="260.5" y="-104.4" font-family="Times New Roman,serif" font-size="14.00">&#45; &#160;&#160;initial: Deque&lt;T&gt; [0..*]</text>
<text text-anchor="start" x="260.5" y="-80.4" font-family="Times New Roman,serif" font-size="14.00">+ draw(): T</text>
<text text-anchor="start" x="260.5" y="-56.4" font-family="Times New Roman,serif" font-size="14.00">+ iterator(): Iterator&lt;T&gt;</text>
<text text-anchor="start" x="260.5" y="-32.4" font-family="Times New Roman,serif" font-size="14.00">+ lay(element: T)</text>
<text text-anchor="start" x="260.5" y="-8.4" font-family="Times New Roman,serif" font-size="14.00">+ reset()</text>
<polygon fill="black" stroke="black" points="255.5,-145 255.5,-145 526.5,-145 526.5,-145 255.5,-145"/>
<polygon fill="black" stroke="black" points="255.5,-97 255.5,-97 526.5,-97 526.5,-97 255.5,-97"/>
<polygon fill="none" stroke="black" points="255,0 255,-170 526,-170 526,0 255,0"/>
</g>
<!-- Deck1697264569&#45;&gt;RefabDeck1697264569 -->
<g id="edge3" class="edge">
<title>Deck1697264569&#45;&gt;RefabDeck1697264569</title>
<path fill="none" stroke="black" d="M226.42,-232.64C248.52,-212.89 273,-191.01 296.16,-170.32"/>
<polygon fill="none" stroke="black" points="223.83,-230.26 218.71,-239.53 228.5,-235.48 223.83,-230.26"/>
</g>
<!-- CardDeck1697264569&#45;&gt;Deck1697264569 -->
<g id="edge1" class="edge">
<title>CardDeck1697264569&#45;&gt;Deck1697264569</title>
<path fill="none" stroke="black" d="M131.53,-170.32C134.56,-189.93 137.75,-210.6 140.67,-229.52"/>
<polygon fill="black" stroke="black" points="137.23,-230.18 142.22,-239.53 144.15,-229.11 137.23,-230.18"/>
<text text-anchor="middle" x="154.66" y="-209" font-family="Times New Roman,serif" font-size="14.00">deck</text>
<text text-anchor="middle" x="154.66" y="-192.2" font-family="Times New Roman,serif" font-size="14.00">[0..1]</text>
</g>
</g>
</svg>
