<?xml version="1.0" encoding="UTF-8" standalone="no"?>
<!DOCTYPE svg PUBLIC "-//W3C//DTD SVG 1.1//EN"
 "http://www.w3.org/Graphics/SVG/1.1/DTD/svg11.dtd">
<!-- Generated by graphviz version 2.44.1 (20200629.0846)
 -->
<!-- Title: g Pages: 1 -->
<svg width="534pt" height="457pt"
 viewBox="0.00 0.00 534.00 456.60" xmlns="http://www.w3.org/2000/svg" xmlns:xlink="http://www.w3.org/1999/xlink">
<g id="graph0" class="graph" transform="scale(1 1) rotate(0) translate(4 452.6)">
<title>g</title>
<polygon fill="white" stroke="transparent" points="-4,4 -4,-452.6 530,-452.6 530,4 -4,4"/>
<!-- Iterator697264569 -->
<g id="node1" class="node">
<title>Iterator697264569</title>
<polygon fill="#f1e5fd" stroke="transparent" points="434.5,-448.6 290.5,-448.6 290.5,-398.6 434.5,-398.6 434.5,-448.6"/>
<text text-anchor="start" x="295.5" y="-431" font-family="Times New Roman,serif" font-size="14.00">(I)Iterator&lt;T&gt;</text>
<text text-anchor="start" x="295.47" y="-407" font-family="Times New Roman,serif" font-size="14.00">+ iterator(): Iterator&lt;T&gt;</text>
<polygon fill="black" stroke="black" points="290.5,-423.6 290.5,-423.6 434.5,-423.6 434.5,-423.6 290.5,-423.6"/>
<polygon fill="none" stroke="black" points="290.5,-398.6 290.5,-448.6 434.5,-448.6 434.5,-398.6 290.5,-398.6"/>
</g>
<!-- Deck1697264569 -->
<g id="node3" class="node">
<title>Deck1697264569</title>
<polygon fill="#f1e5fd" stroke="transparent" points="433.5,-361.6 291.5,-361.6 291.5,-239.6 433.5,-239.6 433.5,-361.6"/>
<text text-anchor="start" x="296.5" y="-344" font-family="Times New Roman,serif" font-size="14.00">(I)Deck&lt;T&gt;</text>
<text text-anchor="start" x="296.5" y="-320" font-family="Times New Roman,serif" font-size="14.00">+ draw(): T</text>
<text text-anchor="start" x="296.35" y="-296" font-family="Times New Roman,serif" font-size="14.00">+ isDepleted(): boolean</text>
<text text-anchor="start" x="296.5" y="-272" font-family="Times New Roman,serif" font-size="14.00">+ lay(element: T)</text>
<text text-anchor="start" x="296.5" y="-248" font-family="Times New Roman,serif" font-size="14.00">+ reset()</text>
<polygon fill="black" stroke="black" points="291.5,-336.6 291.5,-336.6 433.5,-336.6 433.5,-336.6 291.5,-336.6"/>
<polygon fill="none" stroke="black" points="291.5,-239.6 291.5,-361.6 433.5,-361.6 433.5,-239.6 291.5,-239.6"/>
</g>
<!-- Iterator697264569&#45;&gt;Deck1697264569 -->
<g id="edge6" class="edge">
<title>Iterator697264569&#45;&gt;Deck1697264569</title>
<path fill="none" stroke="black" d="M362.5,-388.38C362.5,-380.07 362.5,-370.94 362.5,-361.82"/>
<polygon fill="none" stroke="black" points="359,-388.4 362.5,-398.4 366,-388.4 359,-388.4"/>
</g>
<!-- Serializable697264569 -->
<g id="node2" class="node">
<title>Serializable697264569</title>
<polygon fill="#f1e5fd" stroke="transparent" points="231.5,-318.6 135.5,-318.6 135.5,-282.6 231.5,-282.6 231.5,-318.6"/>
<text text-anchor="start" x="143.47" y="-296" font-family="Times New Roman,serif" font-size="14.00">(I)Serializable</text>
<polygon fill="none" stroke="black" points="135.5,-284.6 135.5,-316.6 231.5,-316.6 231.5,-284.6 135.5,-284.6"/>
</g>
<!-- CardDeck1697264569 -->
<g id="node4" class="node">
<title>CardDeck1697264569</title>
<polygon fill="#ffffff" stroke="transparent" points="526,-170 289,-170 289,0 526,0 526,-170"/>
<text text-anchor="start" x="294.5" y="-152.4" font-family="Times New Roman,serif" font-size="14.00">(C)CardDeck</text>
<text text-anchor="start" x="294.28" y="-128.4" font-family="Times New Roman,serif" font-size="14.00">&#45; &#160;&#160;config: CardDeckConfiguration [0..1]</text>
<text text-anchor="start" x="294.5" y="-104.4" font-family="Times New Roman,serif" font-size="14.00">&#45; &#160;&#160;deck: Deck&lt;Card&gt; [0..1]</text>
<text text-anchor="start" x="294.5" y="-80.4" font-family="Times New Roman,serif" font-size="14.00">+ draw(): Card</text>
<text text-anchor="start" x="294.5" y="-56.4" font-family="Times New Roman,serif" font-size="14.00">+ iterator(): Iterator&lt;Card&gt;</text>
<text text-anchor="start" x="294.5" y="-32.4" font-family="Times New Roman,serif" font-size="14.00">+ lay(card: Card)</text>
<text text-anchor="start" x="294.5" y="-8.4" font-family="Times New Roman,serif" font-size="14.00">+ reset()</text>
<polygon fill="black" stroke="black" points="289.5,-145 289.5,-145 526.5,-145 526.5,-145 289.5,-145"/>
<polygon fill="black" stroke="black" points="289.5,-97 289.5,-97 526.5,-97 526.5,-97 289.5,-97"/>
<polygon fill="none" stroke="black" points="289,0 289,-170 526,-170 526,0 289,0"/>
</g>
<!-- Serializable697264569&#45;&gt;CardDeck1697264569 -->
<g id="edge2" class="edge">
<title>Serializable697264569&#45;&gt;CardDeck1697264569</title>
<path fill="none" stroke="black" d="M208.89,-275.39C235.75,-249.77 279.67,-207.89 319.39,-170.02"/>
<polygon fill="none" stroke="black" points="206.27,-273.05 201.45,-282.48 211.1,-278.11 206.27,-273.05"/>
</g>
<!-- RefabDeck1697264569 -->
<g id="node5" class="node">
<title>RefabDeck1697264569</title>
<polygon fill="#ffffff" stroke="transparent" points="271,-170 0,-170 0,0 271,0 271,-170"/>
<text text-anchor="start" x="5.16" y="-152.4" font-family="Times New Roman,serif" font-size="14.00">(C)RefabDeck&lt;T extends Refabricatable&lt;T&gt;&gt;</text>
<text text-anchor="start" x="5.5" y="-128.4" font-family="Times New Roman,serif" font-size="14.00">&#45; &#160;&#160;active: Deque&lt;T&gt; [0..*]</text>
<text text-anchor="start" x="5.5" y="-104.4" font-family="Times New Roman,serif" font-size="14.00">&#45; &#160;&#160;initial: Deque&lt;T&gt; [0..*]</text>
<text text-anchor="start" x="5.5" y="-80.4" font-family="Times New Roman,serif" font-size="14.00">+ draw(): T</text>
<text text-anchor="start" x="5.5" y="-56.4" font-family="Times New Roman,serif" font-size="14.00">+ iterator(): Iterator&lt;T&gt;</text>
<text text-anchor="start" x="5.5" y="-32.4" font-family="Times New Roman,serif" font-size="14.00">+ lay(element: T)</text>
<text text-anchor="start" x="5.5" y="-8.4" font-family="Times New Roman,serif" font-size="14.00">+ reset()</text>
<polygon fill="black" stroke="black" points="0.5,-145 0.5,-145 271.5,-145 271.5,-145 0.5,-145"/>
<polygon fill="black" stroke="black" points="0.5,-97 0.5,-97 271.5,-97 271.5,-97 0.5,-97"/>
<polygon fill="none" stroke="black" points="0,0 0,-170 271,-170 271,0 0,0"/>
</g>
<!-- Serializable697264569&#45;&gt;RefabDeck1697264569 -->
<g id="edge3" class="edge">
<title>Serializable697264569&#45;&gt;RefabDeck1697264569</title>
<path fill="none" stroke="black" d="M177.45,-272.69C171.66,-246.9 162.6,-206.59 154.38,-170.02"/>
<polygon fill="none" stroke="black" points="174.05,-273.49 179.65,-282.48 180.88,-271.96 174.05,-273.49"/>
</g>
<!-- Deck1697264569&#45;&gt;CardDeck1697264569 -->
<g id="edge4" class="edge">
<title>Deck1697264569&#45;&gt;CardDeck1697264569</title>
<path fill="none" stroke="black" d="M390.2,-229.9C392.23,-224.8 393.5,-221.6 393.5,-221.6 393.5,-221.6 395.95,-197.91 398.79,-170.34"/>
<polygon fill="none" stroke="black" points="386.91,-228.71 386.47,-239.3 393.41,-231.3 386.91,-228.71"/>
</g>
<!-- Deck1697264569&#45;&gt;RefabDeck1697264569 -->
<g id="edge5" class="edge">
<title>Deck1697264569&#45;&gt;RefabDeck1697264569</title>
<path fill="none" stroke="black" d="M291.34,-232.64C270.35,-212.89 247.1,-191.01 225.11,-170.32"/>
<polygon fill="none" stroke="black" points="288.98,-235.23 298.66,-239.53 293.78,-230.13 288.98,-235.23"/>
</g>
<!-- CardDeck1697264569&#45;&gt;Deck1697264569 -->
<g id="edge1" class="edge">
<title>CardDeck1697264569&#45;&gt;Deck1697264569</title>
<path fill="none" stroke="black" d="M370.9,-170.23C366.31,-180.8 363.18,-188 363.18,-188 363.18,-188 363.06,-207.08 362.93,-229.45"/>
<polygon fill="black" stroke="black" points="359.43,-229.53 362.87,-239.55 366.43,-229.57 359.43,-229.53"/>
<text text-anchor="middle" x="378.66" y="-209" font-family="Times New Roman,serif" font-size="14.00">deck</text>
<text text-anchor="middle" x="378.66" y="-192.2" font-family="Times New Roman,serif" font-size="14.00">[0..1]</text>
</g>
</g>
</svg>
