<?xml version="1.0" encoding="UTF-8" standalone="no"?>
<!DOCTYPE svg PUBLIC "-//W3C//DTD SVG 1.1//EN"
 "http://www.w3.org/Graphics/SVG/1.1/DTD/svg11.dtd">
<!-- Generated by graphviz version 2.44.1 (20200629.0846)
 -->
<!-- Title: g Pages: 1 -->
<svg width="174pt" height="144pt"
 viewBox="0.00 0.00 174.00 144.00" xmlns="http://www.w3.org/2000/svg" xmlns:xlink="http://www.w3.org/1999/xlink">
<g id="graph0" class="graph" transform="scale(1 1) rotate(0) translate(4 140)">
<title>g</title>
<polygon fill="white" stroke="transparent" points="-4,4 -4,-140 170,-140 170,4 -4,4"/>
<!-- DiceParser1665388345 -->
<g id="node1" class="node">
<title>DiceParser1665388345</title>
<polygon fill="#ffffff" stroke="transparent" points="166,-50 0,-50 0,0 166,0 166,-50"/>
<text text-anchor="start" x="5" y="-32.4" font-family="Times New Roman,serif" font-size="14.00">(C)DiceParser</text>
<text text-anchor="start" x="4.61" y="-8.4" font-family="Times New Roman,serif" font-size="14.00">+ parse(raw: Matcher): Roll</text>
<polygon fill="black" stroke="black" points="0,-25 0,-25 166,-25 166,-25 0,-25"/>
<polygon fill="none" stroke="black" points="0,0 0,-50 166,-50 166,0 0,0"/>
</g>
<!-- Parser1857742349 -->
<g id="node2" class="node">
<title>Parser1857742349</title>
<polygon fill="#f1e5fd" stroke="transparent" points="140,-136 26,-136 26,-86 140,-86 140,-136"/>
<text text-anchor="start" x="31" y="-118.4" font-family="Times New Roman,serif" font-size="14.00">(I)Parser&lt;T, U&gt;</text>
<text text-anchor="start" x="30.66" y="-94.4" font-family="Times New Roman,serif" font-size="14.00">+ parse(raw: U): T</text>
<polygon fill="black" stroke="black" points="26,-111 26,-111 140,-111 140,-111 26,-111"/>
<polygon fill="none" stroke="black" points="26,-86 26,-136 140,-136 140,-86 26,-86"/>
</g>
<!-- Parser1857742349&#45;&gt;DiceParser1665388345 -->
<g id="edge1" class="edge">
<title>Parser1857742349&#45;&gt;DiceParser1665388345</title>
<path fill="none" stroke="black" d="M83,-75.63C83,-67.11 83,-58.16 83,-50.24"/>
<polygon fill="none" stroke="black" points="79.5,-75.7 83,-85.7 86.5,-75.7 79.5,-75.7"/>
</g>
</g>
</svg>
