<?xml version="1.0" encoding="UTF-8" standalone="no"?>
<!DOCTYPE svg PUBLIC "-//W3C//DTD SVG 1.1//EN"
 "http://www.w3.org/Graphics/SVG/1.1/DTD/svg11.dtd">
<!-- Generated by graphviz version 2.44.1 (20200629.0846)
 -->
<!-- Title: g Pages: 1 -->
<svg width="374pt" height="621pt"
 viewBox="0.00 0.00 374.00 620.80" xmlns="http://www.w3.org/2000/svg" xmlns:xlink="http://www.w3.org/1999/xlink">
<g id="graph0" class="graph" transform="scale(1 1) rotate(0) translate(4 616.8)">
<title>g</title>
<polygon fill="white" stroke="transparent" points="-4,4 -4,-616.8 370,-616.8 370,4 -4,4"/>
<g id="clust1" class="cluster">
<title>cluster_3082201</title>
<polygon fill="#ececec" stroke="black" points="8,-8 8,-604.8 358,-604.8 358,-8 8,-8"/>
<text text-anchor="middle" x="31.55" y="-588.2" font-family="Times New Roman,serif" font-size="14.00">dhbw</text>
</g>
<g id="clust2" class="cluster">
<title>cluster_811044466</title>
<polygon fill="#d8d8d8" stroke="black" points="16,-16 16,-572 350,-572 350,-16 16,-16"/>
<text text-anchor="middle" x="50.04" y="-555.4" font-family="Times New Roman,serif" font-size="14.00">karlsruhe</text>
</g>
<g id="clust3" class="cluster">
<title>cluster_68198893</title>
<polygon fill="#c4c4c4" stroke="black" points="24,-24 24,-539.2 342,-539.2 342,-24 24,-24"/>
<text text-anchor="middle" x="40.94" y="-522.6" font-family="Times New Roman,serif" font-size="14.00">ase</text>
</g>
<g id="clust4" class="cluster">
<title>cluster_872893294</title>
<polygon fill="#bababa" stroke="black" points="32,-32 32,-506.4 334,-506.4 334,-32 32,-32"/>
<text text-anchor="middle" x="57.89" y="-489.8" font-family="Times New Roman,serif" font-size="14.00">plugin</text>
</g>
<g id="clust5" class="cluster">
<title>cluster_7450976</title>
<polygon fill="#b0b0b0" stroke="black" points="40,-40 40,-473.6 326,-473.6 326,-40 40,-40"/>
<text text-anchor="middle" x="55" y="-457" font-family="Times New Roman,serif" font-size="14.00">cli</text>
</g>
<!-- ErrorBuilder1857742349 -->
<g id="node1" class="node">
<title>ErrorBuilder1857742349</title>
<polygon fill="#ffffff" stroke="transparent" points="318,-440.8 48,-440.8 48,-246.8 318,-246.8 318,-440.8"/>
<text text-anchor="start" x="53" y="-423.2" font-family="Times New Roman,serif" font-size="14.00">(C)ErrorBuilder</text>
<text text-anchor="start" x="53" y="-399.2" font-family="Times New Roman,serif" font-size="14.00">&#45; &#160;&#160;reason: String [0..1]</text>
<text text-anchor="start" x="53" y="-375.2" font-family="Times New Roman,serif" font-size="14.00">&#45; &#160;&#160;remedy: String [0..1]</text>
<text text-anchor="start" x="53" y="-351.2" font-family="Times New Roman,serif" font-size="14.00">+ ErrorBuilder(reason: String)</text>
<text text-anchor="start" x="52.51" y="-327.2" font-family="Times New Roman,serif" font-size="14.00">+ ErrorBuilder(reason: String, remedy: String)</text>
<text text-anchor="start" x="53" y="-303.2" font-family="Times New Roman,serif" font-size="14.00">+ print()</text>
<text text-anchor="start" x="53" y="-279.2" font-family="Times New Roman,serif" font-size="14.00">+ reason(): String</text>
<text text-anchor="start" x="53" y="-255.2" font-family="Times New Roman,serif" font-size="14.00">+ remedy(): String</text>
<polygon fill="black" stroke="black" points="48,-415.8 48,-415.8 318,-415.8 318,-415.8 48,-415.8"/>
<polygon fill="black" stroke="black" points="48,-367.8 48,-367.8 318,-367.8 318,-367.8 48,-367.8"/>
<polygon fill="none" stroke="black" points="48,-246.8 48,-440.8 318,-440.8 318,-246.8 48,-246.8"/>
</g>
<!-- Terminal1857742349 -->
<g id="node2" class="node">
<title>Terminal1857742349</title>
<polygon fill="#ffffff" stroke="transparent" points="279.5,-194 86.5,-194 86.5,-48 279.5,-48 279.5,-194"/>
<text text-anchor="start" x="92" y="-176.4" font-family="Times New Roman,serif" font-size="14.00">(C)Terminal</text>
<text text-anchor="start" x="92" y="-152.4" font-family="Times New Roman,serif" font-size="14.00">+ printError(message: String)</text>
<text text-anchor="start" x="92" y="-128.4" font-family="Times New Roman,serif" font-size="14.00">+ printLine(object: Object)</text>
<text text-anchor="start" x="91.88" y="-104.4" font-family="Times New Roman,serif" font-size="14.00">+ readFile(path: String): String[]</text>
<text text-anchor="start" x="92" y="-80.4" font-family="Times New Roman,serif" font-size="14.00">+ readLine(): String</text>
<text text-anchor="start" x="92" y="-56.4" font-family="Times New Roman,serif" font-size="14.00">+ reload()</text>
<polygon fill="black" stroke="black" points="87,-169 87,-169 280,-169 280,-169 87,-169"/>
<polygon fill="none" stroke="black" points="86.5,-48 86.5,-194 279.5,-194 279.5,-48 86.5,-48"/>
</g>
<!-- ErrorBuilder1857742349&#45;&gt;Terminal1857742349 -->
<g id="edge1" class="edge">
<title>ErrorBuilder1857742349&#45;&gt;Terminal1857742349</title>
<path fill="none" stroke="black" d="M183,-246.6C183,-232.61 183,-218.32 183,-204.64"/>
<polygon fill="black" stroke="black" points="186.5,-204.31 183,-194.31 179.5,-204.31 186.5,-204.31"/>
<text text-anchor="middle" x="243.31" y="-216.2" font-family="Times New Roman,serif" font-size="14.00">print() &#45;&gt; printError()</text>
</g>
</g>
</svg>
