<?xml version="1.0" encoding="UTF-8" standalone="no"?>
<!DOCTYPE svg PUBLIC "-//W3C//DTD SVG 1.1//EN"
 "http://www.w3.org/Graphics/SVG/1.1/DTD/svg11.dtd">
<!-- Generated by graphviz version 2.44.1 (20200629.0846)
 -->
<!-- Title: g Pages: 1 -->
<svg width="564pt" height="800pt"
 viewBox="0.00 0.00 564.00 799.80" xmlns="http://www.w3.org/2000/svg" xmlns:xlink="http://www.w3.org/1999/xlink">
<g id="graph0" class="graph" transform="scale(1 1) rotate(0) translate(4 795.8)">
<title>g</title>
<polygon fill="white" stroke="transparent" points="-4,4 -4,-795.8 560,-795.8 560,4 -4,4"/>
<g id="clust1" class="cluster">
<title>cluster_3082201</title>
<polygon fill="#ececec" stroke="black" points="268,-166.8 268,-783.8 548,-783.8 548,-166.8 268,-166.8"/>
<text text-anchor="middle" x="307.1" y="-767.2" font-family="Times New Roman,serif" font-size="14.00">application</text>
</g>
<g id="clust2" class="cluster">
<title>cluster_3082202</title>
<polygon fill="#ececec" stroke="black" points="8,-8 8,-290.4 260,-290.4 260,-8 8,-8"/>
<text text-anchor="middle" x="33.89" y="-273.8" font-family="Times New Roman,serif" font-size="14.00">plugin</text>
</g>
<g id="clust3" class="cluster">
<title>cluster_811044466</title>
<polygon fill="#d8d8d8" stroke="black" points="16,-16 16,-257.6 252,-257.6 252,-16 16,-16"/>
<text text-anchor="middle" x="31" y="-241" font-family="Times New Roman,serif" font-size="14.00">cli</text>
</g>
<!-- GameEndObserver1052887806 -->
<g id="node1" class="node">
<title>GameEndObserver1052887806</title>
<polygon fill="#f1e5fd" stroke="transparent" points="488.5,-224.8 293.5,-224.8 293.5,-174.8 488.5,-174.8 488.5,-224.8"/>
<text text-anchor="start" x="299" y="-207.2" font-family="Times New Roman,serif" font-size="14.00">(I)GameEndObserver</text>
<text text-anchor="start" x="298.53" y="-183.2" font-family="Times New Roman,serif" font-size="14.00">+ update(newState: GameResult)</text>
<polygon fill="black" stroke="black" points="294,-199.8 294,-199.8 489,-199.8 489,-199.8 294,-199.8"/>
<polygon fill="none" stroke="black" points="293.5,-174.8 293.5,-224.8 488.5,-224.8 488.5,-174.8 293.5,-174.8"/>
</g>
<!-- GameEndReporter1857742349 -->
<g id="node4" class="node">
<title>GameEndReporter1857742349</title>
<polygon fill="#ffffff" stroke="transparent" points="244,-122 24,-122 24,-24 244,-24 244,-122"/>
<text text-anchor="start" x="29" y="-104.4" font-family="Times New Roman,serif" font-size="14.00">(C)GameEndReporter</text>
<text text-anchor="start" x="28.83" y="-80.4" font-family="Times New Roman,serif" font-size="14.00">&#45; &#160;&#160;resultToReport: GameResult [0..1]</text>
<text text-anchor="start" x="29" y="-56.4" font-family="Times New Roman,serif" font-size="14.00">+ report()</text>
<text text-anchor="start" x="29" y="-32.4" font-family="Times New Roman,serif" font-size="14.00">+ update(newState: GameResult)</text>
<polygon fill="black" stroke="black" points="24,-97 24,-97 244,-97 244,-97 24,-97"/>
<polygon fill="black" stroke="black" points="24,-73 24,-73 244,-73 244,-73 24,-73"/>
<polygon fill="none" stroke="black" points="24,-24 24,-122 244,-122 244,-24 24,-24"/>
</g>
<!-- GameEndObserver1052887806&#45;&gt;GameEndReporter1857742349 -->
<g id="edge1" class="edge">
<title>GameEndObserver1052887806&#45;&gt;GameEndReporter1857742349</title>
<path fill="none" stroke="black" d="M332.16,-170.23C302.77,-155.95 266.4,-138.29 232.88,-122.02"/>
<polygon fill="none" stroke="black" points="330.92,-173.52 341.45,-174.74 333.98,-167.22 330.92,-173.52"/>
</g>
<!-- GameEndObservable1052887806 -->
<g id="node2" class="node">
<title>GameEndObservable1052887806</title>
<polygon fill="#f1e5fd" stroke="transparent" points="532,-751 284,-751 284,-677 532,-677 532,-751"/>
<text text-anchor="start" x="289" y="-733.4" font-family="Times New Roman,serif" font-size="14.00">(I)GameEndObservable</text>
<text text-anchor="start" x="288.59" y="-709.4" font-family="Times New Roman,serif" font-size="14.00">+ notifyObservers(newState: GameResult)</text>
<text text-anchor="start" x="289" y="-685.4" font-family="Times New Roman,serif" font-size="14.00">+ register(observer: GameEndObserver)</text>
<polygon fill="black" stroke="black" points="284,-726 284,-726 532,-726 532,-726 284,-726"/>
<polygon fill="none" stroke="black" points="284,-677 284,-751 532,-751 532,-677 284,-677"/>
</g>
<!-- GameState1052887806 -->
<g id="node3" class="node">
<title>GameState1052887806</title>
<polygon fill="#ffffff" stroke="transparent" points="540,-640 276,-640 276,-350 540,-350 540,-640"/>
<text text-anchor="start" x="281" y="-622.4" font-family="Times New Roman,serif" font-size="14.00">(C)GameState</text>
<text text-anchor="start" x="281" y="-598.4" font-family="Times New Roman,serif" font-size="14.00">&#45; &#160;&#160;camp: Camp [0..1]</text>
<text text-anchor="start" x="281" y="-574.4" font-family="Times New Roman,serif" font-size="14.00">&#45; &#160;&#160;deck: CardDeck [0..1]</text>
<text text-anchor="start" x="281" y="-550.4" font-family="Times New Roman,serif" font-size="14.00">&#45; &#160;&#160;invalidator: CardInvalidator [0..1]</text>
<text text-anchor="start" x="280.57" y="-526.4" font-family="Times New Roman,serif" font-size="14.00">&#45; &#160;&#160;observers: List&lt;GameEndObserver&gt; [0..*]</text>
<text text-anchor="start" x="281" y="-502.4" font-family="Times New Roman,serif" font-size="14.00">&#45; &#160;&#160;phase: GamePhase [0..1]</text>
<text text-anchor="start" x="281" y="-478.4" font-family="Times New Roman,serif" font-size="14.00">&#45; &#160;&#160;result: GameResult [0..1]</text>
<text text-anchor="start" x="281" y="-454.4" font-family="Times New Roman,serif" font-size="14.00">&#45; &#160;&#160;status: GameStatus [0..1]</text>
<text text-anchor="start" x="281" y="-430.4" font-family="Times New Roman,serif" font-size="14.00">&#45; &#160;&#160;uuid: UUID [0..1]</text>
<text text-anchor="start" x="281" y="-406.4" font-family="Times New Roman,serif" font-size="14.00">+ notifyObservers(newState: GameResult)</text>
<text text-anchor="start" x="281" y="-382.4" font-family="Times New Roman,serif" font-size="14.00">+ register(observer: GameEndObserver)</text>
<text text-anchor="start" x="281" y="-358.4" font-family="Times New Roman,serif" font-size="14.00">+ reinitialize(): GameState</text>
<polygon fill="black" stroke="black" points="276,-615 276,-615 540,-615 540,-615 276,-615"/>
<polygon fill="black" stroke="black" points="276,-423 276,-423 540,-423 540,-423 276,-423"/>
<polygon fill="none" stroke="black" points="276,-350 276,-640 540,-640 540,-350 276,-350"/>
</g>
<!-- GameEndObservable1052887806&#45;&gt;GameState1052887806 -->
<g id="edge2" class="edge">
<title>GameEndObservable1052887806&#45;&gt;GameState1052887806</title>
<path fill="none" stroke="black" d="M408,-666.41C408,-658.27 408,-649.43 408,-640.21"/>
<polygon fill="none" stroke="black" points="404.5,-666.68 408,-676.68 411.5,-666.68 404.5,-666.68"/>
</g>
<!-- GameState1052887806&#45;&gt;GameEndObserver1052887806 -->
<g id="edge3" class="edge">
<title>GameState1052887806&#45;&gt;GameEndObserver1052887806</title>
<path fill="none" stroke="black" d="M399.65,-349.98C397.16,-307.09 394.66,-263.9 392.99,-235.11"/>
<polygon fill="black" stroke="black" points="396.47,-234.6 392.39,-224.82 389.48,-235 396.47,-234.6"/>
<text text-anchor="middle" x="424.82" y="-319.4" font-family="Times New Roman,serif" font-size="14.00">observers</text>
<text text-anchor="middle" x="424.82" y="-302.6" font-family="Times New Roman,serif" font-size="14.00">[0..*]</text>
</g>
<!-- Main1857742349 -->
<g id="node5" class="node">
<title>Main1857742349</title>
<polygon fill="#ffffff" stroke="transparent" points="200,-224.8 68,-224.8 68,-174.8 200,-174.8 200,-224.8"/>
<text text-anchor="start" x="73" y="-207.2" font-family="Times New Roman,serif" font-size="14.00">(C)Main</text>
<text text-anchor="start" x="72.52" y="-183.2" font-family="Times New Roman,serif" font-size="14.00">+ main(args: String[])</text>
<polygon fill="black" stroke="black" points="68,-199.8 68,-199.8 200,-199.8 200,-199.8 68,-199.8"/>
<polygon fill="none" stroke="black" points="68,-174.8 68,-224.8 200,-224.8 200,-174.8 68,-174.8"/>
</g>
<!-- Main1857742349&#45;&gt;GameEndReporter1857742349 -->
<g id="edge4" class="edge">
<title>Main1857742349&#45;&gt;GameEndReporter1857742349</title>
<path fill="none" stroke="black" d="M134,-174.74C134,-162.59 134,-147.29 134,-132.3"/>
<polygon fill="black" stroke="black" points="137.5,-132.02 134,-122.02 130.5,-132.02 137.5,-132.02"/>
<text text-anchor="middle" x="183.81" y="-144.2" font-family="Times New Roman,serif" font-size="14.00">main() &#45;&gt; report()</text>
</g>
</g>
</svg>
