<?xml version="1.0" encoding="UTF-8" standalone="no"?>
<!DOCTYPE svg PUBLIC "-//W3C//DTD SVG 1.1//EN"
 "http://www.w3.org/Graphics/SVG/1.1/DTD/svg11.dtd">
<!-- Generated by graphviz version 2.44.1 (20200629.0846)
 -->
<!-- Title: g Pages: 1 -->
<svg width="1810pt" height="543pt"
 viewBox="0.00 0.00 1810.00 542.80" xmlns="http://www.w3.org/2000/svg" xmlns:xlink="http://www.w3.org/1999/xlink">
<g id="graph0" class="graph" transform="scale(1 1) rotate(0) translate(4 538.8)">
<title>g</title>
<polygon fill="white" stroke="transparent" points="-4,4 -4,-538.8 1806,-538.8 1806,4 -4,4"/>
<g id="clust1" class="cluster">
<title>cluster_3082201</title>
<polygon fill="#ececec" stroke="black" points="8,-8 8,-526.8 1794,-526.8 1794,-8 8,-8"/>
<text text-anchor="middle" x="31.55" y="-510.2" font-family="Times New Roman,serif" font-size="14.00">dhbw</text>
</g>
<g id="clust2" class="cluster">
<title>cluster_811044466</title>
<polygon fill="#d8d8d8" stroke="black" points="16,-16 16,-494 1786,-494 1786,-16 16,-16"/>
<text text-anchor="middle" x="50.04" y="-477.4" font-family="Times New Roman,serif" font-size="14.00">karlsruhe</text>
</g>
<g id="clust3" class="cluster">
<title>cluster_68198893</title>
<polygon fill="#c4c4c4" stroke="black" points="24,-24 24,-461.2 1778,-461.2 1778,-24 24,-24"/>
<text text-anchor="middle" x="40.94" y="-444.6" font-family="Times New Roman,serif" font-size="14.00">ase</text>
</g>
<g id="clust8" class="cluster">
<title>cluster_872893294</title>
<polygon fill="#bababa" stroke="black" points="32,-310.8 32,-428.4 1770,-428.4 1770,-310.8 32,-310.8"/>
<text text-anchor="middle" x="57.89" y="-411.8" font-family="Times New Roman,serif" font-size="14.00">plugin</text>
</g>
<g id="clust9" class="cluster">
<title>cluster_7450976</title>
<polygon fill="#b0b0b0" stroke="black" points="40,-318.8 40,-395.6 1762,-395.6 1762,-318.8 40,-318.8"/>
<text text-anchor="middle" x="55" y="-379" font-family="Times New Roman,serif" font-size="14.00">cli</text>
</g>
<g id="clust4" class="cluster">
<title>cluster_471569909</title>
<polygon fill="#bababa" stroke="black" points="401,-40 401,-278 959,-278 959,-40 401,-40"/>
<text text-anchor="middle" x="440.1" y="-261.4" font-family="Times New Roman,serif" font-size="14.00">application</text>
</g>
<g id="clust5" class="cluster">
<title>cluster_531869951</title>
<polygon fill="#bababa" stroke="black" points="967,-32 967,-149.6 1549,-149.6 1549,-32 967,-32"/>
<text text-anchor="middle" x="996" y="-133" font-family="Times New Roman,serif" font-size="14.00">domain</text>
</g>
<g id="clust6" class="cluster">
<title>cluster_1227197999</title>
<polygon fill="#b0b0b0" stroke="black" points="1151,-40 1151,-116.8 1425,-116.8 1425,-40 1151,-40"/>
<text text-anchor="middle" x="1180.77" y="-100.2" font-family="Times New Roman,serif" font-size="14.00">crafting</text>
</g>
<g id="clust7" class="cluster">
<title>cluster_1683715660</title>
<polygon fill="#b0b0b0" stroke="black" points="1433,-40 1433,-116.8 1541,-116.8 1541,-40 1433,-40"/>
<text text-anchor="middle" x="1455.77" y="-100.2" font-family="Times New Roman,serif" font-size="14.00">cards</text>
</g>
<!-- CardInvalidator1052887806 -->
<g id="node1" class="node">
<title>CardInvalidator1052887806</title>
<polygon fill="#ffffff" stroke="black" points="538.79,-84 415.21,-84 415.21,-48 538.79,-48 538.79,-84"/>
<text text-anchor="middle" x="477" y="-61.8" font-family="Times New Roman,serif" font-size="14.00">(C)CardInvalidator</text>
</g>
<!-- Game1052887806 -->
<g id="node2" class="node">
<title>Game1052887806</title>
<polygon fill="#ffffff" stroke="black" points="951.08,-245.2 882.92,-245.2 882.92,-209.2 951.08,-209.2 951.08,-245.2"/>
<text text-anchor="middle" x="917" y="-223" font-family="Times New Roman,serif" font-size="14.00">(C)Game</text>
</g>
<!-- Game1052887806&#45;&gt;CardInvalidator1052887806 -->
<g id="edge5" class="edge">
<title>Game1052887806&#45;&gt;CardInvalidator1052887806</title>
<path fill="none" stroke="black" d="M882.7,-212.64C877.59,-210.62 874,-209.2 874,-209.2 874,-209.2 590.84,-191.2 590.84,-191.2 590.84,-191.2 548,-149.6 548,-149.6 548,-149.6 519.35,-116.27 498.45,-91.95"/>
<polygon fill="black" stroke="black" points="500.88,-89.42 491.71,-84.11 495.58,-93.98 500.88,-89.42"/>
<text text-anchor="middle" x="637.08" y="-170.2" font-family="Times New Roman,serif" font-size="14.00">draw() &#45;&gt; draw()</text>
</g>
<!-- GameState1052887806 -->
<g id="node4" class="node">
<title>GameState1052887806</title>
<polygon fill="#ffffff" stroke="black" points="653.08,-84 556.92,-84 556.92,-48 653.08,-48 653.08,-84"/>
<text text-anchor="middle" x="605" y="-61.8" font-family="Times New Roman,serif" font-size="14.00">(C)GameState</text>
</g>
<!-- Game1052887806&#45;&gt;GameState1052887806 -->
<g id="edge6" class="edge">
<title>Game1052887806&#45;&gt;GameState1052887806</title>
<path fill="none" stroke="black" d="M882.7,-212.64C877.59,-210.62 874,-209.2 874,-209.2 874,-209.2 787.68,-191.2 787.68,-191.2 787.68,-191.2 662,-149.6 662,-149.6 662,-149.6 639.4,-116.85 622.66,-92.59"/>
<polygon fill="black" stroke="black" points="625.37,-90.36 616.81,-84.11 619.61,-94.33 625.37,-90.36"/>
<text text-anchor="middle" x="802.16" y="-178.6" font-family="Times New Roman,serif" font-size="14.00">state</text>
<text text-anchor="middle" x="802.16" y="-161.8" font-family="Times New Roman,serif" font-size="14.00">[0..1]</text>
</g>
<!-- PersistenceReader1052887806 -->
<g id="node6" class="node">
<title>PersistenceReader1052887806</title>
<polygon fill="#f1e5fd" stroke="black" points="803.1,-84 670.9,-84 670.9,-48 803.1,-48 803.1,-84"/>
<text text-anchor="middle" x="737" y="-61.8" font-family="Times New Roman,serif" font-size="14.00">(I)PersistenceReader</text>
</g>
<!-- Game1052887806&#45;&gt;PersistenceReader1052887806 -->
<g id="edge8" class="edge">
<title>Game1052887806&#45;&gt;PersistenceReader1052887806</title>
<path fill="none" stroke="black" d="M888.69,-209.11C873.97,-200.23 859.02,-191.2 859.02,-191.2 859.02,-191.2 812,-149.6 812,-149.6 812,-149.6 781.47,-115.98 759.37,-91.64"/>
<polygon fill="black" stroke="black" points="761.85,-89.17 752.54,-84.11 756.67,-93.87 761.85,-89.17"/>
<text text-anchor="middle" x="876.49" y="-178.6" font-family="Times New Roman,serif" font-size="14.00">loader</text>
<text text-anchor="middle" x="876.49" y="-161.8" font-family="Times New Roman,serif" font-size="14.00">[0..1]</text>
</g>
<!-- PersistenceWriter1052887806 -->
<g id="node7" class="node">
<title>PersistenceWriter1052887806</title>
<polygon fill="#f1e5fd" stroke="black" points="950.99,-84 821.01,-84 821.01,-48 950.99,-48 950.99,-84"/>
<text text-anchor="middle" x="886" y="-61.8" font-family="Times New Roman,serif" font-size="14.00">(I)PersistenceWriter</text>
</g>
<!-- Game1052887806&#45;&gt;PersistenceWriter1052887806 -->
<g id="edge9" class="edge">
<title>Game1052887806&#45;&gt;PersistenceWriter1052887806</title>
<path fill="none" stroke="black" d="M910.5,-209.11C907.11,-200.23 903.68,-191.2 903.68,-191.2 903.68,-191.2 895.05,-130.58 889.85,-94.04"/>
<polygon fill="black" stroke="black" points="893.3,-93.42 888.42,-84.01 886.37,-94.4 893.3,-93.42"/>
<text text-anchor="middle" x="918.16" y="-178.6" font-family="Times New Roman,serif" font-size="14.00">saver</text>
<text text-anchor="middle" x="918.16" y="-161.8" font-family="Times New Roman,serif" font-size="14.00">[0..1]</text>
</g>
<!-- IllegalActionException593698258 -->
<g id="node9" class="node">
<title>IllegalActionException593698258</title>
<polygon fill="#ffffff" stroke="black" points="1140.79,-84 975.21,-84 975.21,-48 1140.79,-48 1140.79,-84"/>
<text text-anchor="middle" x="1058" y="-61.8" font-family="Times New Roman,serif" font-size="14.00">(C)IllegalActionException</text>
</g>
<!-- Game1052887806&#45;&gt;IllegalActionException593698258 -->
<g id="edge7" class="edge">
<title>Game1052887806&#45;&gt;IllegalActionException593698258</title>
<path fill="none" stroke="black" d="M929.13,-208.89C943.37,-188.57 965.07,-157.6 965.07,-157.6 965.07,-157.6 1005.62,-118.07 1033.15,-91.23"/>
<polygon fill="black" stroke="black" points="1035.8,-93.53 1040.52,-84.04 1030.92,-88.52 1035.8,-93.53"/>
<text text-anchor="middle" x="1061.46" y="-170.2" font-family="Times New Roman,serif" font-size="14.00">start() &#45;&gt; IllegalActionException()</text>
</g>
<!-- Buildable1135820194 -->
<g id="node10" class="node">
<title>Buildable1135820194</title>
<polygon fill="#f1e5fd" stroke="black" points="1243.42,-84 1158.58,-84 1158.58,-48 1243.42,-48 1243.42,-84"/>
<text text-anchor="middle" x="1201" y="-61.8" font-family="Times New Roman,serif" font-size="14.00">(I)Buildable</text>
</g>
<!-- Game1052887806&#45;&gt;Buildable1135820194 -->
<g id="edge3" class="edge">
<title>Game1052887806&#45;&gt;Buildable1135820194</title>
<path fill="none" stroke="black" d="M951.27,-221.22C1017.81,-211.56 1158,-191.2 1158,-191.2 1158,-191.2 1179.17,-130.06 1191.8,-93.57"/>
<polygon fill="black" stroke="black" points="1195.15,-94.6 1195.11,-84.01 1188.53,-92.31 1195.15,-94.6"/>
<text text-anchor="middle" x="1236.7" y="-170.2" font-family="Times New Roman,serif" font-size="14.00">build() &#45;&gt; getCategory()</text>
</g>
<!-- Rescue1135820194 -->
<g id="node12" class="node">
<title>Rescue1135820194</title>
<polygon fill="#f1e5fd" stroke="black" points="1417.41,-84 1346.59,-84 1346.59,-48 1417.41,-48 1417.41,-84"/>
<text text-anchor="middle" x="1382" y="-61.8" font-family="Times New Roman,serif" font-size="14.00">(I)Rescue</text>
</g>
<!-- Game1052887806&#45;&gt;Rescue1135820194 -->
<g id="edge10" class="edge">
<title>Game1052887806&#45;&gt;Rescue1135820194</title>
<path fill="none" stroke="black" d="M951.36,-223.12C1046.77,-214.58 1308,-191.2 1308,-191.2 1308,-191.2 1338,-149.6 1338,-149.6 1338,-149.6 1355.14,-117.42 1368.03,-93.23"/>
<polygon fill="black" stroke="black" points="1371.27,-94.59 1372.88,-84.11 1365.09,-91.3 1371.27,-94.59"/>
<text text-anchor="middle" x="1390.14" y="-170.2" font-family="Times New Roman,serif" font-size="14.00">build() &#45;&gt; endeavor()</text>
</g>
<!-- CardDeck1697264569 -->
<g id="node13" class="node">
<title>CardDeck1697264569</title>
<polygon fill="#ffffff" stroke="black" points="1532.91,-84 1441.09,-84 1441.09,-48 1532.91,-48 1532.91,-84"/>
<text text-anchor="middle" x="1487" y="-61.8" font-family="Times New Roman,serif" font-size="14.00">(C)CardDeck</text>
</g>
<!-- Game1052887806&#45;&gt;CardDeck1697264569 -->
<g id="edge4" class="edge">
<title>Game1052887806&#45;&gt;CardDeck1697264569</title>
<path fill="none" stroke="black" d="M951.34,-223.96C1069.65,-216.23 1453,-191.2 1453,-191.2 1453,-191.2 1469.59,-130.58 1479.6,-94.04"/>
<polygon fill="black" stroke="black" points="1483.08,-94.58 1482.34,-84.01 1476.33,-92.73 1483.08,-94.58"/>
<text text-anchor="middle" x="1507.52" y="-170.2" font-family="Times New Roman,serif" font-size="14.00">reset() &#45;&gt; reset()</text>
</g>
<!-- GamePhaseException1052887806 -->
<g id="node3" class="node">
<title>GamePhaseException1052887806</title>
<polygon fill="#ffffff" stroke="black" points="864.5,-245.2 707.5,-245.2 707.5,-209.2 864.5,-209.2 864.5,-245.2"/>
<text text-anchor="middle" x="786" y="-223" font-family="Times New Roman,serif" font-size="14.00">(C)GamePhaseException</text>
</g>
<!-- GameStatusException1052887806 -->
<g id="node5" class="node">
<title>GameStatusException1052887806</title>
<polygon fill="#ffffff" stroke="black" points="689.57,-245.2 530.43,-245.2 530.43,-209.2 689.57,-209.2 689.57,-245.2"/>
<text text-anchor="middle" x="610" y="-223" font-family="Times New Roman,serif" font-size="14.00">(C)GameStatusException</text>
</g>
<!-- RollHandler1052887806 -->
<g id="node8" class="node">
<title>RollHandler1052887806</title>
<polygon fill="#ffffff" stroke="black" points="512.86,-245.2 409.14,-245.2 409.14,-209.2 512.86,-209.2 512.86,-245.2"/>
<text text-anchor="middle" x="461" y="-223" font-family="Times New Roman,serif" font-size="14.00">(C)RollHandler</text>
</g>
<!-- Camp1135820194 -->
<g id="node11" class="node">
<title>Camp1135820194</title>
<polygon fill="#ffffff" stroke="black" points="1329.1,-84 1260.9,-84 1260.9,-48 1329.1,-48 1329.1,-84"/>
<text text-anchor="middle" x="1295" y="-61.8" font-family="Times New Roman,serif" font-size="14.00">(C)Camp</text>
</g>
<!-- BuildCommand1702927325 -->
<g id="node14" class="node">
<title>BuildCommand1702927325</title>
<polygon fill="#ffffff" stroke="black" points="172.11,-362.8 47.89,-362.8 47.89,-326.8 172.11,-326.8 172.11,-362.8"/>
<text text-anchor="middle" x="110" y="-340.6" font-family="Times New Roman,serif" font-size="14.00">(C)BuildCommand</text>
</g>
<!-- BuildCommand1702927325&#45;&gt;Game1052887806 -->
<g id="edge1" class="edge">
<title>BuildCommand1702927325&#45;&gt;Game1052887806</title>
<path fill="none" stroke="black" d="M135.12,-326.77C160.28,-309.72 195.27,-286 195.27,-286 195.27,-286 874,-278 874,-278 874,-278 884.81,-265.48 895.59,-253"/>
<polygon fill="black" stroke="black" points="898.32,-255.19 902.2,-245.34 893.02,-250.62 898.32,-255.19"/>
<text text-anchor="middle" x="249.86" y="-290.2" font-family="Times New Roman,serif" font-size="14.00">execute() &#45;&gt; build()</text>
</g>
<!-- DrawCommand1702927325 -->
<g id="node15" class="node">
<title>DrawCommand1702927325</title>
<polygon fill="#ffffff" stroke="black" points="314.08,-362.8 189.92,-362.8 189.92,-326.8 314.08,-326.8 314.08,-362.8"/>
<text text-anchor="middle" x="252" y="-340.6" font-family="Times New Roman,serif" font-size="14.00">(C)DrawCommand</text>
</g>
<!-- DrawCommand1702927325&#45;&gt;Game1052887806 -->
<g id="edge2" class="edge">
<title>DrawCommand1702927325&#45;&gt;Game1052887806</title>
<path fill="none" stroke="black" d="M275.3,-326.77C298.62,-309.72 331.07,-286 331.07,-286 331.07,-286 874,-278 874,-278 874,-278 884.81,-265.48 895.59,-253"/>
<polygon fill="black" stroke="black" points="898.32,-255.19 902.2,-245.34 893.02,-250.62 898.32,-255.19"/>
<text text-anchor="middle" x="385.46" y="-290.2" font-family="Times New Roman,serif" font-size="14.00">execute() &#45;&gt; draw()</text>
</g>
<!-- ListBuildingsCommand1702927325 -->
<g id="node16" class="node">
<title>ListBuildingsCommand1702927325</title>
<polygon fill="#ffffff" stroke="black" points="501.72,-362.8 332.28,-362.8 332.28,-326.8 501.72,-326.8 501.72,-362.8"/>
<text text-anchor="middle" x="417" y="-340.6" font-family="Times New Roman,serif" font-size="14.00">(C)ListBuildingsCommand</text>
</g>
<!-- ListBuildingsCommand1702927325&#45;&gt;Game1052887806 -->
<g id="edge11" class="edge">
<title>ListBuildingsCommand1702927325&#45;&gt;Game1052887806</title>
<path fill="none" stroke="black" d="M428.04,-326.77C439.1,-309.72 454.48,-286 454.48,-286 454.48,-286 874,-278 874,-278 874,-278 884.81,-265.48 895.59,-253"/>
<polygon fill="black" stroke="black" points="898.32,-255.19 902.2,-245.34 893.02,-250.62 898.32,-255.19"/>
<text text-anchor="middle" x="530.26" y="-290.2" font-family="Times New Roman,serif" font-size="14.00">execute() &#45;&gt; listBuildings()</text>
</g>
<!-- ListResourcesCommand1702927325 -->
<g id="node17" class="node">
<title>ListResourcesCommand1702927325</title>
<polygon fill="#ffffff" stroke="black" points="692.3,-362.8 519.7,-362.8 519.7,-326.8 692.3,-326.8 692.3,-362.8"/>
<text text-anchor="middle" x="606" y="-340.6" font-family="Times New Roman,serif" font-size="14.00">(C)ListResourcesCommand</text>
</g>
<!-- ListResourcesCommand1702927325&#45;&gt;Game1052887806 -->
<g id="edge12" class="edge">
<title>ListResourcesCommand1702927325&#45;&gt;Game1052887806</title>
<path fill="none" stroke="black" d="M608.18,-326.77C610.37,-309.72 613.41,-286 613.41,-286 613.41,-286 874,-278 874,-278 874,-278 884.81,-265.48 895.59,-253"/>
<polygon fill="black" stroke="black" points="898.32,-255.19 902.2,-245.34 893.02,-250.62 898.32,-255.19"/>
<text text-anchor="middle" x="690.8" y="-290.2" font-family="Times New Roman,serif" font-size="14.00">execute() &#45;&gt; listResources()</text>
</g>
<!-- LoadGameCommand1702927325 -->
<g id="node18" class="node">
<title>LoadGameCommand1702927325</title>
<polygon fill="#ffffff" stroke="black" points="865.68,-362.8 710.32,-362.8 710.32,-326.8 865.68,-326.8 865.68,-362.8"/>
<text text-anchor="middle" x="788" y="-340.6" font-family="Times New Roman,serif" font-size="14.00">(C)LoadGameCommand</text>
</g>
<!-- LoadGameCommand1702927325&#45;&gt;Game1052887806 -->
<g id="edge13" class="edge">
<title>LoadGameCommand1702927325&#45;&gt;Game1052887806</title>
<path fill="none" stroke="black" d="M781.94,-326.65C777.98,-315.41 773.52,-302.8 773.52,-302.8 773.52,-302.8 773.52,-286 773.52,-286 773.52,-286 874,-278 874,-278 874,-278 884.81,-265.48 895.59,-253"/>
<polygon fill="black" stroke="black" points="898.32,-255.19 902.2,-245.34 893.02,-250.62 898.32,-255.19"/>
<text text-anchor="middle" x="842.24" y="-290.2" font-family="Times New Roman,serif" font-size="14.00">execute() &#45;&gt; loadGame()</text>
</g>
<!-- Main1857742349 -->
<g id="node19" class="node">
<title>Main1857742349</title>
<polygon fill="#ffffff" stroke="black" points="948.21,-362.8 883.79,-362.8 883.79,-326.8 948.21,-326.8 948.21,-362.8"/>
<text text-anchor="middle" x="916" y="-340.6" font-family="Times New Roman,serif" font-size="14.00">(C)Main</text>
</g>
<!-- Main1857742349&#45;&gt;Game1052887806 -->
<g id="edge14" class="edge">
<title>Main1857742349&#45;&gt;Game1052887806</title>
<path fill="none" stroke="black" d="M916.15,-326.74C916.31,-307.96 916.57,-277.5 916.76,-255.41"/>
<polygon fill="black" stroke="black" points="920.27,-255.36 916.85,-245.33 913.27,-255.3 920.27,-255.36"/>
<text text-anchor="middle" x="965.81" y="-290.2" font-family="Times New Roman,serif" font-size="14.00">main() &#45;&gt; Game()</text>
</g>
<!-- ResetCommand1702927325 -->
<g id="node20" class="node">
<title>ResetCommand1702927325</title>
<polygon fill="#ffffff" stroke="black" points="1090.09,-362.8 965.91,-362.8 965.91,-326.8 1090.09,-326.8 1090.09,-362.8"/>
<text text-anchor="middle" x="1028" y="-340.6" font-family="Times New Roman,serif" font-size="14.00">(C)ResetCommand</text>
</g>
<!-- ResetCommand1702927325&#45;&gt;Game1052887806 -->
<g id="edge15" class="edge">
<title>ResetCommand1702927325&#45;&gt;Game1052887806</title>
<path fill="none" stroke="black" d="M1025.05,-326.77C1022.1,-309.72 1018,-286 1018,-286 1018,-286 984.25,-266.69 955.77,-250.39"/>
<polygon fill="black" stroke="black" points="957.17,-247.16 946.76,-245.23 953.7,-253.23 957.17,-247.16"/>
<text text-anchor="middle" x="1073.69" y="-290.2" font-family="Times New Roman,serif" font-size="14.00">execute() &#45;&gt; reset()</text>
</g>
<!-- RollDxCommand1702927325 -->
<g id="node21" class="node">
<title>RollDxCommand1702927325</title>
<polygon fill="#ffffff" stroke="black" points="1242.21,-362.8 1107.79,-362.8 1107.79,-326.8 1242.21,-326.8 1242.21,-362.8"/>
<text text-anchor="middle" x="1175" y="-340.6" font-family="Times New Roman,serif" font-size="14.00">(C)RollDxCommand</text>
</g>
<!-- RollDxCommand1702927325&#45;&gt;Game1052887806 -->
<g id="edge16" class="edge">
<title>RollDxCommand1702927325&#45;&gt;Game1052887806</title>
<path fill="none" stroke="black" d="M1162.04,-326.77C1149.06,-309.72 1131,-286 1131,-286 1131,-286 1024.11,-257.13 961.42,-240.2"/>
<polygon fill="black" stroke="black" points="961.95,-236.72 951.38,-237.49 960.12,-243.47 961.95,-236.72"/>
<text text-anchor="middle" x="1200.75" y="-290.2" font-family="Times New Roman,serif" font-size="14.00">execute() &#45;&gt; rollDx()</text>
</g>
<!-- SaveGameCommand1702927325 -->
<g id="node22" class="node">
<title>SaveGameCommand1702927325</title>
<polygon fill="#ffffff" stroke="black" points="1413.63,-362.8 1260.37,-362.8 1260.37,-326.8 1413.63,-326.8 1413.63,-362.8"/>
<text text-anchor="middle" x="1337" y="-340.6" font-family="Times New Roman,serif" font-size="14.00">(C)SaveGameCommand</text>
</g>
<!-- SaveGameCommand1702927325&#45;&gt;Game1052887806 -->
<g id="edge17" class="edge">
<title>SaveGameCommand1702927325&#45;&gt;Game1052887806</title>
<path fill="none" stroke="black" d="M1315.2,-326.77C1293.37,-309.72 1263,-286 1263,-286 1263,-286 1054.35,-251.14 961.11,-235.57"/>
<polygon fill="black" stroke="black" points="961.56,-232.1 951.12,-233.9 960.41,-239 961.56,-232.1"/>
<text text-anchor="middle" x="1351.62" y="-290.2" font-family="Times New Roman,serif" font-size="14.00">execute() &#45;&gt; saveGame()</text>
</g>
<!-- ShowBuildablesCommand1702927325 -->
<g id="node23" class="node">
<title>ShowBuildablesCommand1702927325</title>
<polygon fill="#ffffff" stroke="black" points="1616.26,-362.8 1431.74,-362.8 1431.74,-326.8 1616.26,-326.8 1616.26,-362.8"/>
<text text-anchor="middle" x="1524" y="-340.6" font-family="Times New Roman,serif" font-size="14.00">(C)ShowBuildablesCommand</text>
</g>
<!-- ShowBuildablesCommand1702927325&#45;&gt;Game1052887806 -->
<g id="edge18" class="edge">
<title>ShowBuildablesCommand1702927325&#45;&gt;Game1052887806</title>
<path fill="none" stroke="black" d="M1494.83,-326.77C1465.63,-309.72 1425,-286 1425,-286 1425,-286 1085.12,-247.33 961.38,-233.25"/>
<polygon fill="black" stroke="black" points="961.45,-229.74 951.12,-232.08 960.66,-236.69 961.45,-229.74"/>
<text text-anchor="middle" x="1536.19" y="-290.2" font-family="Times New Roman,serif" font-size="14.00">execute() &#45;&gt; showBuildables()</text>
</g>
<!-- StartCommand1702927325 -->
<g id="node24" class="node">
<title>StartCommand1702927325</title>
<polygon fill="#ffffff" stroke="black" points="1753.93,-362.8 1634.07,-362.8 1634.07,-326.8 1753.93,-326.8 1753.93,-362.8"/>
<text text-anchor="middle" x="1694" y="-340.6" font-family="Times New Roman,serif" font-size="14.00">(C)StartCommand</text>
</g>
<!-- StartCommand1702927325&#45;&gt;Game1052887806 -->
<g id="edge19" class="edge">
<title>StartCommand1702927325&#45;&gt;Game1052887806</title>
<path fill="none" stroke="black" d="M1673.67,-326.77C1653.32,-309.72 1625,-286 1625,-286 1625,-286 1116.22,-244.46 961.26,-231.81"/>
<polygon fill="black" stroke="black" points="961.4,-228.31 951.15,-230.99 960.83,-235.29 961.4,-228.31"/>
<text text-anchor="middle" x="1695.52" y="-290.2" font-family="Times New Roman,serif" font-size="14.00">execute() &#45;&gt; start()</text>
</g>
</g>
</svg>
