<?xml version="1.0" encoding="UTF-8" standalone="no"?>
<!DOCTYPE svg PUBLIC "-//W3C//DTD SVG 1.1//EN"
 "http://www.w3.org/Graphics/SVG/1.1/DTD/svg11.dtd">
<!-- Generated by graphviz version 2.44.1 (20200629.0846)
 -->
<!-- Title: g Pages: 1 -->
<svg width="1172pt" height="705pt"
 viewBox="0.00 0.00 1172.00 705.20" xmlns="http://www.w3.org/2000/svg" xmlns:xlink="http://www.w3.org/1999/xlink">
<g id="graph0" class="graph" transform="scale(1 1) rotate(0) translate(4 701.2)">
<title>g</title>
<polygon fill="white" stroke="transparent" points="-4,4 -4,-701.2 1168,-701.2 1168,4 -4,4"/>
<!-- Camp1135820194 -->
<g id="node1" class="node">
<title>Camp1135820194</title>
<polygon fill="#ffffff" stroke="transparent" points="62,-79 0,-79 0,-43 62,-43 62,-79"/>
<text text-anchor="start" x="4.95" y="-56.4" font-family="Times New Roman,serif" font-size="14.00">(C)Camp</text>
<polygon fill="none" stroke="black" points="0,-48 0,-74 62,-74 62,-48 0,-48"/>
</g>
<!-- CardDeck1697264569 -->
<g id="node2" class="node">
<title>CardDeck1697264569</title>
<polygon fill="#ffffff" stroke="transparent" points="165.5,-79 80.5,-79 80.5,-43 165.5,-43 165.5,-79"/>
<text text-anchor="start" x="85.8" y="-56.4" font-family="Times New Roman,serif" font-size="14.00">(C)CardDeck</text>
<polygon fill="none" stroke="black" points="80.5,-48 80.5,-74 165.5,-74 165.5,-48 80.5,-48"/>
</g>
<!-- CardInvalidator1052887806 -->
<g id="node3" class="node">
<title>CardInvalidator1052887806</title>
<polygon fill="#ffffff" stroke="transparent" points="300.5,-79 183.5,-79 183.5,-43 300.5,-43 300.5,-79"/>
<text text-anchor="start" x="188.85" y="-56.4" font-family="Times New Roman,serif" font-size="14.00">(C)CardInvalidator</text>
<polygon fill="none" stroke="black" points="183.5,-48 183.5,-74 300.5,-74 300.5,-48 183.5,-48"/>
</g>
<!-- Game1052887806 -->
<g id="node4" class="node">
<title>Game1052887806</title>
<polygon fill="#ffffff" stroke="transparent" points="395.5,-697.2 192.5,-697.2 192.5,-599.2 395.5,-599.2 395.5,-697.2"/>
<text text-anchor="start" x="198" y="-679.6" font-family="Times New Roman,serif" font-size="14.00">(C)Game</text>
<text text-anchor="start" x="197.52" y="-655.6" font-family="Times New Roman,serif" font-size="14.00">&#45; &#160;&#160;loader: PersistenceReader [0..1]</text>
<text text-anchor="start" x="198" y="-631.6" font-family="Times New Roman,serif" font-size="14.00">&#45; &#160;&#160;saver: PersistenceWriter [0..1]</text>
<text text-anchor="start" x="198" y="-607.6" font-family="Times New Roman,serif" font-size="14.00">&#45; &#160;&#160;state: GameState [0..1]</text>
<polygon fill="black" stroke="black" points="193,-672.2 193,-672.2 396,-672.2 396,-672.2 193,-672.2"/>
<polygon fill="none" stroke="black" points="192.5,-599.2 192.5,-697.2 395.5,-697.2 395.5,-599.2 192.5,-599.2"/>
</g>
<!-- GameState1052887806 -->
<g id="node9" class="node">
<title>GameState1052887806</title>
<polygon fill="#ffffff" stroke="transparent" points="548,-529.6 284,-529.6 284,-191.6 548,-191.6 548,-529.6"/>
<text text-anchor="start" x="289" y="-512" font-family="Times New Roman,serif" font-size="14.00">(C)GameState</text>
<text text-anchor="start" x="289" y="-488" font-family="Times New Roman,serif" font-size="14.00">&#45; &#160;&#160;camp: Camp [0..1]</text>
<text text-anchor="start" x="289" y="-464" font-family="Times New Roman,serif" font-size="14.00">&#45; &#160;&#160;deck: CardDeck [0..1]</text>
<text text-anchor="start" x="289" y="-440" font-family="Times New Roman,serif" font-size="14.00">&#45; &#160;&#160;invalidator: CardInvalidator [0..1]</text>
<text text-anchor="start" x="288.57" y="-416" font-family="Times New Roman,serif" font-size="14.00">&#45; &#160;&#160;observers: List&lt;GameEndObserver&gt; [0..*]</text>
<text text-anchor="start" x="289" y="-392" font-family="Times New Roman,serif" font-size="14.00">&#45; &#160;&#160;phase: GamePhase [0..1]</text>
<text text-anchor="start" x="289" y="-368" font-family="Times New Roman,serif" font-size="14.00">&#45; &#160;&#160;result: GameResult [0..1]</text>
<text text-anchor="start" x="289" y="-344" font-family="Times New Roman,serif" font-size="14.00">&#45; &#160;&#160;status: GameStatus [0..1]</text>
<text text-anchor="start" x="289" y="-320" font-family="Times New Roman,serif" font-size="14.00">&#45; &#160;&#160;uuid: UUID [0..1]</text>
<text text-anchor="start" x="289" y="-296" font-family="Times New Roman,serif" font-size="14.00">+ reinitialize(): GameState</text>
<text text-anchor="start" x="289" y="-272" font-family="Times New Roman,serif" font-size="14.00">+ notifyObservers(newState: GameResult)</text>
<text text-anchor="start" x="289" y="-248" font-family="Times New Roman,serif" font-size="14.00">+ register(observer: GameEndObserver)</text>
<text text-anchor="start" x="289" y="-224" font-family="Times New Roman,serif" font-size="14.00">+ @Override hashCode(): int</text>
<text text-anchor="start" x="289" y="-200" font-family="Times New Roman,serif" font-size="14.00">+ @Override equals(): boolean</text>
<polygon fill="black" stroke="black" points="284,-504.6 284,-504.6 548,-504.6 548,-504.6 284,-504.6"/>
<polygon fill="black" stroke="black" points="284,-312.6 284,-312.6 548,-312.6 548,-312.6 284,-312.6"/>
<polygon fill="none" stroke="black" points="284,-191.6 284,-529.6 548,-529.6 548,-191.6 284,-191.6"/>
</g>
<!-- Game1052887806&#45;&gt;GameState1052887806 -->
<g id="edge1" class="edge">
<title>Game1052887806&#45;&gt;GameState1052887806</title>
<path fill="none" stroke="black" d="M314.56,-599.07C321.96,-581.76 330.8,-561.06 340.13,-539.2"/>
<polygon fill="black" stroke="black" points="343.45,-540.34 344.16,-529.77 337.02,-537.59 343.45,-540.34"/>
<text text-anchor="middle" x="349.16" y="-568.6" font-family="Times New Roman,serif" font-size="14.00">state</text>
<text text-anchor="middle" x="349.16" y="-551.8" font-family="Times New Roman,serif" font-size="14.00">[0..1]</text>
</g>
<!-- GameEndObservable1052887806 -->
<g id="node5" class="node">
<title>GameEndObservable1052887806</title>
<polygon fill="#f1e5fd" stroke="transparent" points="662,-685.2 414,-685.2 414,-611.2 662,-611.2 662,-685.2"/>
<text text-anchor="start" x="419" y="-667.6" font-family="Times New Roman,serif" font-size="14.00">(I)GameEndObservable</text>
<text text-anchor="start" x="418.59" y="-643.6" font-family="Times New Roman,serif" font-size="14.00">+ notifyObservers(newState: GameResult)</text>
<text text-anchor="start" x="419" y="-619.6" font-family="Times New Roman,serif" font-size="14.00">+ register(observer: GameEndObserver)</text>
<polygon fill="black" stroke="black" points="414,-660.2 414,-660.2 662,-660.2 662,-660.2 414,-660.2"/>
<polygon fill="none" stroke="black" points="414,-611.2 414,-685.2 662,-685.2 662,-611.2 414,-611.2"/>
</g>
<!-- GameEndObservable1052887806&#45;&gt;GameState1052887806 -->
<g id="edge2" class="edge">
<title>GameEndObservable1052887806&#45;&gt;GameState1052887806</title>
<path fill="none" stroke="black" d="M518.6,-601.79C509.94,-581.51 499.14,-556.24 487.83,-529.76"/>
<polygon fill="none" stroke="black" points="515.4,-603.21 522.55,-611.03 521.84,-600.46 515.4,-603.21"/>
</g>
<!-- GameEndObserver1052887806 -->
<g id="node6" class="node">
<title>GameEndObserver1052887806</title>
<polygon fill="#f1e5fd" stroke="transparent" points="513.5,-86 318.5,-86 318.5,-36 513.5,-36 513.5,-86"/>
<text text-anchor="start" x="324" y="-68.4" font-family="Times New Roman,serif" font-size="14.00">(I)GameEndObserver</text>
<text text-anchor="start" x="323.53" y="-44.4" font-family="Times New Roman,serif" font-size="14.00">+ update(newState: GameResult)</text>
<polygon fill="black" stroke="black" points="319,-61 319,-61 514,-61 514,-61 319,-61"/>
<polygon fill="none" stroke="black" points="318.5,-36 318.5,-86 513.5,-86 513.5,-36 318.5,-36"/>
</g>
<!-- GamePhase1052887806 -->
<g id="node7" class="node">
<title>GamePhase1052887806</title>
<polygon fill="#dcfbd5" stroke="transparent" points="738,-122 532,-122 532,0 738,0 738,-122"/>
<text text-anchor="start" x="537" y="-104.4" font-family="Times New Roman,serif" font-size="14.00">(E)GamePhase</text>
<text text-anchor="start" x="536.78" y="-80.4" font-family="Times New Roman,serif" font-size="14.00">+ &#160;&#160;ENCOUNTER: GamePhase [1]</text>
<text text-anchor="start" x="537" y="-56.4" font-family="Times New Roman,serif" font-size="14.00">+ &#160;&#160;END: GamePhase [1]</text>
<text text-anchor="start" x="537" y="-32.4" font-family="Times New Roman,serif" font-size="14.00">+ &#160;&#160;ENDEAVOR: GamePhase [1]</text>
<text text-anchor="start" x="537" y="-8.4" font-family="Times New Roman,serif" font-size="14.00">+ &#160;&#160;SCAVENGE: GamePhase [1]</text>
<polygon fill="black" stroke="black" points="532,-97 532,-97 738,-97 738,-97 532,-97"/>
<polygon fill="none" stroke="black" points="532,0 532,-122 738,-122 738,0 532,0"/>
</g>
<!-- GameResult1052887806 -->
<g id="node8" class="node">
<title>GameResult1052887806</title>
<polygon fill="#dcfbd5" stroke="transparent" points="919.5,-110 756.5,-110 756.5,-12 919.5,-12 919.5,-110"/>
<text text-anchor="start" x="762" y="-92.4" font-family="Times New Roman,serif" font-size="14.00">(E)GameResult</text>
<text text-anchor="start" x="762" y="-68.4" font-family="Times New Roman,serif" font-size="14.00">+ &#160;&#160;LOSE: GameResult [1]</text>
<text text-anchor="start" x="761.66" y="-44.4" font-family="Times New Roman,serif" font-size="14.00">+ &#160;&#160;NONE: GameResult [1]</text>
<text text-anchor="start" x="762" y="-20.4" font-family="Times New Roman,serif" font-size="14.00">+ &#160;&#160;WIN: GameResult [1]</text>
<polygon fill="black" stroke="black" points="757,-85 757,-85 920,-85 920,-85 757,-85"/>
<polygon fill="none" stroke="black" points="756.5,-12 756.5,-110 919.5,-110 919.5,-12 756.5,-12"/>
</g>
<!-- GameState1052887806&#45;&gt;Camp1135820194 -->
<g id="edge3" class="edge">
<title>GameState1052887806&#45;&gt;Camp1135820194</title>
<path fill="none" stroke="black" d="M283.6,-268.42C186.31,-201.41 71,-122 71,-122 71,-122 59.03,-104.04 48.18,-87.77"/>
<polygon fill="black" stroke="black" points="50.81,-85.41 42.36,-79.03 44.99,-89.3 50.81,-85.41"/>
<text text-anchor="middle" x="161.16" y="-161" font-family="Times New Roman,serif" font-size="14.00">camp</text>
<text text-anchor="middle" x="161.16" y="-144.2" font-family="Times New Roman,serif" font-size="14.00">[0..1]</text>
</g>
<!-- GameState1052887806&#45;&gt;CardDeck1697264569 -->
<g id="edge4" class="edge">
<title>GameState1052887806&#45;&gt;CardDeck1697264569</title>
<path fill="none" stroke="black" d="M283.67,-229.68C227.17,-174.21 174,-122 174,-122 174,-122 158.16,-103.37 144.14,-86.87"/>
<polygon fill="black" stroke="black" points="146.62,-84.39 137.48,-79.03 141.29,-88.92 146.62,-84.39"/>
<text text-anchor="middle" x="242.16" y="-161" font-family="Times New Roman,serif" font-size="14.00">deck</text>
<text text-anchor="middle" x="242.16" y="-144.2" font-family="Times New Roman,serif" font-size="14.00">[0..1]</text>
</g>
<!-- GameState1052887806&#45;&gt;CardInvalidator1052887806 -->
<g id="edge5" class="edge">
<title>GameState1052887806&#45;&gt;CardInvalidator1052887806</title>
<path fill="none" stroke="black" d="M317.56,-191.23C293.94,-150.83 271.46,-112.38 257.26,-88.09"/>
<polygon fill="black" stroke="black" points="260.12,-86.06 252.05,-79.2 254.08,-89.6 260.12,-86.06"/>
<text text-anchor="middle" x="334.33" y="-161" font-family="Times New Roman,serif" font-size="14.00">invalidator</text>
<text text-anchor="middle" x="334.33" y="-144.2" font-family="Times New Roman,serif" font-size="14.00">[0..1]</text>
</g>
<!-- GameState1052887806&#45;&gt;GameEndObserver1052887806 -->
<g id="edge6" class="edge">
<title>GameState1052887806&#45;&gt;GameEndObserver1052887806</title>
<path fill="none" stroke="black" d="M416,-191.23C416,-155.03 416,-120.4 416,-96.12"/>
<polygon fill="black" stroke="black" points="419.5,-96.04 416,-86.04 412.5,-96.04 419.5,-96.04"/>
<text text-anchor="middle" x="442.82" y="-161" font-family="Times New Roman,serif" font-size="14.00">observers</text>
<text text-anchor="middle" x="442.82" y="-144.2" font-family="Times New Roman,serif" font-size="14.00">[0..*]</text>
</g>
<!-- GameState1052887806&#45;&gt;GamePhase1052887806 -->
<g id="edge7" class="edge">
<title>GameState1052887806&#45;&gt;GamePhase1052887806</title>
<path fill="none" stroke="black" d="M539.9,-191.23C555.75,-169.7 571.19,-148.71 584.86,-130.14"/>
<polygon fill="black" stroke="black" points="587.7,-132.18 590.81,-122.05 582.06,-128.03 587.7,-132.18"/>
<text text-anchor="middle" x="591.94" y="-161" font-family="Times New Roman,serif" font-size="14.00">phase</text>
<text text-anchor="middle" x="591.94" y="-144.2" font-family="Times New Roman,serif" font-size="14.00">[0..1]</text>
</g>
<!-- GameState1052887806&#45;&gt;GameResult1052887806 -->
<g id="edge8" class="edge">
<title>GameState1052887806&#45;&gt;GameResult1052887806</title>
<path fill="none" stroke="black" d="M548.08,-266.46C618.27,-216.95 702.09,-157.85 761.5,-115.95"/>
<polygon fill="black" stroke="black" points="763.57,-118.77 769.72,-110.15 759.53,-113.05 763.57,-118.77"/>
<text text-anchor="middle" x="739.55" y="-161" font-family="Times New Roman,serif" font-size="14.00">result</text>
<text text-anchor="middle" x="739.55" y="-144.2" font-family="Times New Roman,serif" font-size="14.00">[0..1]</text>
</g>
<!-- GameStatus1052887806 -->
<g id="node10" class="node">
<title>GameStatus1052887806</title>
<polygon fill="#dcfbd5" stroke="transparent" points="1164,-110 938,-110 938,-12 1164,-12 1164,-110"/>
<text text-anchor="start" x="943" y="-92.4" font-family="Times New Roman,serif" font-size="14.00">(E)GameStatus</text>
<text text-anchor="start" x="943" y="-68.4" font-family="Times New Roman,serif" font-size="14.00">+ &#160;&#160;ENDED: GameStatus [1]</text>
<text text-anchor="start" x="943" y="-44.4" font-family="Times New Roman,serif" font-size="14.00">+ &#160;&#160;RUNNING: GameStatus [1]</text>
<text text-anchor="start" x="942.68" y="-20.4" font-family="Times New Roman,serif" font-size="14.00">+ &#160;&#160;UNINITIALIZED: GameStatus [1]</text>
<polygon fill="black" stroke="black" points="938,-85 938,-85 1164,-85 1164,-85 938,-85"/>
<polygon fill="none" stroke="black" points="938,-12 938,-110 1164,-110 1164,-12 938,-12"/>
</g>
<!-- GameState1052887806&#45;&gt;GameStatus1052887806 -->
<g id="edge9" class="edge">
<title>GameState1052887806&#45;&gt;GameStatus1052887806</title>
<path fill="none" stroke="black" d="M548.11,-298.41C700.11,-228.01 929,-122 929,-122 929,-122 935.02,-119.04 944.38,-114.44"/>
<polygon fill="black" stroke="black" points="945.97,-117.56 953.4,-110 942.88,-111.27 945.97,-117.56"/>
<text text-anchor="middle" x="900.94" y="-161" font-family="Times New Roman,serif" font-size="14.00">status</text>
<text text-anchor="middle" x="900.94" y="-144.2" font-family="Times New Roman,serif" font-size="14.00">[0..1]</text>
</g>
</g>
</svg>
