<?xml version="1.0" encoding="UTF-8" standalone="no"?>
<!DOCTYPE svg PUBLIC "-//W3C//DTD SVG 1.1//EN"
 "http://www.w3.org/Graphics/SVG/1.1/DTD/svg11.dtd">
<!-- Generated by graphviz version 2.44.1 (20200629.0846)
 -->
<!-- Title: g Pages: 1 -->
<svg width="247pt" height="673pt"
 viewBox="0.00 0.00 247.00 672.60" xmlns="http://www.w3.org/2000/svg" xmlns:xlink="http://www.w3.org/1999/xlink">
<g id="graph0" class="graph" transform="scale(1 1) rotate(0) translate(4 668.6)">
<title>g</title>
<polygon fill="white" stroke="transparent" points="-4,4 -4,-668.6 243,-668.6 243,4 -4,4"/>
<!-- Game1052887806 -->
<g id="node1" class="node">
<title>Game1052887806</title>
<polygon fill="#ffffff" stroke="transparent" points="239,-664.6 0,-664.6 0,-278.6 239,-278.6 239,-664.6"/>
<text text-anchor="start" x="5.5" y="-647" font-family="Times New Roman,serif" font-size="14.00">(C)Game</text>
<text text-anchor="start" x="5.5" y="-623" font-family="Times New Roman,serif" font-size="14.00">&#45; &#160;&#160;loader: PersistenceReader [0..1]</text>
<text text-anchor="start" x="5.5" y="-599" font-family="Times New Roman,serif" font-size="14.00">&#45; &#160;&#160;saver: PersistenceWriter [0..1]</text>
<text text-anchor="start" x="5.5" y="-575" font-family="Times New Roman,serif" font-size="14.00">&#45; &#160;&#160;state: GameState [0..1]</text>
<text text-anchor="start" x="5.44" y="-551" font-family="Times New Roman,serif" font-size="14.00">+ build(plan: CraftingPlan): GameResult</text>
<text text-anchor="start" x="5.5" y="-527" font-family="Times New Roman,serif" font-size="14.00">&#45; checkLose()</text>
<text text-anchor="start" x="5.5" y="-503" font-family="Times New Roman,serif" font-size="14.00">+ draw(): Card</text>
<text text-anchor="start" x="5.5" y="-479" font-family="Times New Roman,serif" font-size="14.00">&#45; endGameWith(result: GameResult)</text>
<text text-anchor="start" x="5.5" y="-455" font-family="Times New Roman,serif" font-size="14.00">+ listBuildings(): List&lt;Buildable&gt;</text>
<text text-anchor="start" x="5.5" y="-431" font-family="Times New Roman,serif" font-size="14.00">+ listResources(): List&lt;Resource&gt;</text>
<text text-anchor="start" x="5.5" y="-407" font-family="Times New Roman,serif" font-size="14.00">+ loadGame()</text>
<text text-anchor="start" x="5.5" y="-383" font-family="Times New Roman,serif" font-size="14.00">+ reset()</text>
<text text-anchor="start" x="5.5" y="-359" font-family="Times New Roman,serif" font-size="14.00">+ rollDx(roll: Roll): OutcomeType</text>
<text text-anchor="start" x="5.5" y="-335" font-family="Times New Roman,serif" font-size="14.00">+ saveGame()</text>
<text text-anchor="start" x="5.5" y="-311" font-family="Times New Roman,serif" font-size="14.00">+ showBuildables(): List&lt;CraftingPlan&gt;</text>
<text text-anchor="start" x="5.5" y="-287" font-family="Times New Roman,serif" font-size="14.00">+ start(deck: CardDeck)</text>
<polygon fill="black" stroke="black" points="0.5,-639.6 0.5,-639.6 239.5,-639.6 239.5,-639.6 0.5,-639.6"/>
<polygon fill="black" stroke="black" points="0.5,-567.6 0.5,-567.6 239.5,-567.6 239.5,-567.6 0.5,-567.6"/>
<polygon fill="none" stroke="black" points="0,-278.6 0,-664.6 239,-664.6 239,-278.6 0,-278.6"/>
</g>
<!-- PersistenceWriter1052887806 -->
<g id="node2" class="node">
<title>PersistenceWriter1052887806</title>
<polygon fill="#f1e5fd" stroke="transparent" points="196,-209 43,-209 43,-159 196,-159 196,-209"/>
<text text-anchor="start" x="48.5" y="-191.4" font-family="Times New Roman,serif" font-size="14.00">(I)PersistenceWriter</text>
<text text-anchor="start" x="48.03" y="-167.4" font-family="Times New Roman,serif" font-size="14.00">+ write(state: GameState)</text>
<polygon fill="black" stroke="black" points="43.5,-184 43.5,-184 196.5,-184 196.5,-184 43.5,-184"/>
<polygon fill="none" stroke="black" points="43,-159 43,-209 196,-209 196,-159 43,-159"/>
</g>
<!-- Game1052887806&#45;&gt;PersistenceWriter1052887806 -->
<g id="edge1" class="edge">
<title>Game1052887806&#45;&gt;PersistenceWriter1052887806</title>
<path fill="none" stroke="black" d="M119.5,-278.52C119.5,-256.22 119.5,-235.74 119.5,-219.68"/>
<polygon fill="black" stroke="black" points="123,-219.29 119.5,-209.29 116,-219.29 123,-219.29"/>
<text text-anchor="middle" x="134.66" y="-248" font-family="Times New Roman,serif" font-size="14.00">saver</text>
<text text-anchor="middle" x="134.66" y="-231.2" font-family="Times New Roman,serif" font-size="14.00">[0..1]</text>
</g>
<!-- SerializationFilePersistor1997518945 -->
<g id="node3" class="node">
<title>SerializationFilePersistor1997518945</title>
<polygon fill="#ffffff" stroke="transparent" points="204.5,-122 34.5,-122 34.5,0 204.5,0 204.5,-122"/>
<text text-anchor="start" x="39.41" y="-104.4" font-family="Times New Roman,serif" font-size="14.00">(C)SerializationFilePersistor</text>
<text text-anchor="start" x="39.5" y="-80.4" font-family="Times New Roman,serif" font-size="14.00">&#45; &#160;&#160;path: String [0..1]</text>
<text text-anchor="start" x="39.5" y="-56.4" font-family="Times New Roman,serif" font-size="14.00">+ path(): String</text>
<text text-anchor="start" x="39.5" y="-32.4" font-family="Times New Roman,serif" font-size="14.00">+ read(): GameState</text>
<text text-anchor="start" x="39.5" y="-8.4" font-family="Times New Roman,serif" font-size="14.00">+ write(state: GameState)</text>
<polygon fill="black" stroke="black" points="34.5,-97 34.5,-97 204.5,-97 204.5,-97 34.5,-97"/>
<polygon fill="black" stroke="black" points="34.5,-73 34.5,-73 204.5,-73 204.5,-73 34.5,-73"/>
<polygon fill="none" stroke="black" points="34.5,0 34.5,-122 204.5,-122 204.5,0 34.5,0"/>
</g>
<!-- PersistenceWriter1052887806&#45;&gt;SerializationFilePersistor1997518945 -->
<g id="edge2" class="edge">
<title>PersistenceWriter1052887806&#45;&gt;SerializationFilePersistor1997518945</title>
<path fill="none" stroke="black" d="M119.5,-148.78C119.5,-140.47 119.5,-131.34 119.5,-122.22"/>
<polygon fill="none" stroke="black" points="116,-148.8 119.5,-158.8 123,-148.8 116,-148.8"/>
</g>
</g>
</svg>
