<?xml version="1.0" encoding="UTF-8" standalone="no"?>
<!DOCTYPE svg PUBLIC "-//W3C//DTD SVG 1.1//EN"
 "http://www.w3.org/Graphics/SVG/1.1/DTD/svg11.dtd">
<!-- Generated by graphviz version 2.44.1 (20200629.0846)
 -->
<!-- Title: g Pages: 1 -->
<svg width="438pt" height="961pt"
 viewBox="0.00 0.00 438.00 960.60" xmlns="http://www.w3.org/2000/svg" xmlns:xlink="http://www.w3.org/1999/xlink">
<g id="graph0" class="graph" transform="scale(1 1) rotate(0) translate(4 956.6)">
<title>g</title>
<polygon fill="white" stroke="transparent" points="-4,4 -4,-956.6 434,-956.6 434,4 -4,4"/>
<!-- Game1052887806 -->
<g id="node1" class="node">
<title>Game1052887806</title>
<polygon fill="#ffffff" stroke="transparent" points="280.5,-952.6 41.5,-952.6 41.5,-566.6 280.5,-566.6 280.5,-952.6"/>
<text text-anchor="start" x="47" y="-935" font-family="Times New Roman,serif" font-size="14.00">(C)Game</text>
<text text-anchor="start" x="47" y="-911" font-family="Times New Roman,serif" font-size="14.00">&#45; &#160;&#160;loader: PersistenceReader [0..1]</text>
<text text-anchor="start" x="47" y="-887" font-family="Times New Roman,serif" font-size="14.00">&#45; &#160;&#160;saver: PersistenceWriter [0..1]</text>
<text text-anchor="start" x="47" y="-863" font-family="Times New Roman,serif" font-size="14.00">&#45; &#160;&#160;state: GameState [0..1]</text>
<text text-anchor="start" x="46.94" y="-839" font-family="Times New Roman,serif" font-size="14.00">+ build(plan: CraftingPlan): GameResult</text>
<text text-anchor="start" x="47" y="-815" font-family="Times New Roman,serif" font-size="14.00">&#45; checkLose()</text>
<text text-anchor="start" x="47" y="-791" font-family="Times New Roman,serif" font-size="14.00">+ draw(): Card</text>
<text text-anchor="start" x="47" y="-767" font-family="Times New Roman,serif" font-size="14.00">&#45; endGameWith(result: GameResult)</text>
<text text-anchor="start" x="47" y="-743" font-family="Times New Roman,serif" font-size="14.00">+ listBuildings(): List&lt;Buildable&gt;</text>
<text text-anchor="start" x="47" y="-719" font-family="Times New Roman,serif" font-size="14.00">+ listResources(): List&lt;Resource&gt;</text>
<text text-anchor="start" x="47" y="-695" font-family="Times New Roman,serif" font-size="14.00">+ loadGame()</text>
<text text-anchor="start" x="47" y="-671" font-family="Times New Roman,serif" font-size="14.00">+ reset()</text>
<text text-anchor="start" x="47" y="-647" font-family="Times New Roman,serif" font-size="14.00">+ rollDx(roll: Roll): OutcomeType</text>
<text text-anchor="start" x="47" y="-623" font-family="Times New Roman,serif" font-size="14.00">+ saveGame()</text>
<text text-anchor="start" x="47" y="-599" font-family="Times New Roman,serif" font-size="14.00">+ showBuildables(): List&lt;CraftingPlan&gt;</text>
<text text-anchor="start" x="47" y="-575" font-family="Times New Roman,serif" font-size="14.00">+ start(deck: CardDeck)</text>
<polygon fill="black" stroke="black" points="42,-927.6 42,-927.6 281,-927.6 281,-927.6 42,-927.6"/>
<polygon fill="black" stroke="black" points="42,-855.6 42,-855.6 281,-855.6 281,-855.6 42,-855.6"/>
<polygon fill="none" stroke="black" points="41.5,-566.6 41.5,-952.6 280.5,-952.6 280.5,-566.6 41.5,-566.6"/>
</g>
<!-- GameState1052887806 -->
<g id="node2" class="node">
<title>GameState1052887806</title>
<polygon fill="#ffffff" stroke="transparent" points="264,-497 0,-497 0,-159 264,-159 264,-497"/>
<text text-anchor="start" x="5" y="-479.4" font-family="Times New Roman,serif" font-size="14.00">(C)GameState</text>
<text text-anchor="start" x="5" y="-455.4" font-family="Times New Roman,serif" font-size="14.00">&#45; &#160;&#160;camp: Camp [0..1]</text>
<text text-anchor="start" x="5" y="-431.4" font-family="Times New Roman,serif" font-size="14.00">&#45; &#160;&#160;deck: CardDeck [0..1]</text>
<text text-anchor="start" x="5" y="-407.4" font-family="Times New Roman,serif" font-size="14.00">&#45; &#160;&#160;invalidator: CardInvalidator [0..1]</text>
<text text-anchor="start" x="4.57" y="-383.4" font-family="Times New Roman,serif" font-size="14.00">&#45; &#160;&#160;observers: List&lt;GameEndObserver&gt; [0..*]</text>
<text text-anchor="start" x="5" y="-359.4" font-family="Times New Roman,serif" font-size="14.00">&#45; &#160;&#160;phase: GamePhase [0..1]</text>
<text text-anchor="start" x="5" y="-335.4" font-family="Times New Roman,serif" font-size="14.00">&#45; &#160;&#160;result: GameResult [0..1]</text>
<text text-anchor="start" x="5" y="-311.4" font-family="Times New Roman,serif" font-size="14.00">&#45; &#160;&#160;status: GameStatus [0..1]</text>
<text text-anchor="start" x="5" y="-287.4" font-family="Times New Roman,serif" font-size="14.00">&#45; &#160;&#160;uuid: UUID [0..1]</text>
<text text-anchor="start" x="5" y="-263.4" font-family="Times New Roman,serif" font-size="14.00">+ reinitialize(): GameState</text>
<text text-anchor="start" x="5" y="-239.4" font-family="Times New Roman,serif" font-size="14.00">+ notifyObservers(newState: GameResult)</text>
<text text-anchor="start" x="5" y="-215.4" font-family="Times New Roman,serif" font-size="14.00">+ register(observer: GameEndObserver)</text>
<text text-anchor="start" x="5" y="-191.4" font-family="Times New Roman,serif" font-size="14.00">+ @Override hashCode(): int</text>
<text text-anchor="start" x="5" y="-167.4" font-family="Times New Roman,serif" font-size="14.00">+ @Override equals(): boolean</text>
<polygon fill="black" stroke="black" points="0,-472 0,-472 264,-472 264,-472 0,-472"/>
<polygon fill="black" stroke="black" points="0,-280 0,-280 264,-280 264,-280 0,-280"/>
<polygon fill="none" stroke="black" points="0,-159 0,-497 264,-497 264,-159 0,-159"/>
</g>
<!-- Game1052887806&#45;&gt;GameState1052887806 -->
<g id="edge2" class="edge">
<title>Game1052887806&#45;&gt;GameState1052887806</title>
<path fill="none" stroke="black" d="M148.03,-566.42C146.7,-546.73 145.35,-526.78 144.03,-507.25"/>
<polygon fill="black" stroke="black" points="147.51,-506.82 143.35,-497.08 140.53,-507.29 147.51,-506.82"/>
<text text-anchor="middle" x="164.49" y="-536" font-family="Times New Roman,serif" font-size="14.00">loader</text>
<text text-anchor="middle" x="164.49" y="-519.2" font-family="Times New Roman,serif" font-size="14.00">[0..1]</text>
</g>
<!-- PersistenceReader1052887806 -->
<g id="node3" class="node">
<title>PersistenceReader1052887806</title>
<polygon fill="#f1e5fd" stroke="transparent" points="408,-353 282,-353 282,-303 408,-303 408,-353"/>
<text text-anchor="start" x="286.7" y="-335.4" font-family="Times New Roman,serif" font-size="14.00">(I)PersistenceReader</text>
<text text-anchor="start" x="287" y="-311.4" font-family="Times New Roman,serif" font-size="14.00">+ read(): GameState</text>
<polygon fill="black" stroke="black" points="282,-328 282,-328 408,-328 408,-328 282,-328"/>
<polygon fill="none" stroke="black" points="282,-303 282,-353 408,-353 408,-303 282,-303"/>
</g>
<!-- Game1052887806&#45;&gt;PersistenceReader1052887806 -->
<g id="edge1" class="edge">
<title>Game1052887806&#45;&gt;PersistenceReader1052887806</title>
<path fill="none" stroke="black" d="M243.31,-566.42C276.58,-488.74 311.56,-407.07 330.58,-362.66"/>
<polygon fill="black" stroke="black" points="333.9,-363.81 334.62,-353.24 327.47,-361.05 333.9,-363.81"/>
<text text-anchor="middle" x="281.49" y="-536" font-family="Times New Roman,serif" font-size="14.00">loader</text>
<text text-anchor="middle" x="281.49" y="-519.2" font-family="Times New Roman,serif" font-size="14.00">[0..1]</text>
</g>
<!-- SerializationFilePersistor1997518945 -->
<g id="node4" class="node">
<title>SerializationFilePersistor1997518945</title>
<polygon fill="#ffffff" stroke="transparent" points="430,-122 260,-122 260,0 430,0 430,-122"/>
<text text-anchor="start" x="264.91" y="-104.4" font-family="Times New Roman,serif" font-size="14.00">(C)SerializationFilePersistor</text>
<text text-anchor="start" x="265" y="-80.4" font-family="Times New Roman,serif" font-size="14.00">&#45; &#160;&#160;path: String [0..1]</text>
<text text-anchor="start" x="265" y="-56.4" font-family="Times New Roman,serif" font-size="14.00">+ path(): String</text>
<text text-anchor="start" x="265" y="-32.4" font-family="Times New Roman,serif" font-size="14.00">+ read(): GameState</text>
<text text-anchor="start" x="265" y="-8.4" font-family="Times New Roman,serif" font-size="14.00">+ write(state: GameState)</text>
<polygon fill="black" stroke="black" points="260,-97 260,-97 430,-97 430,-97 260,-97"/>
<polygon fill="black" stroke="black" points="260,-73 260,-73 430,-73 430,-73 260,-73"/>
<polygon fill="none" stroke="black" points="260,0 260,-122 430,-122 430,0 260,0"/>
</g>
<!-- PersistenceReader1052887806&#45;&gt;SerializationFilePersistor1997518945 -->
<g id="edge3" class="edge">
<title>PersistenceReader1052887806&#45;&gt;SerializationFilePersistor1997518945</title>
<path fill="none" stroke="black" d="M345,-292.27C345,-249.09 345,-174.68 345,-122.15"/>
<polygon fill="none" stroke="black" points="341.5,-292.54 345,-302.54 348.5,-292.54 341.5,-292.54"/>
</g>
</g>
</svg>
