<?xml version="1.0" encoding="UTF-8" standalone="no"?>
<!DOCTYPE svg PUBLIC "-//W3C//DTD SVG 1.1//EN"
 "http://www.w3.org/Graphics/SVG/1.1/DTD/svg11.dtd">
<!-- Generated by graphviz version 2.44.1 (20200629.0846)
 -->
<!-- Title: g Pages: 1 -->
<svg width="394pt" height="416pt"
 viewBox="0.00 0.00 394.00 415.80" xmlns="http://www.w3.org/2000/svg" xmlns:xlink="http://www.w3.org/1999/xlink">
<g id="graph0" class="graph" transform="scale(1 1) rotate(0) translate(4 411.8)">
<title>g</title>
<polygon fill="white" stroke="transparent" points="-4,4 -4,-411.8 390,-411.8 390,4 -4,4"/>
<!-- GuaranteedRescue1135820194 -->
<g id="node1" class="node">
<title>GuaranteedRescue1135820194</title>
<polygon fill="#ffffff" stroke="transparent" points="184,-98 0,-98 0,0 184,0 184,-98"/>
<text text-anchor="start" x="5" y="-80.4" font-family="Times New Roman,serif" font-size="14.00">(C)GuaranteedRescue</text>
<text text-anchor="start" x="5" y="-56.4" font-family="Times New Roman,serif" font-size="14.00">&#45; &#160;&#160;plan: CraftingPlan [0..1]</text>
<text text-anchor="start" x="4.66" y="-32.4" font-family="Times New Roman,serif" font-size="14.00">+ endeavor(roll: Roll): boolean</text>
<text text-anchor="start" x="5" y="-8.4" font-family="Times New Roman,serif" font-size="14.00">+ plan(): CraftingPlan</text>
<polygon fill="black" stroke="black" points="0,-73 0,-73 184,-73 184,-73 0,-73"/>
<polygon fill="black" stroke="black" points="0,-49 0,-49 184,-49 184,-49 0,-49"/>
<polygon fill="none" stroke="black" points="0,0 0,-98 184,-98 184,0 0,0"/>
</g>
<!-- PossibleRescue1135820194 -->
<g id="node2" class="node">
<title>PossibleRescue1135820194</title>
<polygon fill="#ffffff" stroke="transparent" points="386,-98 202,-98 202,0 386,0 386,-98"/>
<text text-anchor="start" x="207" y="-80.4" font-family="Times New Roman,serif" font-size="14.00">(C)PossibleRescue</text>
<text text-anchor="start" x="207" y="-56.4" font-family="Times New Roman,serif" font-size="14.00">&#45; &#160;&#160;plan: CraftingPlan [0..1]</text>
<text text-anchor="start" x="206.66" y="-32.4" font-family="Times New Roman,serif" font-size="14.00">+ endeavor(roll: Roll): boolean</text>
<text text-anchor="start" x="207" y="-8.4" font-family="Times New Roman,serif" font-size="14.00">+ plan(): CraftingPlan</text>
<polygon fill="black" stroke="black" points="202,-73 202,-73 386,-73 386,-73 202,-73"/>
<polygon fill="black" stroke="black" points="202,-49 202,-49 386,-49 386,-49 202,-49"/>
<polygon fill="none" stroke="black" points="202,0 202,-98 386,-98 386,0 202,0"/>
</g>
<!-- Rescue1135820194 -->
<g id="node3" class="node">
<title>Rescue1135820194</title>
<polygon fill="#f1e5fd" stroke="transparent" points="285,-185 101,-185 101,-135 285,-135 285,-185"/>
<text text-anchor="start" x="106" y="-167.4" font-family="Times New Roman,serif" font-size="14.00">(I)Rescue</text>
<text text-anchor="start" x="105.66" y="-143.4" font-family="Times New Roman,serif" font-size="14.00">+ endeavor(roll: Roll): boolean</text>
<polygon fill="black" stroke="black" points="101,-160 101,-160 285,-160 285,-160 101,-160"/>
<polygon fill="none" stroke="black" points="101,-135 101,-185 285,-185 285,-135 101,-135"/>
</g>
<!-- Rescue1135820194&#45;&gt;GuaranteedRescue1135820194 -->
<g id="edge1" class="edge">
<title>Rescue1135820194&#45;&gt;GuaranteedRescue1135820194</title>
<path fill="none" stroke="black" d="M163.74,-127.43C155.29,-118.31 145.88,-108.14 136.71,-98.26"/>
<polygon fill="none" stroke="black" points="161.22,-129.85 170.58,-134.81 166.36,-125.1 161.22,-129.85"/>
</g>
<!-- Rescue1135820194&#45;&gt;PossibleRescue1135820194 -->
<g id="edge2" class="edge">
<title>Rescue1135820194&#45;&gt;PossibleRescue1135820194</title>
<path fill="none" stroke="black" d="M222.26,-127.43C230.71,-118.31 240.12,-108.14 249.29,-98.26"/>
<polygon fill="none" stroke="black" points="219.64,-125.1 215.42,-134.81 224.78,-129.85 219.64,-125.1"/>
</g>
<!-- RollHandler1052887806 -->
<g id="node4" class="node">
<title>RollHandler1052887806</title>
<polygon fill="#ffffff" stroke="transparent" points="345,-407.8 41,-407.8 41,-237.8 345,-237.8 345,-407.8"/>
<text text-anchor="start" x="46" y="-390.2" font-family="Times New Roman,serif" font-size="14.00">(C)RollHandler</text>
<text text-anchor="start" x="46" y="-366.2" font-family="Times New Roman,serif" font-size="14.00">&#45; &#160;&#160;camp: Camp [0..1]</text>
<text text-anchor="start" x="46" y="-342.2" font-family="Times New Roman,serif" font-size="14.00">&#45; &#160;&#160;lastCard: Card [0..1]</text>
<text text-anchor="start" x="46" y="-318.2" font-family="Times New Roman,serif" font-size="14.00">&#45; &#160;&#160;outcome: OutcomeType [0..1]</text>
<text text-anchor="start" x="46" y="-294.2" font-family="Times New Roman,serif" font-size="14.00">&#45; encounter(roll: Roll)</text>
<text text-anchor="start" x="46" y="-270.2" font-family="Times New Roman,serif" font-size="14.00">&#45; endeavor(roll: Roll): GamePhase</text>
<text text-anchor="start" x="45.6" y="-246.2" font-family="Times New Roman,serif" font-size="14.00">+ handle(phase: GamePhase, roll: Roll): GamePhase</text>
<polygon fill="black" stroke="black" points="41,-382.8 41,-382.8 345,-382.8 345,-382.8 41,-382.8"/>
<polygon fill="black" stroke="black" points="41,-310.8 41,-310.8 345,-310.8 345,-310.8 41,-310.8"/>
<polygon fill="none" stroke="black" points="41,-237.8 41,-407.8 345,-407.8 345,-237.8 41,-237.8"/>
</g>
<!-- RollHandler1052887806&#45;&gt;Rescue1135820194 -->
<g id="edge3" class="edge">
<title>RollHandler1052887806&#45;&gt;Rescue1135820194</title>
<path fill="none" stroke="black" d="M193,-237.63C193,-222.7 193,-207.95 193,-195.43"/>
<polygon fill="black" stroke="black" points="196.5,-195.06 193,-185.06 189.5,-195.06 196.5,-195.06"/>
<text text-anchor="middle" x="263.4" y="-207.2" font-family="Times New Roman,serif" font-size="14.00">endeavor() &#45;&gt; endeavor()</text>
</g>
</g>
</svg>
