<?xml version="1.0" encoding="UTF-8" standalone="no"?>
<!DOCTYPE svg PUBLIC "-//W3C//DTD SVG 1.1//EN"
 "http://www.w3.org/Graphics/SVG/1.1/DTD/svg11.dtd">
<!-- Generated by graphviz version 2.44.1 (20200629.0846)
 -->
<!-- Title: g Pages: 1 -->
<svg width="814pt" height="281pt"
 viewBox="0.00 0.00 814.00 280.80" xmlns="http://www.w3.org/2000/svg" xmlns:xlink="http://www.w3.org/1999/xlink">
<g id="graph0" class="graph" transform="scale(1 1) rotate(0) translate(4 276.8)">
<title>g</title>
<polygon fill="white" stroke="transparent" points="-4,4 -4,-276.8 810,-276.8 810,4 -4,4"/>
<!-- Rescue1135820194 -->
<g id="node1" class="node">
<title>Rescue1135820194</title>
<polygon fill="#f1e5fd" stroke="transparent" points="184,-236.8 0,-236.8 0,-186.8 184,-186.8 184,-236.8"/>
<text text-anchor="start" x="5" y="-219.2" font-family="Times New Roman,serif" font-size="14.00">(I)Rescue</text>
<text text-anchor="start" x="4.66" y="-195.2" font-family="Times New Roman,serif" font-size="14.00">+ endeavor(roll: Roll): boolean</text>
<polygon fill="black" stroke="black" points="0,-211.8 0,-211.8 184,-211.8 184,-211.8 0,-211.8"/>
<polygon fill="none" stroke="black" points="0,-186.8 0,-236.8 184,-236.8 184,-186.8 0,-186.8"/>
</g>
<!-- RescueMock1052887806 -->
<g id="node2" class="node">
<title>RescueMock1052887806</title>
<polygon fill="#ffffff" stroke="transparent" points="436.5,-98 159.5,-98 159.5,0 436.5,0 436.5,-98"/>
<text text-anchor="start" x="165" y="-80.4" font-family="Times New Roman,serif" font-size="14.00">(C)RescueMock</text>
<text text-anchor="start" x="165" y="-56.4" font-family="Times New Roman,serif" font-size="14.00">&#45; &#160;&#160;endeavorReturnValue: boolean [1]</text>
<text text-anchor="start" x="164.78" y="-32.4" font-family="Times New Roman,serif" font-size="14.00"># RescueMock(endeavorReturnValue: boolean)</text>
<text text-anchor="start" x="165" y="-8.4" font-family="Times New Roman,serif" font-size="14.00">+ endeavor(roll: Roll): boolean</text>
<polygon fill="black" stroke="black" points="160,-73 160,-73 437,-73 437,-73 160,-73"/>
<polygon fill="black" stroke="black" points="160,-49 160,-49 437,-49 437,-49 160,-49"/>
<polygon fill="none" stroke="black" points="159.5,0 159.5,-98 436.5,-98 436.5,0 159.5,0"/>
</g>
<!-- Rescue1135820194&#45;&gt;RescueMock1052887806 -->
<g id="edge1" class="edge">
<title>Rescue1135820194&#45;&gt;RescueMock1052887806</title>
<path fill="none" stroke="black" d="M130.88,-180.45C160.56,-157.29 202.02,-124.92 236.23,-98.22"/>
<polygon fill="none" stroke="black" points="128.57,-177.81 122.84,-186.73 132.88,-183.33 128.57,-177.81"/>
</g>
<!-- RollHandlerTest1052887806 -->
<g id="node3" class="node">
<title>RollHandlerTest1052887806</title>
<polygon fill="#ffffff" stroke="transparent" points="806,-272.8 202,-272.8 202,-150.8 806,-150.8 806,-272.8"/>
<text text-anchor="start" x="207" y="-255.2" font-family="Times New Roman,serif" font-size="14.00">(C)RollHandlerTest</text>
<text text-anchor="start" x="207" y="-231.2" font-family="Times New Roman,serif" font-size="14.00"># encounter(bonusDamage: int, card: Card, roll: Roll, expectedOutcome: OutcomeType)</text>
<text text-anchor="start" x="207" y="-207.2" font-family="Times New Roman,serif" font-size="14.00">&#45; encounter(): List&lt;Arguments&gt;</text>
<text text-anchor="start" x="206.63" y="-183.2" font-family="Times New Roman,serif" font-size="14.00"># endeavor(rescueSuccess: boolean, expectedOutcome: OutcomeType, expectedGamePhase: GamePhase)</text>
<text text-anchor="start" x="207" y="-159.2" font-family="Times New Roman,serif" font-size="14.00">&#45; endeavor(): List&lt;Arguments&gt;</text>
<polygon fill="black" stroke="black" points="202,-247.8 202,-247.8 806,-247.8 806,-247.8 202,-247.8"/>
<polygon fill="none" stroke="black" points="202,-150.8 202,-272.8 806,-272.8 806,-150.8 202,-150.8"/>
</g>
<!-- RollHandlerTest1052887806&#45;&gt;RescueMock1052887806 -->
<g id="edge2" class="edge">
<title>RollHandlerTest1052887806&#45;&gt;RescueMock1052887806</title>
<path fill="none" stroke="black" d="M427,-150.7C407.6,-135.55 386.89,-119.38 367.86,-104.53"/>
<polygon fill="black" stroke="black" points="369.85,-101.65 359.82,-98.25 365.55,-107.17 369.85,-101.65"/>
<text text-anchor="middle" x="482.29" y="-120.2" font-family="Times New Roman,serif" font-size="14.00">endeavor() &#45;&gt; RescueMock()</text>
</g>
</g>
</svg>
