<?xml version="1.0" encoding="UTF-8" standalone="no"?>
<!DOCTYPE svg PUBLIC "-//W3C//DTD SVG 1.1//EN"
 "http://www.w3.org/Graphics/SVG/1.1/DTD/svg11.dtd">
<!-- Generated by graphviz version 2.44.1 (20200629.0846)
 -->
<!-- Title: g Pages: 1 -->
<svg width="487pt" height="729pt"
 viewBox="0.00 0.00 486.50 729.20" xmlns="http://www.w3.org/2000/svg" xmlns:xlink="http://www.w3.org/1999/xlink">
<g id="graph0" class="graph" transform="scale(1 1) rotate(0) translate(4 725.2)">
<title>g</title>
<polygon fill="white" stroke="transparent" points="-4,4 -4,-725.2 482.5,-725.2 482.5,4 -4,4"/>
<!-- CraftingPlan1135820194 -->
<g id="node1" class="node">
<title>CraftingPlan1135820194</title>
<polygon fill="#dcfbd5" stroke="transparent" points="297,-721.2 0,-721.2 0,-407.2 297,-407.2 297,-721.2"/>
<text text-anchor="start" x="5.5" y="-703.6" font-family="Times New Roman,serif" font-size="14.00">(E)CraftingPlan</text>
<text text-anchor="start" x="5.5" y="-679.6" font-family="Times New Roman,serif" font-size="14.00">+ &#160;&#160;AXE: CraftingPlan [1]</text>
<text text-anchor="start" x="5.5" y="-655.6" font-family="Times New Roman,serif" font-size="14.00">+ &#160;&#160;BALLON: CraftingPlan [1]</text>
<text text-anchor="start" x="5.5" y="-631.6" font-family="Times New Roman,serif" font-size="14.00">+ &#160;&#160;CLUB: CraftingPlan [1]</text>
<text text-anchor="start" x="5.5" y="-607.6" font-family="Times New Roman,serif" font-size="14.00">+ &#160;&#160;FIREPLACE: CraftingPlan [1]</text>
<text text-anchor="start" x="5.5" y="-583.6" font-family="Times New Roman,serif" font-size="14.00">+ &#160;&#160;HANGGLIDER: CraftingPlan [1]</text>
<text text-anchor="start" x="5.5" y="-559.6" font-family="Times New Roman,serif" font-size="14.00">+ &#160;&#160;SAILINGRAFT: CraftingPlan [1]</text>
<text text-anchor="start" x="5.5" y="-535.6" font-family="Times New Roman,serif" font-size="14.00">+ &#160;&#160;SHACK: CraftingPlan [1]</text>
<text text-anchor="start" x="5.5" y="-511.6" font-family="Times New Roman,serif" font-size="14.00">+ &#160;&#160;STEAMBOAT: CraftingPlan [1]</text>
<text text-anchor="start" x="5.5" y="-487.6" font-family="Times New Roman,serif" font-size="14.00">&#45; &#160;&#160;category: BuildableCategory [0..1]</text>
<text text-anchor="start" x="5.24" y="-463.6" font-family="Times New Roman,serif" font-size="14.00">&#45; &#160;&#160;requirements: Set&lt;ResourceRequirement&gt; [0..*]</text>
<text text-anchor="start" x="5.5" y="-439.6" font-family="Times New Roman,serif" font-size="14.00">&#45; &#160;&#160;requiresFireplace: boolean [1]</text>
<text text-anchor="start" x="5.5" y="-415.6" font-family="Times New Roman,serif" font-size="14.00">+ requiresFireplace(): boolean</text>
<polygon fill="black" stroke="black" points="0.5,-696.2 0.5,-696.2 297.5,-696.2 297.5,-696.2 0.5,-696.2"/>
<polygon fill="black" stroke="black" points="0.5,-432.2 0.5,-432.2 297.5,-432.2 297.5,-432.2 0.5,-432.2"/>
<polygon fill="none" stroke="black" points="0,-407.2 0,-721.2 297,-721.2 297,-407.2 0,-407.2"/>
</g>
<!-- ResourceRequirement1135820194 -->
<g id="node5" class="node">
<title>ResourceRequirement1135820194</title>
<polygon fill="#ffffff" stroke="transparent" points="374.5,-337.6 152.5,-337.6 152.5,-191.6 374.5,-191.6 374.5,-337.6"/>
<text text-anchor="start" x="157.5" y="-320" font-family="Times New Roman,serif" font-size="14.00">(C)ResourceRequirement</text>
<text text-anchor="start" x="157.18" y="-296" font-family="Times New Roman,serif" font-size="14.00">&#45; &#160;&#160;amount: NonNegativeInteger [0..1]</text>
<text text-anchor="start" x="157.5" y="-272" font-family="Times New Roman,serif" font-size="14.00">&#45; &#160;&#160;resource: Resource [0..1]</text>
<text text-anchor="start" x="157.5" y="-248" font-family="Times New Roman,serif" font-size="14.00">+ amount(): NonNegativeInteger</text>
<text text-anchor="start" x="157.33" y="-224" font-family="Times New Roman,serif" font-size="14.00">+ refabricate(): ResourceRequirement</text>
<text text-anchor="start" x="157.5" y="-200" font-family="Times New Roman,serif" font-size="14.00">+ resource(): Resource</text>
<polygon fill="black" stroke="black" points="152.5,-312.6 152.5,-312.6 374.5,-312.6 374.5,-312.6 152.5,-312.6"/>
<polygon fill="black" stroke="black" points="152.5,-264.6 152.5,-264.6 374.5,-264.6 374.5,-264.6 152.5,-264.6"/>
<polygon fill="none" stroke="black" points="152.5,-191.6 152.5,-337.6 374.5,-337.6 374.5,-191.6 152.5,-191.6"/>
</g>
<!-- CraftingPlan1135820194&#45;&gt;ResourceRequirement1135820194 -->
<g id="edge1" class="edge">
<title>CraftingPlan1135820194&#45;&gt;ResourceRequirement1135820194</title>
<path fill="none" stroke="black" d="M208.86,-406.99C216.81,-386.44 224.68,-366.07 231.86,-347.47"/>
<polygon fill="black" stroke="black" points="235.22,-348.5 235.56,-337.91 228.69,-345.98 235.22,-348.5"/>
<text text-anchor="middle" x="263.04" y="-376.6" font-family="Times New Roman,serif" font-size="14.00">requirements</text>
<text text-anchor="middle" x="263.04" y="-359.8" font-family="Times New Roman,serif" font-size="14.00">[0..*]</text>
</g>
<!-- NonNegativeInteger970673240 -->
<g id="node2" class="node">
<title>NonNegativeInteger970673240</title>
<polygon fill="#ffffff" stroke="transparent" points="252.5,-110 54.5,-110 54.5,-12 252.5,-12 252.5,-110"/>
<text text-anchor="start" x="59.5" y="-92.4" font-family="Times New Roman,serif" font-size="14.00">(C)NonNegativeInteger</text>
<text text-anchor="start" x="59.5" y="-68.4" font-family="Times New Roman,serif" font-size="14.00">&#45; &#160;&#160;value: int [1]</text>
<text text-anchor="start" x="59.17" y="-44.4" font-family="Times New Roman,serif" font-size="14.00">+ add(i: int): NonNegativeInteger</text>
<text text-anchor="start" x="59.5" y="-20.4" font-family="Times New Roman,serif" font-size="14.00">+ value(): int</text>
<polygon fill="black" stroke="black" points="54.5,-85 54.5,-85 252.5,-85 252.5,-85 54.5,-85"/>
<polygon fill="black" stroke="black" points="54.5,-61 54.5,-61 252.5,-61 252.5,-61 54.5,-61"/>
<polygon fill="none" stroke="black" points="54.5,-12 54.5,-110 252.5,-110 252.5,-12 54.5,-12"/>
</g>
<!-- Refabricatable970673240 -->
<g id="node3" class="node">
<title>Refabricatable970673240</title>
<polygon fill="#f1e5fd" stroke="transparent" points="444,-589.2 315,-589.2 315,-539.2 444,-539.2 444,-589.2"/>
<text text-anchor="start" x="320.03" y="-571.6" font-family="Times New Roman,serif" font-size="14.00">(I)Refabricatable&lt;T&gt;</text>
<text text-anchor="start" x="320.5" y="-547.6" font-family="Times New Roman,serif" font-size="14.00">+ refabricate(): T</text>
<polygon fill="black" stroke="black" points="315.5,-564.2 315.5,-564.2 444.5,-564.2 444.5,-564.2 315.5,-564.2"/>
<polygon fill="none" stroke="black" points="315,-539.2 315,-589.2 444,-589.2 444,-539.2 315,-539.2"/>
</g>
<!-- Refabricatable970673240&#45;&gt;ResourceRequirement1135820194 -->
<g id="edge2" class="edge">
<title>Refabricatable970673240&#45;&gt;ResourceRequirement1135820194</title>
<path fill="none" stroke="black" d="M367.11,-529.37C345.58,-470.53 303.5,-355.6 303.5,-355.6 303.5,-355.6 300.25,-348.28 295.6,-337.82"/>
<polygon fill="none" stroke="black" points="363.91,-530.79 370.63,-538.98 370.48,-528.39 363.91,-530.79"/>
</g>
<!-- Resource1135820194 -->
<g id="node4" class="node">
<title>Resource1135820194</title>
<polygon fill="#dcfbd5" stroke="transparent" points="478.5,-122 270.5,-122 270.5,0 478.5,0 478.5,-122"/>
<text text-anchor="start" x="275.5" y="-104.4" font-family="Times New Roman,serif" font-size="14.00">(E)Resource</text>
<text text-anchor="start" x="275.5" y="-80.4" font-family="Times New Roman,serif" font-size="14.00">+ &#160;&#160;METAL: Resource [1]</text>
<text text-anchor="start" x="275.49" y="-56.4" font-family="Times New Roman,serif" font-size="14.00">+ &#160;&#160;NO_RESOURCE: Resource [1]</text>
<text text-anchor="start" x="275.5" y="-32.4" font-family="Times New Roman,serif" font-size="14.00">+ &#160;&#160;PLASTIC: Resource [1]</text>
<text text-anchor="start" x="275.5" y="-8.4" font-family="Times New Roman,serif" font-size="14.00">+ &#160;&#160;WOOD: Resource [1]</text>
<polygon fill="black" stroke="black" points="270.5,-97 270.5,-97 478.5,-97 478.5,-97 270.5,-97"/>
<polygon fill="none" stroke="black" points="270.5,0 270.5,-122 478.5,-122 478.5,0 270.5,0"/>
</g>
<!-- ResourceRequirement1135820194&#45;&gt;NonNegativeInteger970673240 -->
<g id="edge3" class="edge">
<title>ResourceRequirement1135820194&#45;&gt;NonNegativeInteger970673240</title>
<path fill="none" stroke="black" d="M224.1,-191.39C211.15,-167.65 196.94,-141.62 184.69,-119.16"/>
<polygon fill="black" stroke="black" points="187.61,-117.2 179.74,-110.1 181.46,-120.55 187.61,-117.2"/>
<text text-anchor="middle" x="233.5" y="-161" font-family="Times New Roman,serif" font-size="14.00">amount</text>
<text text-anchor="middle" x="233.5" y="-144.2" font-family="Times New Roman,serif" font-size="14.00">[1]</text>
</g>
<!-- ResourceRequirement1135820194&#45;&gt;Resource1135820194 -->
<g id="edge4" class="edge">
<title>ResourceRequirement1135820194&#45;&gt;Resource1135820194</title>
<path fill="none" stroke="black" d="M303.26,-191.39C314.1,-171.69 325.82,-150.41 336.56,-130.91"/>
<polygon fill="black" stroke="black" points="339.66,-132.53 341.42,-122.08 333.53,-129.16 339.66,-132.53"/>
<text text-anchor="middle" x="352.2" y="-161" font-family="Times New Roman,serif" font-size="14.00">resource</text>
<text text-anchor="middle" x="352.2" y="-144.2" font-family="Times New Roman,serif" font-size="14.00">[1]</text>
</g>
</g>
</svg>
