<?xml version="1.0" encoding="UTF-8" standalone="no"?>
<!DOCTYPE svg PUBLIC "-//W3C//DTD SVG 1.1//EN"
 "http://www.w3.org/Graphics/SVG/1.1/DTD/svg11.dtd">
<!-- Generated by graphviz version 2.44.1 (20200629.0846)
 -->
<!-- Title: g Pages: 1 -->
<svg width="997pt" height="1141pt"
 viewBox="0.00 0.00 997.00 1141.20" xmlns="http://www.w3.org/2000/svg" xmlns:xlink="http://www.w3.org/1999/xlink">
<g id="graph0" class="graph" transform="scale(1 1) rotate(0) translate(4 1137.2)">
<title>g</title>
<polygon fill="white" stroke="transparent" points="-4,4 -4,-1137.2 993,-1137.2 993,4 -4,4"/>
<g id="clust1" class="cluster">
<title>cluster_3082201</title>
<polygon fill="#ececec" stroke="black" points="8,-8 8,-1125.2 981,-1125.2 981,-8 8,-8"/>
<text text-anchor="middle" x="31.55" y="-1108.6" font-family="Times New Roman,serif" font-size="14.00">dhbw</text>
</g>
<g id="clust2" class="cluster">
<title>cluster_811044466</title>
<polygon fill="#d8d8d8" stroke="black" points="16,-16 16,-1092.4 973,-1092.4 973,-16 16,-16"/>
<text text-anchor="middle" x="50.04" y="-1075.8" font-family="Times New Roman,serif" font-size="14.00">karlsruhe</text>
</g>
<g id="clust3" class="cluster">
<title>cluster_68198893</title>
<polygon fill="#c4c4c4" stroke="black" points="24,-24 24,-1059.6 965,-1059.6 965,-24 24,-24"/>
<text text-anchor="middle" x="40.94" y="-1043" font-family="Times New Roman,serif" font-size="14.00">ase</text>
</g>
<g id="clust5" class="cluster">
<title>cluster_531869951</title>
<polygon fill="#bababa" stroke="black" points="32,-32 32,-1026.8 735,-1026.8 735,-32 32,-32"/>
<text text-anchor="middle" x="61" y="-1010.2" font-family="Times New Roman,serif" font-size="14.00">domain</text>
</g>
<g id="clust6" class="cluster">
<title>cluster_1227197999</title>
<polygon fill="#b0b0b0" stroke="black" points="40,-40 40,-994 727,-994 727,-40 40,-40"/>
<text text-anchor="middle" x="69.77" y="-977.4" font-family="Times New Roman,serif" font-size="14.00">crafting</text>
</g>
<g id="clust4" class="cluster">
<title>cluster_1799836341</title>
<polygon fill="#bababa" stroke="black" points="743,-64 743,-226.8 957,-226.8 957,-64 743,-64"/>
<text text-anchor="middle" x="781.71" y="-210.2" font-family="Times New Roman,serif" font-size="14.00">abstraction</text>
</g>
<!-- NonNegativeInteger970673240 -->
<g id="node1" class="node">
<title>NonNegativeInteger970673240</title>
<polygon fill="#ffffff" stroke="transparent" points="949,-194 751,-194 751,-72 949,-72 949,-194"/>
<text text-anchor="start" x="756" y="-176.4" font-family="Times New Roman,serif" font-size="14.00">(C)NonNegativeInteger</text>
<text text-anchor="start" x="756" y="-152.4" font-family="Times New Roman,serif" font-size="14.00">&#45; &#160;&#160;value: int [1]</text>
<text text-anchor="start" x="756" y="-128.4" font-family="Times New Roman,serif" font-size="14.00">+ NonNegativeInteger(value: int)</text>
<text text-anchor="start" x="755.67" y="-104.4" font-family="Times New Roman,serif" font-size="14.00">+ add(i: int): NonNegativeInteger</text>
<text text-anchor="start" x="756" y="-80.4" font-family="Times New Roman,serif" font-size="14.00">+ value(): int</text>
<polygon fill="black" stroke="black" points="751,-169 751,-169 949,-169 949,-169 751,-169"/>
<polygon fill="black" stroke="black" points="751,-145 751,-145 949,-145 949,-145 751,-145"/>
<polygon fill="none" stroke="black" points="751,-72 751,-194 949,-194 949,-72 751,-72"/>
</g>
<!-- Camp1135820194 -->
<g id="node2" class="node">
<title>Camp1135820194</title>
<polygon fill="#ffffff" stroke="transparent" points="718.5,-961.2 431.5,-961.2 431.5,-551.2 718.5,-551.2 718.5,-961.2"/>
<text text-anchor="start" x="437" y="-943.6" font-family="Times New Roman,serif" font-size="14.00">(C)Camp</text>
<text text-anchor="start" x="437" y="-919.6" font-family="Times New Roman,serif" font-size="14.00">&#45; &#160;&#160;constructed: Deque&lt;Buildable&gt; [0..*]</text>
<text text-anchor="start" x="437" y="-895.6" font-family="Times New Roman,serif" font-size="14.00">&#45; &#160;&#160;currentEndeavor: Rescue [0..1]</text>
<text text-anchor="start" x="437" y="-871.6" font-family="Times New Roman,serif" font-size="14.00">&#45; &#160;&#160;hasFireplace: boolean [1]</text>
<text text-anchor="start" x="437" y="-847.6" font-family="Times New Roman,serif" font-size="14.00">&#45; &#160;&#160;stash: ResourceStash [0..1]</text>
<text text-anchor="start" x="437" y="-823.6" font-family="Times New Roman,serif" font-size="14.00">&#45; &#160;&#160;strongestWeapon: Tool [0..1]</text>
<text text-anchor="start" x="437" y="-799.6" font-family="Times New Roman,serif" font-size="14.00">&#45; &#160;&#160;uuid: UUID [0..1]</text>
<text text-anchor="start" x="437" y="-775.6" font-family="Times New Roman,serif" font-size="14.00">&#45; &#160;&#160;workbench: Workbench [0..1]</text>
<text text-anchor="start" x="437" y="-751.6" font-family="Times New Roman,serif" font-size="14.00">+ Camp(uuid: UUID)</text>
<text text-anchor="start" x="437" y="-727.6" font-family="Times New Roman,serif" font-size="14.00">+ addResource(r: Resource)</text>
<text text-anchor="start" x="437" y="-703.6" font-family="Times New Roman,serif" font-size="14.00">+ build(plan: CraftingPlan): Buildable</text>
<text text-anchor="start" x="437" y="-679.6" font-family="Times New Roman,serif" font-size="14.00">+ canBuildAnything(): boolean</text>
<text text-anchor="start" x="437" y="-655.6" font-family="Times New Roman,serif" font-size="14.00">+ devastate()</text>
<text text-anchor="start" x="437" y="-631.6" font-family="Times New Roman,serif" font-size="14.00">+ listConstructed(): List&lt;Buildable&gt;</text>
<text text-anchor="start" x="436.51" y="-607.6" font-family="Times New Roman,serif" font-size="14.00">+ listPossibleCraftingPlans(): List&lt;CraftingPlan&gt;</text>
<text text-anchor="start" x="437" y="-583.6" font-family="Times New Roman,serif" font-size="14.00">+ ravage()</text>
<text text-anchor="start" x="437" y="-559.6" font-family="Times New Roman,serif" font-size="14.00">+ resources(): List&lt;Resource&gt;</text>
<polygon fill="black" stroke="black" points="432,-936.2 432,-936.2 719,-936.2 719,-936.2 432,-936.2"/>
<polygon fill="black" stroke="black" points="432,-768.2 432,-768.2 719,-768.2 719,-768.2 432,-768.2"/>
<polygon fill="none" stroke="black" points="431.5,-551.2 431.5,-961.2 718.5,-961.2 718.5,-551.2 431.5,-551.2"/>
</g>
<!-- ResourceStash1135820194 -->
<g id="node4" class="node">
<title>ResourceStash1135820194</title>
<polygon fill="#ffffff" stroke="transparent" points="719,-481.6 349,-481.6 349,-287.6 719,-287.6 719,-481.6"/>
<text text-anchor="start" x="354" y="-464" font-family="Times New Roman,serif" font-size="14.00">(C)ResourceStash</text>
<text text-anchor="start" x="354" y="-440" font-family="Times New Roman,serif" font-size="14.00">&#45; &#160;&#160;protectedResourcesCount: NonNegativeInteger [0..1]</text>
<text text-anchor="start" x="354" y="-416" font-family="Times New Roman,serif" font-size="14.00">&#45; &#160;&#160;stash: Deque&lt;Resource&gt; [0..*]</text>
<text text-anchor="start" x="354" y="-392" font-family="Times New Roman,serif" font-size="14.00">+ add(resource: Resource)</text>
<text text-anchor="start" x="354" y="-368" font-family="Times New Roman,serif" font-size="14.00">+ consumeResources(required: Set&lt;ResourceRequirement&gt;)</text>
<text text-anchor="start" x="354" y="-344" font-family="Times New Roman,serif" font-size="14.00">+ devastate()</text>
<text text-anchor="start" x="353.64" y="-320" font-family="Times New Roman,serif" font-size="14.00">+ hasResources(required: Set&lt;ResourceRequirement&gt;): boolean</text>
<text text-anchor="start" x="354" y="-296" font-family="Times New Roman,serif" font-size="14.00">+ protectTopMostNResources(n: NonNegativeInteger)</text>
<polygon fill="black" stroke="black" points="349,-456.6 349,-456.6 719,-456.6 719,-456.6 349,-456.6"/>
<polygon fill="black" stroke="black" points="349,-408.6 349,-408.6 719,-408.6 719,-408.6 349,-408.6"/>
<polygon fill="none" stroke="black" points="349,-287.6 349,-481.6 719,-481.6 719,-287.6 349,-287.6"/>
</g>
<!-- Camp1135820194&#45;&gt;ResourceStash1135820194 -->
<g id="edge1" class="edge">
<title>Camp1135820194&#45;&gt;ResourceStash1135820194</title>
<path fill="none" stroke="black" d="M552.34,-550.94C550.08,-530.56 547.86,-510.5 545.78,-491.77"/>
<polygon fill="black" stroke="black" points="549.25,-491.36 544.67,-481.8 542.3,-492.13 549.25,-491.36"/>
<text text-anchor="middle" x="564.16" y="-520.6" font-family="Times New Roman,serif" font-size="14.00">stash</text>
<text text-anchor="middle" x="564.16" y="-503.8" font-family="Times New Roman,serif" font-size="14.00">[0..1]</text>
</g>
<!-- Resource1135820194 -->
<g id="node3" class="node">
<title>Resource1135820194</title>
<polygon fill="#dcfbd5" stroke="transparent" points="638,-218 430,-218 430,-48 638,-48 638,-218"/>
<text text-anchor="start" x="435" y="-200.4" font-family="Times New Roman,serif" font-size="14.00">(E)Resource</text>
<text text-anchor="start" x="435" y="-176.4" font-family="Times New Roman,serif" font-size="14.00">+ &#160;&#160;METAL: Resource [1]</text>
<text text-anchor="start" x="434.99" y="-152.4" font-family="Times New Roman,serif" font-size="14.00">+ &#160;&#160;NO_RESOURCE: Resource [1]</text>
<text text-anchor="start" x="435" y="-128.4" font-family="Times New Roman,serif" font-size="14.00">+ &#160;&#160;PLASTIC: Resource [1]</text>
<text text-anchor="start" x="435" y="-104.4" font-family="Times New Roman,serif" font-size="14.00">+ &#160;&#160;WOOD: Resource [1]</text>
<text text-anchor="start" x="435" y="-80.4" font-family="Times New Roman,serif" font-size="14.00">+ valueOf(name: String): Resource</text>
<text text-anchor="start" x="435" y="-56.4" font-family="Times New Roman,serif" font-size="14.00">+ values(): Resource[]</text>
<polygon fill="black" stroke="black" points="430,-193 430,-193 638,-193 638,-193 430,-193"/>
<polygon fill="black" stroke="black" points="430,-97 430,-97 638,-97 638,-97 430,-97"/>
<polygon fill="none" stroke="black" points="430,-48 430,-218 638,-218 638,-48 430,-48"/>
</g>
<!-- ResourceStash1135820194&#45;&gt;NonNegativeInteger970673240 -->
<g id="edge2" class="edge">
<title>ResourceStash1135820194&#45;&gt;NonNegativeInteger970673240</title>
<path fill="none" stroke="black" d="M655.72,-287.46C692.42,-258.47 731.88,-227.3 765.59,-200.68"/>
<polygon fill="black" stroke="black" points="767.9,-203.31 773.58,-194.36 763.56,-197.82 767.9,-203.31"/>
<text text-anchor="middle" x="791.92" y="-257" font-family="Times New Roman,serif" font-size="14.00">protectedResourcesCount</text>
<text text-anchor="middle" x="791.92" y="-240.2" font-family="Times New Roman,serif" font-size="14.00">[0..1]</text>
</g>
<!-- ResourceStash1135820194&#45;&gt;Resource1135820194 -->
<g id="edge3" class="edge">
<title>ResourceStash1135820194&#45;&gt;Resource1135820194</title>
<path fill="none" stroke="black" d="M534,-287.46C534,-268.04 534,-247.65 534,-228.3"/>
<polygon fill="black" stroke="black" points="537.5,-228.29 534,-218.29 530.5,-228.29 537.5,-228.29"/>
<text text-anchor="middle" x="549.16" y="-257" font-family="Times New Roman,serif" font-size="14.00">stash</text>
<text text-anchor="middle" x="549.16" y="-240.2" font-family="Times New Roman,serif" font-size="14.00">[0..*]</text>
</g>
<!-- Workbench1135820194 -->
<g id="node5" class="node">
<title>Workbench1135820194</title>
<polygon fill="#ffffff" stroke="transparent" points="413.5,-853.2 48.5,-853.2 48.5,-659.2 413.5,-659.2 413.5,-853.2"/>
<text text-anchor="start" x="54" y="-835.6" font-family="Times New Roman,serif" font-size="14.00">(C)Workbench</text>
<text text-anchor="start" x="54" y="-811.6" font-family="Times New Roman,serif" font-size="14.00">&#45; &#160;&#160;stash: ResourceStash [0..1]</text>
<text text-anchor="start" x="54" y="-787.6" font-family="Times New Roman,serif" font-size="14.00">+ Workbench(stash: ResourceStash)</text>
<text text-anchor="start" x="54" y="-763.6" font-family="Times New Roman,serif" font-size="14.00">+ build(plan: CraftingPlan, hasFireplace: boolean): Buildable</text>
<text text-anchor="start" x="54" y="-739.6" font-family="Times New Roman,serif" font-size="14.00">&#45; build(plan: CraftingPlan): Buildable</text>
<text text-anchor="start" x="54" y="-715.6" font-family="Times New Roman,serif" font-size="14.00">&#45; canBuild(plan: CraftingPlan, hasFireplace: boolean): boolean</text>
<text text-anchor="start" x="53.85" y="-691.6" font-family="Times New Roman,serif" font-size="14.00">+ getCraftablePlans(hasFireplace: boolean): Set&lt;CraftingPlan&gt;</text>
<text text-anchor="start" x="54" y="-667.6" font-family="Times New Roman,serif" font-size="14.00">+ stash(): ResourceStash</text>
<polygon fill="black" stroke="black" points="49,-828.2 49,-828.2 414,-828.2 414,-828.2 49,-828.2"/>
<polygon fill="black" stroke="black" points="49,-804.2 49,-804.2 414,-804.2 414,-804.2 49,-804.2"/>
<polygon fill="none" stroke="black" points="48.5,-659.2 48.5,-853.2 413.5,-853.2 413.5,-659.2 48.5,-659.2"/>
</g>
<!-- Workbench1135820194&#45;&gt;ResourceStash1135820194 -->
<g id="edge4" class="edge">
<title>Workbench1135820194&#45;&gt;ResourceStash1135820194</title>
<path fill="none" stroke="black" d="M309.82,-659.06C352.44,-607.07 405.11,-542.82 448.69,-489.66"/>
<polygon fill="black" stroke="black" points="451.42,-491.86 455.05,-481.9 446,-487.42 451.42,-491.86"/>
<text text-anchor="middle" x="450.16" y="-520.6" font-family="Times New Roman,serif" font-size="14.00">stash</text>
<text text-anchor="middle" x="450.16" y="-503.8" font-family="Times New Roman,serif" font-size="14.00">[0..1]</text>
</g>
</g>
</svg>
