<?xml version="1.0" encoding="UTF-8" standalone="no"?>
<!DOCTYPE svg PUBLIC "-//W3C//DTD SVG 1.1//EN"
 "http://www.w3.org/Graphics/SVG/1.1/DTD/svg11.dtd">
<!-- Generated by graphviz version 2.44.1 (20200629.0846)
 -->
<!-- Title: g Pages: 1 -->
<svg width="869pt" height="634pt"
 viewBox="0.00 0.00 868.50 633.60" xmlns="http://www.w3.org/2000/svg" xmlns:xlink="http://www.w3.org/1999/xlink">
<g id="graph0" class="graph" transform="scale(1 1) rotate(0) translate(4 629.6)">
<title>g</title>
<polygon fill="white" stroke="transparent" points="-4,4 -4,-629.6 864.5,-629.6 864.5,4 -4,4"/>
<!-- Camp1135820194 -->
<g id="node1" class="node">
<title>Camp1135820194</title>
<polygon fill="#ffffff" stroke="transparent" points="287,-410 0,-410 0,0 287,0 287,-410"/>
<text text-anchor="start" x="5.5" y="-392.4" font-family="Times New Roman,serif" font-size="14.00">(C)Camp</text>
<text text-anchor="start" x="5.5" y="-368.4" font-family="Times New Roman,serif" font-size="14.00">&#45; &#160;&#160;constructed: Deque&lt;Buildable&gt; [0..*]</text>
<text text-anchor="start" x="5.5" y="-344.4" font-family="Times New Roman,serif" font-size="14.00">&#45; &#160;&#160;currentEndeavor: Rescue [0..1]</text>
<text text-anchor="start" x="5.5" y="-320.4" font-family="Times New Roman,serif" font-size="14.00">&#45; &#160;&#160;hasFireplace: boolean [1]</text>
<text text-anchor="start" x="5.5" y="-296.4" font-family="Times New Roman,serif" font-size="14.00">&#45; &#160;&#160;stash: ResourceStash [0..1]</text>
<text text-anchor="start" x="5.5" y="-272.4" font-family="Times New Roman,serif" font-size="14.00">&#45; &#160;&#160;strongestWeapon: Tool [0..1]</text>
<text text-anchor="start" x="5.5" y="-248.4" font-family="Times New Roman,serif" font-size="14.00">&#45; &#160;&#160;uuid: UUID [0..1]</text>
<text text-anchor="start" x="5.5" y="-224.4" font-family="Times New Roman,serif" font-size="14.00">&#45; &#160;&#160;workbench: Workbench [0..1]</text>
<text text-anchor="start" x="5.5" y="-200.4" font-family="Times New Roman,serif" font-size="14.00">+ Camp(uuid: UUID)</text>
<text text-anchor="start" x="5.5" y="-176.4" font-family="Times New Roman,serif" font-size="14.00">+ addResource(r: Resource)</text>
<text text-anchor="start" x="5.5" y="-152.4" font-family="Times New Roman,serif" font-size="14.00">+ build(plan: CraftingPlan): Buildable</text>
<text text-anchor="start" x="5.5" y="-128.4" font-family="Times New Roman,serif" font-size="14.00">+ canBuildAnything(): boolean</text>
<text text-anchor="start" x="5.5" y="-104.4" font-family="Times New Roman,serif" font-size="14.00">+ devastate()</text>
<text text-anchor="start" x="5.5" y="-80.4" font-family="Times New Roman,serif" font-size="14.00">+ listConstructed(): List&lt;Buildable&gt;</text>
<text text-anchor="start" x="5.01" y="-56.4" font-family="Times New Roman,serif" font-size="14.00">+ listPossibleCraftingPlans(): List&lt;CraftingPlan&gt;</text>
<text text-anchor="start" x="5.5" y="-32.4" font-family="Times New Roman,serif" font-size="14.00">+ ravage()</text>
<text text-anchor="start" x="5.5" y="-8.4" font-family="Times New Roman,serif" font-size="14.00">+ resources(): List&lt;Resource&gt;</text>
<polygon fill="black" stroke="black" points="0.5,-385 0.5,-385 287.5,-385 287.5,-385 0.5,-385"/>
<polygon fill="black" stroke="black" points="0.5,-217 0.5,-217 287.5,-217 287.5,-217 0.5,-217"/>
<polygon fill="none" stroke="black" points="0,0 0,-410 287,-410 287,0 0,0"/>
</g>
<!-- Card1697264569 -->
<g id="node2" class="node">
<title>Card1697264569</title>
<polygon fill="#dcfbd5" stroke="transparent" points="860.5,-374 558.5,-374 558.5,-36 860.5,-36 860.5,-374"/>
<text text-anchor="start" x="563.5" y="-356.4" font-family="Times New Roman,serif" font-size="14.00">(E)Card</text>
<text text-anchor="start" x="563.5" y="-332.4" font-family="Times New Roman,serif" font-size="14.00">+ &#160;&#160;METAL: Card [1]</text>
<text text-anchor="start" x="563.5" y="-308.4" font-family="Times New Roman,serif" font-size="14.00">+ &#160;&#160;PLASTIC: Card [1]</text>
<text text-anchor="start" x="563.5" y="-284.4" font-family="Times New Roman,serif" font-size="14.00">+ &#160;&#160;SNAKE: Card [1]</text>
<text text-anchor="start" x="563.5" y="-260.4" font-family="Times New Roman,serif" font-size="14.00">+ &#160;&#160;SPIDER: Card [1]</text>
<text text-anchor="start" x="563.5" y="-236.4" font-family="Times New Roman,serif" font-size="14.00">+ &#160;&#160;THUNDERSTORM: Card [1]</text>
<text text-anchor="start" x="563.5" y="-212.4" font-family="Times New Roman,serif" font-size="14.00">+ &#160;&#160;TIGER: Card [1]</text>
<text text-anchor="start" x="563.5" y="-188.4" font-family="Times New Roman,serif" font-size="14.00">+ &#160;&#160;WOOD: Card [1]</text>
<text text-anchor="start" x="563.5" y="-164.4" font-family="Times New Roman,serif" font-size="14.00">&#45; &#160;&#160;category: CardCategory [0..1]</text>
<text text-anchor="start" x="563.5" y="-140.4" font-family="Times New Roman,serif" font-size="14.00">&#45; &#160;&#160;resource: Resource [0..1]</text>
<text text-anchor="start" x="563.15" y="-116.4" font-family="Times New Roman,serif" font-size="14.00">&#45; Card(category: CardCategory, resource: Resource)</text>
<text text-anchor="start" x="563.5" y="-92.4" font-family="Times New Roman,serif" font-size="14.00">+ refabricate(): Card</text>
<text text-anchor="start" x="563.5" y="-68.4" font-family="Times New Roman,serif" font-size="14.00">+ valueOf(name: String): Card</text>
<text text-anchor="start" x="563.5" y="-44.4" font-family="Times New Roman,serif" font-size="14.00">+ values(): Card[]</text>
<polygon fill="black" stroke="black" points="558.5,-349 558.5,-349 860.5,-349 860.5,-349 558.5,-349"/>
<polygon fill="black" stroke="black" points="558.5,-133 558.5,-133 860.5,-133 860.5,-133 558.5,-133"/>
<polygon fill="none" stroke="black" points="558.5,-36 558.5,-374 860.5,-374 860.5,-36 558.5,-36"/>
</g>
<!-- OutcomeType1123845887 -->
<g id="node3" class="node">
<title>OutcomeType1123845887</title>
<polygon fill="#dcfbd5" stroke="transparent" points="540,-278 305,-278 305,-132 540,-132 540,-278"/>
<text text-anchor="start" x="310.5" y="-260.4" font-family="Times New Roman,serif" font-size="14.00">(E)OutcomeType</text>
<text text-anchor="start" x="310.5" y="-236.4" font-family="Times New Roman,serif" font-size="14.00">+ &#160;&#160;LOSE: OutcomeType [1]</text>
<text text-anchor="start" x="310.5" y="-212.4" font-family="Times New Roman,serif" font-size="14.00">+ &#160;&#160;SURVIVED: OutcomeType [1]</text>
<text text-anchor="start" x="310.5" y="-188.4" font-family="Times New Roman,serif" font-size="14.00">+ &#160;&#160;WIN: OutcomeType [1]</text>
<text text-anchor="start" x="310.39" y="-164.4" font-family="Times New Roman,serif" font-size="14.00">+ valueOf(name: String): OutcomeType</text>
<text text-anchor="start" x="310.5" y="-140.4" font-family="Times New Roman,serif" font-size="14.00">+ values(): OutcomeType[]</text>
<polygon fill="black" stroke="black" points="305.5,-253 305.5,-253 540.5,-253 540.5,-253 305.5,-253"/>
<polygon fill="black" stroke="black" points="305.5,-181 305.5,-181 540.5,-181 540.5,-181 305.5,-181"/>
<polygon fill="none" stroke="black" points="305,-132 305,-278 540,-278 540,-132 305,-132"/>
</g>
<!-- EndeavorHandler1052887806 -->
<g id="node4" class="node">
<title>EndeavorHandler1052887806</title>
<polygon fill="#ffffff" stroke="transparent" points="255.5,-613.6 49.5,-613.6 49.5,-491.6 255.5,-491.6 255.5,-613.6"/>
<text text-anchor="start" x="54.5" y="-596" font-family="Times New Roman,serif" font-size="14.00">(C)EndeavorHandler</text>
<text text-anchor="start" x="54.5" y="-572" font-family="Times New Roman,serif" font-size="14.00">&#45; &#160;&#160;camp: Camp [0..1]</text>
<text text-anchor="start" x="54.5" y="-548" font-family="Times New Roman,serif" font-size="14.00">&#45; &#160;&#160;outcome: OutcomeType [0..1]</text>
<text text-anchor="start" x="54.5" y="-524" font-family="Times New Roman,serif" font-size="14.00">+ EndeavorHandler(camp: Camp)</text>
<text text-anchor="start" x="54.28" y="-500" font-family="Times New Roman,serif" font-size="14.00">+ endeavor(roll: Roll): GamePhase</text>
<polygon fill="black" stroke="black" points="49.5,-588.6 49.5,-588.6 255.5,-588.6 255.5,-588.6 49.5,-588.6"/>
<polygon fill="black" stroke="black" points="49.5,-540.6 49.5,-540.6 255.5,-540.6 255.5,-540.6 49.5,-540.6"/>
<polygon fill="none" stroke="black" points="49.5,-491.6 49.5,-613.6 255.5,-613.6 255.5,-491.6 49.5,-491.6"/>
</g>
<!-- EndeavorHandler1052887806&#45;&gt;Camp1135820194 -->
<g id="edge4" class="edge">
<title>EndeavorHandler1052887806&#45;&gt;Camp1135820194</title>
<path fill="none" stroke="black" d="M150.93,-491.4C150.39,-470.74 149.76,-446.28 149.09,-420.5"/>
<polygon fill="black" stroke="black" points="152.58,-420.08 148.82,-410.17 145.58,-420.26 152.58,-420.08"/>
<text text-anchor="middle" x="165.66" y="-449" font-family="Times New Roman,serif" font-size="14.00">camp</text>
<text text-anchor="middle" x="165.66" y="-432.2" font-family="Times New Roman,serif" font-size="14.00">[0..1]</text>
</g>
<!-- EndeavorHandler1052887806&#45;&gt;OutcomeType1123845887 -->
<g id="edge5" class="edge">
<title>EndeavorHandler1052887806&#45;&gt;OutcomeType1123845887</title>
<path fill="none" stroke="black" d="M211.97,-491.25C242.88,-459.87 274.29,-428 274.29,-428 274.29,-428 295.5,-410 295.5,-410 295.5,-410 336.68,-343.86 372.14,-286.9"/>
<polygon fill="black" stroke="black" points="375.23,-288.55 377.55,-278.21 369.29,-284.85 375.23,-288.55"/>
<text text-anchor="middle" x="298.61" y="-449" font-family="Times New Roman,serif" font-size="14.00">outcome</text>
<text text-anchor="middle" x="298.61" y="-432.2" font-family="Times New Roman,serif" font-size="14.00">[0..1]</text>
</g>
<!-- EncounterHandler1052887606 -->
<g id="node5" class="node">
<title>EncounterHandler1052887606</title>
<polygon fill="#ffffff" stroke="transparent" points="568.5,-625.6 276.5,-625.6 276.5,-479.6 568.5,-479.6 568.5,-625.6"/>
<text text-anchor="start" x="281.5" y="-608" font-family="Times New Roman,serif" font-size="14.00">(C)EncounterHandler</text>
<text text-anchor="start" x="281.5" y="-584" font-family="Times New Roman,serif" font-size="14.00">&#45; &#160;&#160;camp: Camp [0..1]</text>
<text text-anchor="start" x="281.5" y="-560" font-family="Times New Roman,serif" font-size="14.00">&#45; &#160;&#160;lastCard: Card [0..1]</text>
<text text-anchor="start" x="281.5" y="-536" font-family="Times New Roman,serif" font-size="14.00">&#45; &#160;&#160;outcome: OutcomeType [0..1]</text>
<text text-anchor="start" x="281.13" y="-512" font-family="Times New Roman,serif" font-size="14.00">+ EncounterHandler(camp: Camp, lastCard: Card)</text>
<text text-anchor="start" x="281.5" y="-488" font-family="Times New Roman,serif" font-size="14.00">+ encounter(roll: Roll)</text>
<polygon fill="black" stroke="black" points="276.5,-600.6 276.5,-600.6 568.5,-600.6 568.5,-600.6 276.5,-600.6"/>
<polygon fill="black" stroke="black" points="276.5,-528.6 276.5,-528.6 568.5,-528.6 568.5,-528.6 276.5,-528.6"/>
<polygon fill="none" stroke="black" points="276.5,-479.6 276.5,-625.6 568.5,-625.6 568.5,-479.6 276.5,-479.6"/>
</g>
<!-- EncounterHandler1052887606&#45;&gt;Camp1135820194 -->
<g id="edge1" class="edge">
<title>EncounterHandler1052887606&#45;&gt;Camp1135820194</title>
<path fill="none" stroke="black" d="M364.04,-479.34C342.16,-452.3 322.5,-428 322.5,-428 322.5,-428 295.5,-410 295.5,-410 295.5,-410 294.73,-408.96 293.29,-407.04"/>
<polygon fill="black" stroke="black" points="295.89,-404.67 287.11,-398.74 290.28,-408.85 295.89,-404.67"/>
<text text-anchor="middle" x="364.66" y="-449" font-family="Times New Roman,serif" font-size="14.00">camp</text>
<text text-anchor="middle" x="364.66" y="-432.2" font-family="Times New Roman,serif" font-size="14.00">[0..1]</text>
</g>
<!-- EncounterHandler1052887606&#45;&gt;Card1697264569 -->
<g id="edge2" class="edge">
<title>EncounterHandler1052887606&#45;&gt;Card1697264569</title>
<path fill="none" stroke="black" d="M487.12,-479.56C518.49,-444.58 549.5,-410 549.5,-410 549.5,-410 557.99,-399.18 571.06,-382.51"/>
<polygon fill="black" stroke="black" points="573.95,-384.49 577.37,-374.47 568.44,-380.17 573.95,-384.49"/>
<text text-anchor="middle" x="553.83" y="-449" font-family="Times New Roman,serif" font-size="14.00">lastCard</text>
<text text-anchor="middle" x="553.83" y="-432.2" font-family="Times New Roman,serif" font-size="14.00">[0..1]</text>
</g>
<!-- EncounterHandler1052887606&#45;&gt;OutcomeType1123845887 -->
<g id="edge3" class="edge">
<title>EncounterHandler1052887606&#45;&gt;OutcomeType1123845887</title>
<path fill="none" stroke="black" d="M422.5,-479.57C422.5,-423.87 422.5,-346.68 422.5,-288.5"/>
<polygon fill="black" stroke="black" points="426,-288.23 422.5,-278.23 419,-288.23 426,-288.23"/>
<text text-anchor="middle" x="446.61" y="-449" font-family="Times New Roman,serif" font-size="14.00">outcome</text>
<text text-anchor="middle" x="446.61" y="-432.2" font-family="Times New Roman,serif" font-size="14.00">[0..1]</text>
</g>
</g>
</svg>
