<?xml version="1.0" encoding="UTF-8" standalone="no"?>
<!DOCTYPE svg PUBLIC "-//W3C//DTD SVG 1.1//EN"
 "http://www.w3.org/Graphics/SVG/1.1/DTD/svg11.dtd">
<!-- Generated by graphviz version 2.44.1 (20200629.0846)
 -->
<!-- Title: g Pages: 1 -->
<svg width="737pt" height="609pt"
 viewBox="0.00 0.00 737.00 609.20" xmlns="http://www.w3.org/2000/svg" xmlns:xlink="http://www.w3.org/1999/xlink">
<g id="graph0" class="graph" transform="scale(1 1) rotate(0) translate(4 605.2)">
<title>g</title>
<polygon fill="white" stroke="transparent" points="-4,4 -4,-605.2 733,-605.2 733,4 -4,4"/>
<!-- AnimalEncounter593698258 -->
<g id="node1" class="node">
<title>AnimalEncounter593698258</title>
<polygon fill="#dcfbd5" stroke="transparent" points="291,-601.2 0,-601.2 0,-431.2 291,-431.2 291,-601.2"/>
<text text-anchor="start" x="5.5" y="-583.6" font-family="Times New Roman,serif" font-size="14.00">(E)AnimalEncounter</text>
<text text-anchor="start" x="5.5" y="-559.6" font-family="Times New Roman,serif" font-size="14.00">+ &#160;&#160;SNAKE: AnimalEncounter [1]</text>
<text text-anchor="start" x="5.5" y="-535.6" font-family="Times New Roman,serif" font-size="14.00">+ &#160;&#160;SPIDER: AnimalEncounter [1]</text>
<text text-anchor="start" x="5.5" y="-511.6" font-family="Times New Roman,serif" font-size="14.00">+ &#160;&#160;TIGER: AnimalEncounter [1]</text>
<text text-anchor="start" x="5.5" y="-487.6" font-family="Times New Roman,serif" font-size="14.00">&#45; &#160;&#160;requiredRoll: Roll [0..1]</text>
<text text-anchor="start" x="5.5" y="-463.6" font-family="Times New Roman,serif" font-size="14.00">+ fight(roll: Roll): boolean</text>
<text text-anchor="start" x="5.01" y="-439.6" font-family="Times New Roman,serif" font-size="14.00">+ fromCard(animalCard: Card): AnimalEncounter</text>
<polygon fill="black" stroke="black" points="0.5,-576.2 0.5,-576.2 291.5,-576.2 291.5,-576.2 0.5,-576.2"/>
<polygon fill="black" stroke="black" points="0.5,-480.2 0.5,-480.2 291.5,-480.2 291.5,-480.2 0.5,-480.2"/>
<polygon fill="none" stroke="black" points="0,-431.2 0,-601.2 291,-601.2 291,-431.2 0,-431.2"/>
</g>
<!-- Roll1746401859 -->
<g id="node4" class="node">
<title>Roll1746401859</title>
<polygon fill="#ffffff" stroke="transparent" points="529.5,-361.6 237.5,-361.6 237.5,-191.6 529.5,-191.6 529.5,-361.6"/>
<text text-anchor="start" x="242.5" y="-344" font-family="Times New Roman,serif" font-size="14.00">(C)Roll</text>
<text text-anchor="start" x="242.5" y="-320" font-family="Times New Roman,serif" font-size="14.00">&#45; &#160;&#160;roll: RollInteger [0..1]</text>
<text text-anchor="start" x="242.5" y="-296" font-family="Times New Roman,serif" font-size="14.00">&#45; &#160;&#160;type: DiceType [0..1]</text>
<text text-anchor="start" x="242.12" y="-272" font-family="Times New Roman,serif" font-size="14.00">+ raiseRollBy(amount: NonNegativeInteger): Roll</text>
<text text-anchor="start" x="242.5" y="-248" font-family="Times New Roman,serif" font-size="14.00">+ random(dice: DiceType): Roll</text>
<text text-anchor="start" x="242.5" y="-224" font-family="Times New Roman,serif" font-size="14.00">+ roll(): RollInteger</text>
<text text-anchor="start" x="242.5" y="-200" font-family="Times New Roman,serif" font-size="14.00">+ type(): DiceType</text>
<polygon fill="black" stroke="black" points="237.5,-336.6 237.5,-336.6 529.5,-336.6 529.5,-336.6 237.5,-336.6"/>
<polygon fill="black" stroke="black" points="237.5,-288.6 237.5,-288.6 529.5,-288.6 529.5,-288.6 237.5,-288.6"/>
<polygon fill="none" stroke="black" points="237.5,-191.6 237.5,-361.6 529.5,-361.6 529.5,-191.6 237.5,-191.6"/>
</g>
<!-- AnimalEncounter593698258&#45;&gt;Roll1746401859 -->
<g id="edge1" class="edge">
<title>AnimalEncounter593698258&#45;&gt;Roll1746401859</title>
<path fill="none" stroke="black" d="M229.74,-431.1C249.84,-411.03 271.39,-389.53 291.8,-369.15"/>
<polygon fill="black" stroke="black" points="294.36,-371.53 298.97,-361.99 289.42,-366.58 294.36,-371.53"/>
<text text-anchor="middle" x="314.88" y="-400.6" font-family="Times New Roman,serif" font-size="14.00">requiredRoll</text>
<text text-anchor="middle" x="314.88" y="-383.8" font-family="Times New Roman,serif" font-size="14.00">[0..1]</text>
</g>
<!-- DiceType1746401859 -->
<g id="node2" class="node">
<title>DiceType1746401859</title>
<polygon fill="#dcfbd5" stroke="transparent" points="347.5,-122 91.5,-122 91.5,0 347.5,0 347.5,-122"/>
<text text-anchor="start" x="96.5" y="-104.4" font-family="Times New Roman,serif" font-size="14.00">(E)DiceType</text>
<text text-anchor="start" x="96.5" y="-80.4" font-family="Times New Roman,serif" font-size="14.00">+ &#160;&#160;EIGHT_SIDED: DiceType [1]</text>
<text text-anchor="start" x="96.5" y="-56.4" font-family="Times New Roman,serif" font-size="14.00">+ &#160;&#160;FOUR_SIDED: DiceType [1]</text>
<text text-anchor="start" x="96.5" y="-32.4" font-family="Times New Roman,serif" font-size="14.00">+ &#160;&#160;SIX_SIDED: DiceType [1]</text>
<text text-anchor="start" x="96.4" y="-8.4" font-family="Times New Roman,serif" font-size="14.00">+ &#160;&#160;integerRepresentation: RollInteger [0..1]</text>
<polygon fill="black" stroke="black" points="91.5,-97 91.5,-97 347.5,-97 347.5,-97 91.5,-97"/>
<polygon fill="none" stroke="black" points="91.5,0 91.5,-122 347.5,-122 347.5,0 91.5,0"/>
</g>
<!-- InvalidDiceException1746401859 -->
<g id="node3" class="node">
<title>InvalidDiceException1746401859</title>
<polygon fill="#ffffff" stroke="transparent" points="460,-553.2 309,-553.2 309,-479.2 460,-479.2 460,-553.2"/>
<text text-anchor="start" x="314.25" y="-535.6" font-family="Times New Roman,serif" font-size="14.00">(C)InvalidDiceException</text>
<text text-anchor="start" x="314.5" y="-511.6" font-family="Times New Roman,serif" font-size="14.00">&#45; &#160;&#160;roll1: Roll [0..1]</text>
<text text-anchor="start" x="314.5" y="-487.6" font-family="Times New Roman,serif" font-size="14.00">&#45; &#160;&#160;roll2: Roll [0..1]</text>
<polygon fill="black" stroke="black" points="309.5,-528.2 309.5,-528.2 460.5,-528.2 460.5,-528.2 309.5,-528.2"/>
<polygon fill="none" stroke="black" points="309,-479.2 309,-553.2 460,-553.2 460,-479.2 309,-479.2"/>
</g>
<!-- InvalidDiceException1746401859&#45;&gt;Roll1746401859 -->
<g id="edge2" class="edge">
<title>InvalidDiceException1746401859&#45;&gt;Roll1746401859</title>
<path fill="none" stroke="black" d="M375.15,-478.95C367.58,-449.63 358.18,-413.2 358.18,-413.2 358.18,-413.2 358.18,-379.6 358.18,-379.6 358.18,-379.6 358.91,-376.65 360.13,-371.74"/>
<polygon fill="black" stroke="black" points="363.58,-372.38 362.59,-361.83 356.78,-370.7 363.58,-372.38"/>
<text text-anchor="middle" x="372.66" y="-400.6" font-family="Times New Roman,serif" font-size="14.00">roll1</text>
<text text-anchor="middle" x="372.66" y="-383.8" font-family="Times New Roman,serif" font-size="14.00">[0..1]</text>
</g>
<!-- InvalidDiceException1746401859&#45;&gt;Roll1746401859 -->
<g id="edge3" class="edge">
<title>InvalidDiceException1746401859&#45;&gt;Roll1746401859</title>
<path fill="none" stroke="black" d="M385.92,-478.95C387.07,-449.63 388.5,-413.2 388.5,-413.2 388.5,-413.2 388.5,-379.6 388.5,-379.6 388.5,-379.6 388.36,-376.79 388.13,-372.1"/>
<polygon fill="black" stroke="black" points="391.61,-371.65 387.63,-361.83 384.62,-371.99 391.61,-371.65"/>
<text text-anchor="middle" x="403.66" y="-400.6" font-family="Times New Roman,serif" font-size="14.00">roll2</text>
<text text-anchor="middle" x="403.66" y="-383.8" font-family="Times New Roman,serif" font-size="14.00">[0..1]</text>
</g>
<!-- Roll1746401859&#45;&gt;DiceType1746401859 -->
<g id="edge4" class="edge">
<title>Roll1746401859&#45;&gt;DiceType1746401859</title>
<path fill="none" stroke="black" d="M318.92,-191.49C303.32,-171.17 286.84,-149.71 271.88,-130.22"/>
<polygon fill="black" stroke="black" points="274.65,-128.09 265.79,-122.29 269.1,-132.35 274.65,-128.09"/>
<text text-anchor="middle" x="316.66" y="-161" font-family="Times New Roman,serif" font-size="14.00">type</text>
<text text-anchor="middle" x="316.66" y="-144.2" font-family="Times New Roman,serif" font-size="14.00">[0..1]</text>
</g>
<!-- RollInteger1746401859 -->
<g id="node6" class="node">
<title>RollInteger1746401859</title>
<polygon fill="#ffffff" stroke="transparent" points="729,-110 366,-110 366,-12 729,-12 729,-110"/>
<text text-anchor="start" x="371.5" y="-92.4" font-family="Times New Roman,serif" font-size="14.00">(C)RollInteger</text>
<text text-anchor="start" x="371.5" y="-68.4" font-family="Times New Roman,serif" font-size="14.00">&#45; &#160;&#160;value: int [1]</text>
<text text-anchor="start" x="371.44" y="-44.4" font-family="Times New Roman,serif" font-size="14.00">+ fromNumberCapped(value: int, dice: DiceType): RollInteger</text>
<text text-anchor="start" x="371.5" y="-20.4" font-family="Times New Roman,serif" font-size="14.00">+ value(): int</text>
<polygon fill="black" stroke="black" points="366.5,-85 366.5,-85 729.5,-85 729.5,-85 366.5,-85"/>
<polygon fill="black" stroke="black" points="366.5,-61 366.5,-61 729.5,-61 729.5,-61 366.5,-61"/>
<polygon fill="none" stroke="black" points="366,-12 366,-110 729,-110 729,-12 366,-12"/>
</g>
<!-- Roll1746401859&#45;&gt;RollInteger1746401859 -->
<g id="edge5" class="edge">
<title>Roll1746401859&#45;&gt;RollInteger1746401859</title>
<path fill="none" stroke="black" d="M448.08,-191.49C466.92,-166.95 487.05,-140.73 504.23,-118.36"/>
<polygon fill="black" stroke="black" points="507.1,-120.36 510.42,-110.3 501.55,-116.1 507.1,-120.36"/>
<text text-anchor="middle" x="499.66" y="-161" font-family="Times New Roman,serif" font-size="14.00">roll</text>
<text text-anchor="middle" x="499.66" y="-144.2" font-family="Times New Roman,serif" font-size="14.00">[0..1]</text>
</g>
<!-- RollDxCommand1702927325 -->
<g id="node5" class="node">
<title>RollDxCommand1702927325</title>
<polygon fill="#ffffff" stroke="transparent" points="622.5,-565.2 478.5,-565.2 478.5,-467.2 622.5,-467.2 622.5,-565.2"/>
<text text-anchor="start" x="483.5" y="-547.6" font-family="Times New Roman,serif" font-size="14.00">(C)RollDxCommand</text>
<text text-anchor="start" x="483.5" y="-523.6" font-family="Times New Roman,serif" font-size="14.00">&#45; &#160;&#160;roll: Roll [0..1]</text>
<text text-anchor="start" x="483.2" y="-499.6" font-family="Times New Roman,serif" font-size="14.00">+ execute(game: Game)</text>
<text text-anchor="start" x="483.5" y="-475.6" font-family="Times New Roman,serif" font-size="14.00">+ roll(): Roll</text>
<polygon fill="black" stroke="black" points="478.5,-540.2 478.5,-540.2 622.5,-540.2 622.5,-540.2 478.5,-540.2"/>
<polygon fill="black" stroke="black" points="478.5,-516.2 478.5,-516.2 622.5,-516.2 622.5,-516.2 478.5,-516.2"/>
<polygon fill="none" stroke="black" points="478.5,-467.2 478.5,-565.2 622.5,-565.2 622.5,-467.2 478.5,-467.2"/>
</g>
<!-- RollDxCommand1702927325&#45;&gt;Roll1746401859 -->
<g id="edge6" class="edge">
<title>RollDxCommand1702927325&#45;&gt;Roll1746401859</title>
<path fill="none" stroke="black" d="M516.71,-467.12C497.11,-439.24 471.78,-403.2 448.47,-370.04"/>
<polygon fill="black" stroke="black" points="451.21,-367.85 442.59,-361.68 445.48,-371.87 451.21,-367.85"/>
<text text-anchor="middle" x="491.66" y="-400.6" font-family="Times New Roman,serif" font-size="14.00">roll</text>
<text text-anchor="middle" x="491.66" y="-383.8" font-family="Times New Roman,serif" font-size="14.00">[0..1]</text>
</g>
</g>
</svg>
