<?xml version="1.0" encoding="UTF-8" standalone="no"?>
<!DOCTYPE svg PUBLIC "-//W3C//DTD SVG 1.1//EN"
 "http://www.w3.org/Graphics/SVG/1.1/DTD/svg11.dtd">
<!-- Generated by graphviz version 2.44.1 (20200629.0846)
 -->
<!-- Title: g Pages: 1 -->
<svg width="869pt" height="682pt"
 viewBox="0.00 0.00 869.00 681.60" xmlns="http://www.w3.org/2000/svg" xmlns:xlink="http://www.w3.org/1999/xlink">
<g id="graph0" class="graph" transform="scale(1 1) rotate(0) translate(4 677.6)">
<title>g</title>
<polygon fill="white" stroke="transparent" points="-4,4 -4,-677.6 865,-677.6 865,4 -4,4"/>
<!-- Camp1135820194 -->
<g id="node1" class="node">
<title>Camp1135820194</title>
<polygon fill="#ffffff" stroke="transparent" points="287,-410 0,-410 0,0 287,0 287,-410"/>
<text text-anchor="start" x="5.5" y="-392.4" font-family="Times New Roman,serif" font-size="14.00">(C)Camp</text>
<text text-anchor="start" x="5.5" y="-368.4" font-family="Times New Roman,serif" font-size="14.00">&#45; &#160;&#160;constructed: Deque&lt;Buildable&gt; [0..*]</text>
<text text-anchor="start" x="5.5" y="-344.4" font-family="Times New Roman,serif" font-size="14.00">&#45; &#160;&#160;currentEndeavor: Rescue [0..1]</text>
<text text-anchor="start" x="5.5" y="-320.4" font-family="Times New Roman,serif" font-size="14.00">&#45; &#160;&#160;hasFireplace: boolean [1]</text>
<text text-anchor="start" x="5.5" y="-296.4" font-family="Times New Roman,serif" font-size="14.00">&#45; &#160;&#160;stash: ResourceStash [0..1]</text>
<text text-anchor="start" x="5.5" y="-272.4" font-family="Times New Roman,serif" font-size="14.00">&#45; &#160;&#160;strongestWeapon: Tool [0..1]</text>
<text text-anchor="start" x="5.5" y="-248.4" font-family="Times New Roman,serif" font-size="14.00">&#45; &#160;&#160;uuid: UUID [0..1]</text>
<text text-anchor="start" x="5.5" y="-224.4" font-family="Times New Roman,serif" font-size="14.00">&#45; &#160;&#160;workbench: Workbench [0..1]</text>
<text text-anchor="start" x="5.5" y="-200.4" font-family="Times New Roman,serif" font-size="14.00">+ Camp(uuid: UUID)</text>
<text text-anchor="start" x="5.5" y="-176.4" font-family="Times New Roman,serif" font-size="14.00">+ addResource(r: Resource)</text>
<text text-anchor="start" x="5.5" y="-152.4" font-family="Times New Roman,serif" font-size="14.00">+ build(plan: CraftingPlan): Buildable</text>
<text text-anchor="start" x="5.5" y="-128.4" font-family="Times New Roman,serif" font-size="14.00">+ canBuildAnything(): boolean</text>
<text text-anchor="start" x="5.5" y="-104.4" font-family="Times New Roman,serif" font-size="14.00">+ devastate()</text>
<text text-anchor="start" x="5.5" y="-80.4" font-family="Times New Roman,serif" font-size="14.00">+ listConstructed(): List&lt;Buildable&gt;</text>
<text text-anchor="start" x="5.01" y="-56.4" font-family="Times New Roman,serif" font-size="14.00">+ listPossibleCraftingPlans(): List&lt;CraftingPlan&gt;</text>
<text text-anchor="start" x="5.5" y="-32.4" font-family="Times New Roman,serif" font-size="14.00">+ ravage()</text>
<text text-anchor="start" x="5.5" y="-8.4" font-family="Times New Roman,serif" font-size="14.00">+ resources(): List&lt;Resource&gt;</text>
<polygon fill="black" stroke="black" points="0.5,-385 0.5,-385 287.5,-385 287.5,-385 0.5,-385"/>
<polygon fill="black" stroke="black" points="0.5,-217 0.5,-217 287.5,-217 287.5,-217 0.5,-217"/>
<polygon fill="none" stroke="black" points="0,0 0,-410 287,-410 287,0 0,0"/>
</g>
<!-- Card1697264569 -->
<g id="node2" class="node">
<title>Card1697264569</title>
<polygon fill="#dcfbd5" stroke="transparent" points="607.5,-374 305.5,-374 305.5,-36 607.5,-36 607.5,-374"/>
<text text-anchor="start" x="310.5" y="-356.4" font-family="Times New Roman,serif" font-size="14.00">(E)Card</text>
<text text-anchor="start" x="310.5" y="-332.4" font-family="Times New Roman,serif" font-size="14.00">+ &#160;&#160;METAL: Card [1]</text>
<text text-anchor="start" x="310.5" y="-308.4" font-family="Times New Roman,serif" font-size="14.00">+ &#160;&#160;PLASTIC: Card [1]</text>
<text text-anchor="start" x="310.5" y="-284.4" font-family="Times New Roman,serif" font-size="14.00">+ &#160;&#160;SNAKE: Card [1]</text>
<text text-anchor="start" x="310.5" y="-260.4" font-family="Times New Roman,serif" font-size="14.00">+ &#160;&#160;SPIDER: Card [1]</text>
<text text-anchor="start" x="310.5" y="-236.4" font-family="Times New Roman,serif" font-size="14.00">+ &#160;&#160;THUNDERSTORM: Card [1]</text>
<text text-anchor="start" x="310.5" y="-212.4" font-family="Times New Roman,serif" font-size="14.00">+ &#160;&#160;TIGER: Card [1]</text>
<text text-anchor="start" x="310.5" y="-188.4" font-family="Times New Roman,serif" font-size="14.00">+ &#160;&#160;WOOD: Card [1]</text>
<text text-anchor="start" x="310.5" y="-164.4" font-family="Times New Roman,serif" font-size="14.00">&#45; &#160;&#160;category: CardCategory [0..1]</text>
<text text-anchor="start" x="310.5" y="-140.4" font-family="Times New Roman,serif" font-size="14.00">&#45; &#160;&#160;resource: Resource [0..1]</text>
<text text-anchor="start" x="310.15" y="-116.4" font-family="Times New Roman,serif" font-size="14.00">&#45; Card(category: CardCategory, resource: Resource)</text>
<text text-anchor="start" x="310.5" y="-92.4" font-family="Times New Roman,serif" font-size="14.00">+ refabricate(): Card</text>
<text text-anchor="start" x="310.5" y="-68.4" font-family="Times New Roman,serif" font-size="14.00">+ valueOf(name: String): Card</text>
<text text-anchor="start" x="310.5" y="-44.4" font-family="Times New Roman,serif" font-size="14.00">+ values(): Card[]</text>
<polygon fill="black" stroke="black" points="305.5,-349 305.5,-349 607.5,-349 607.5,-349 305.5,-349"/>
<polygon fill="black" stroke="black" points="305.5,-133 305.5,-133 607.5,-133 607.5,-133 305.5,-133"/>
<polygon fill="none" stroke="black" points="305.5,-36 305.5,-374 607.5,-374 607.5,-36 305.5,-36"/>
</g>
<!-- OutcomeType1123845887 -->
<g id="node3" class="node">
<title>OutcomeType1123845887</title>
<polygon fill="#dcfbd5" stroke="transparent" points="861,-278 626,-278 626,-132 861,-132 861,-278"/>
<text text-anchor="start" x="631.5" y="-260.4" font-family="Times New Roman,serif" font-size="14.00">(E)OutcomeType</text>
<text text-anchor="start" x="631.5" y="-236.4" font-family="Times New Roman,serif" font-size="14.00">+ &#160;&#160;LOSE: OutcomeType [1]</text>
<text text-anchor="start" x="631.5" y="-212.4" font-family="Times New Roman,serif" font-size="14.00">+ &#160;&#160;SURVIVED: OutcomeType [1]</text>
<text text-anchor="start" x="631.5" y="-188.4" font-family="Times New Roman,serif" font-size="14.00">+ &#160;&#160;WIN: OutcomeType [1]</text>
<text text-anchor="start" x="631.39" y="-164.4" font-family="Times New Roman,serif" font-size="14.00">+ valueOf(name: String): OutcomeType</text>
<text text-anchor="start" x="631.5" y="-140.4" font-family="Times New Roman,serif" font-size="14.00">+ values(): OutcomeType[]</text>
<polygon fill="black" stroke="black" points="626.5,-253 626.5,-253 861.5,-253 861.5,-253 626.5,-253"/>
<polygon fill="black" stroke="black" points="626.5,-181 626.5,-181 861.5,-181 861.5,-181 626.5,-181"/>
<polygon fill="none" stroke="black" points="626,-132 626,-278 861,-278 861,-132 626,-132"/>
</g>
<!-- RollHandler1052887806 -->
<g id="node4" class="node">
<title>RollHandler1052887806</title>
<polygon fill="#ffffff" stroke="transparent" points="608.5,-673.6 304.5,-673.6 304.5,-479.6 608.5,-479.6 608.5,-673.6"/>
<text text-anchor="start" x="309.5" y="-656" font-family="Times New Roman,serif" font-size="14.00">(C)RollHandler</text>
<text text-anchor="start" x="309.5" y="-632" font-family="Times New Roman,serif" font-size="14.00">&#45; &#160;&#160;camp: Camp [0..1]</text>
<text text-anchor="start" x="309.5" y="-608" font-family="Times New Roman,serif" font-size="14.00">&#45; &#160;&#160;lastCard: Card [0..1]</text>
<text text-anchor="start" x="309.5" y="-584" font-family="Times New Roman,serif" font-size="14.00">&#45; &#160;&#160;outcome: OutcomeType [0..1]</text>
<text text-anchor="start" x="309.5" y="-560" font-family="Times New Roman,serif" font-size="14.00">+ RollHandler(camp: Camp, lastCard: Card)</text>
<text text-anchor="start" x="309.5" y="-536" font-family="Times New Roman,serif" font-size="14.00">&#45; encounter(roll: Roll)</text>
<text text-anchor="start" x="309.5" y="-512" font-family="Times New Roman,serif" font-size="14.00">&#45; endeavor(roll: Roll): GamePhase</text>
<text text-anchor="start" x="309.1" y="-488" font-family="Times New Roman,serif" font-size="14.00">+ handle(phase: GamePhase, roll: Roll): GamePhase</text>
<polygon fill="black" stroke="black" points="304.5,-648.6 304.5,-648.6 608.5,-648.6 608.5,-648.6 304.5,-648.6"/>
<polygon fill="black" stroke="black" points="304.5,-576.6 304.5,-576.6 608.5,-576.6 608.5,-576.6 304.5,-576.6"/>
<polygon fill="none" stroke="black" points="304.5,-479.6 304.5,-673.6 608.5,-673.6 608.5,-479.6 304.5,-479.6"/>
</g>
<!-- RollHandler1052887806&#45;&gt;Camp1135820194 -->
<g id="edge1" class="edge">
<title>RollHandler1052887806&#45;&gt;Camp1135820194</title>
<path fill="none" stroke="black" d="M363.43,-479.27C328.23,-442.84 296.5,-410 296.5,-410 296.5,-410 295.41,-408.54 293.4,-405.87"/>
<polygon fill="black" stroke="black" points="295.96,-403.45 287.16,-397.55 290.36,-407.65 295.96,-403.45"/>
<text text-anchor="middle" x="359.66" y="-449" font-family="Times New Roman,serif" font-size="14.00">camp</text>
<text text-anchor="middle" x="359.66" y="-432.2" font-family="Times New Roman,serif" font-size="14.00">[0..1]</text>
</g>
<!-- RollHandler1052887806&#45;&gt;Card1697264569 -->
<g id="edge2" class="edge">
<title>RollHandler1052887806&#45;&gt;Card1697264569</title>
<path fill="none" stroke="black" d="M456.5,-479.46C456.5,-450.28 456.5,-417.25 456.5,-384.48"/>
<polygon fill="black" stroke="black" points="460,-384.32 456.5,-374.32 453,-384.32 460,-384.32"/>
<text text-anchor="middle" x="479.83" y="-449" font-family="Times New Roman,serif" font-size="14.00">lastCard</text>
<text text-anchor="middle" x="479.83" y="-432.2" font-family="Times New Roman,serif" font-size="14.00">[0..1]</text>
</g>
<!-- RollHandler1052887806&#45;&gt;OutcomeType1123845887 -->
<g id="edge3" class="edge">
<title>RollHandler1052887806&#45;&gt;OutcomeType1123845887</title>
<path fill="none" stroke="black" d="M549.57,-479.27C584.77,-442.84 616.5,-410 616.5,-410 616.5,-410 657.68,-343.86 693.14,-286.9"/>
<polygon fill="black" stroke="black" points="696.23,-288.55 698.55,-278.21 690.29,-284.85 696.23,-288.55"/>
<text text-anchor="middle" x="621.61" y="-449" font-family="Times New Roman,serif" font-size="14.00">outcome</text>
<text text-anchor="middle" x="621.61" y="-432.2" font-family="Times New Roman,serif" font-size="14.00">[0..1]</text>
</g>
</g>
</svg>
