<?xml version="1.0" encoding="UTF-8" standalone="no"?>
<!DOCTYPE svg PUBLIC "-//W3C//DTD SVG 1.1//EN"
 "http://www.w3.org/Graphics/SVG/1.1/DTD/svg11.dtd">
<!-- Generated by graphviz version 2.44.1 (20200629.0846)
 -->
<!-- Title: g Pages: 1 -->
<svg width="555pt" height="320pt"
 viewBox="0.00 0.00 554.50 319.80" xmlns="http://www.w3.org/2000/svg" xmlns:xlink="http://www.w3.org/1999/xlink">
<g id="graph0" class="graph" transform="scale(1 1) rotate(0) translate(4 315.8)">
<title>g</title>
<polygon fill="white" stroke="transparent" points="-4,4 -4,-315.8 550.5,-315.8 550.5,4 -4,4"/>
<!-- Command1857742349 -->
<g id="node1" class="node">
<title>Command1857742349</title>
<polygon fill="#f1e5fd" stroke="transparent" points="329.5,-209 185.5,-209 185.5,-159 329.5,-159 329.5,-209"/>
<text text-anchor="start" x="190.5" y="-191.4" font-family="Times New Roman,serif" font-size="14.00">(I)Command</text>
<text text-anchor="start" x="190.2" y="-167.4" font-family="Times New Roman,serif" font-size="14.00">+ execute(game: Game)</text>
<polygon fill="black" stroke="black" points="185.5,-184 185.5,-184 329.5,-184 329.5,-184 185.5,-184"/>
<polygon fill="none" stroke="black" points="185.5,-159 185.5,-209 329.5,-209 329.5,-159 185.5,-159"/>
</g>
<!-- SaveGameCommand1702927325 -->
<g id="node3" class="node">
<title>SaveGameCommand1702927325</title>
<polygon fill="#eeeeee" stroke="transparent" points="149,-98 0,-98 0,-24 149,-24 149,-98"/>
<text text-anchor="start" x="5.5" y="-80.4" font-family="Times New Roman,serif" font-size="14.00">(C)SaveGameCommand</text>
<text text-anchor="start" x="5.16" y="-56.4" font-family="Times New Roman,serif" font-size="14.00">+ SaveGameCommand()</text>
<text text-anchor="start" x="5.5" y="-32.4" font-family="Times New Roman,serif" font-size="14.00">+ execute(game: Game)</text>
<polygon fill="black" stroke="black" points="0.5,-73 0.5,-73 149.5,-73 149.5,-73 0.5,-73"/>
<polygon fill="none" stroke="black" points="0,-24 0,-98 149,-98 149,-24 0,-24"/>
</g>
<!-- Command1857742349&#45;&gt;SaveGameCommand1702927325 -->
<g id="edge2" class="edge">
<title>Command1857742349&#45;&gt;SaveGameCommand1702927325</title>
<path fill="none" stroke="black" d="M209.36,-153.63C183.75,-138.02 157.5,-122 157.5,-122 157.5,-122 142.18,-110.92 124.7,-98.29"/>
<polygon fill="none" stroke="black" points="207.62,-156.67 217.98,-158.89 211.26,-150.7 207.62,-156.67"/>
</g>
<!-- RollDxCommand1702927325 -->
<g id="node4" class="node">
<title>RollDxCommand1702927325</title>
<polygon fill="#ffffff" stroke="transparent" points="348,-122 167,-122 167,0 348,0 348,-122"/>
<text text-anchor="start" x="172.5" y="-104.4" font-family="Times New Roman,serif" font-size="14.00">(C)RollDxCommand</text>
<text text-anchor="start" x="172.5" y="-80.4" font-family="Times New Roman,serif" font-size="14.00">&#45; &#160;&#160;roll: Roll [0..1]</text>
<text text-anchor="start" x="172.39" y="-56.4" font-family="Times New Roman,serif" font-size="14.00">+ RollDxCommand(roll: Roll)</text>
<text text-anchor="start" x="172.5" y="-32.4" font-family="Times New Roman,serif" font-size="14.00">+ execute(game: Game)</text>
<text text-anchor="start" x="172.5" y="-8.4" font-family="Times New Roman,serif" font-size="14.00">+ roll(): Roll</text>
<polygon fill="black" stroke="black" points="167.5,-97 167.5,-97 348.5,-97 348.5,-97 167.5,-97"/>
<polygon fill="black" stroke="black" points="167.5,-73 167.5,-73 348.5,-73 348.5,-73 167.5,-73"/>
<polygon fill="none" stroke="black" points="167,0 167,-122 348,-122 348,0 167,0"/>
</g>
<!-- Command1857742349&#45;&gt;RollDxCommand1702927325 -->
<g id="edge1" class="edge">
<title>Command1857742349&#45;&gt;RollDxCommand1702927325</title>
<path fill="none" stroke="black" d="M257.5,-148.78C257.5,-140.47 257.5,-131.34 257.5,-122.22"/>
<polygon fill="none" stroke="black" points="254,-148.8 257.5,-158.8 261,-148.8 254,-148.8"/>
</g>
<!-- ShowBuildablesCommand1702927325 -->
<g id="node5" class="node">
<title>ShowBuildablesCommand1702927325</title>
<polygon fill="#eeeeee" stroke="transparent" points="546.5,-98 366.5,-98 366.5,-24 546.5,-24 546.5,-98"/>
<text text-anchor="start" x="371.5" y="-80.4" font-family="Times New Roman,serif" font-size="14.00">(C)ShowBuildablesCommand</text>
<text text-anchor="start" x="371.09" y="-56.4" font-family="Times New Roman,serif" font-size="14.00">+ ShowBuildablesCommand()</text>
<text text-anchor="start" x="371.5" y="-32.4" font-family="Times New Roman,serif" font-size="14.00">+ execute(game: Game)</text>
<polygon fill="black" stroke="black" points="366.5,-73 366.5,-73 546.5,-73 546.5,-73 366.5,-73"/>
<polygon fill="none" stroke="black" points="366.5,-24 366.5,-98 546.5,-98 546.5,-24 366.5,-24"/>
</g>
<!-- Command1857742349&#45;&gt;ShowBuildablesCommand1702927325 -->
<g id="edge3" class="edge">
<title>Command1857742349&#45;&gt;ShowBuildablesCommand1702927325</title>
<path fill="none" stroke="black" d="M305.95,-153.54C333.43,-136.83 368.04,-115.79 397.14,-98.09"/>
<polygon fill="none" stroke="black" points="304.02,-150.62 297.29,-158.8 307.66,-156.6 304.02,-150.62"/>
</g>
<!-- Main1857742349 -->
<g id="node2" class="node">
<title>Main1857742349</title>
<polygon fill="#ffffff" stroke="transparent" points="323.5,-311.8 191.5,-311.8 191.5,-261.8 323.5,-261.8 323.5,-311.8"/>
<text text-anchor="start" x="196.5" y="-294.2" font-family="Times New Roman,serif" font-size="14.00">(C)Main</text>
<text text-anchor="start" x="196.02" y="-270.2" font-family="Times New Roman,serif" font-size="14.00">+ main(args: String[])</text>
<polygon fill="black" stroke="black" points="191.5,-286.8 191.5,-286.8 323.5,-286.8 323.5,-286.8 191.5,-286.8"/>
<polygon fill="none" stroke="black" points="191.5,-261.8 191.5,-311.8 323.5,-311.8 323.5,-261.8 191.5,-261.8"/>
</g>
<!-- Main1857742349&#45;&gt;Command1857742349 -->
<g id="edge4" class="edge">
<title>Main1857742349&#45;&gt;Command1857742349</title>
<path fill="none" stroke="black" d="M257.5,-261.66C257.5,-249.03 257.5,-233.36 257.5,-219.48"/>
<polygon fill="black" stroke="black" points="261,-219.3 257.5,-209.3 254,-219.3 261,-219.3"/>
<text text-anchor="middle" x="311.97" y="-231.2" font-family="Times New Roman,serif" font-size="14.00">main() &#45;&gt; execute()</text>
</g>
</g>
</svg>
