<?xml version="1.0" encoding="UTF-8" standalone="no"?>
<!DOCTYPE svg PUBLIC "-//W3C//DTD SVG 1.1//EN"
 "http://www.w3.org/Graphics/SVG/1.1/DTD/svg11.dtd">
<!-- Generated by graphviz version 2.44.1 (20200629.0846)
 -->
<!-- Title: g Pages: 1 -->
<svg width="258pt" height="347pt"
 viewBox="0.00 0.00 258.00 346.60" xmlns="http://www.w3.org/2000/svg" xmlns:xlink="http://www.w3.org/1999/xlink">
<g id="graph0" class="graph" transform="scale(1 1) rotate(0) translate(4 342.6)">
<title>g</title>
<polygon fill="white" stroke="transparent" points="-4,4 -4,-342.6 254,-342.6 254,4 -4,4"/>
<!-- Card1697264569 -->
<g id="node1" class="node">
<title>Card1697264569</title>
<polygon fill="#dcfbd5" stroke="transparent" points="156.5,-36 93.5,-36 93.5,0 156.5,0 156.5,-36"/>
<text text-anchor="start" x="102.96" y="-13.4" font-family="Times New Roman,serif" font-size="14.00">(E)Card</text>
<polygon fill="none" stroke="black" points="93.5,-1 93.5,-35 156.5,-35 156.5,-1 93.5,-1"/>
</g>
<!-- Command1857742349 -->
<g id="node2" class="node">
<title>Command1857742349</title>
<polygon fill="#f1e5fd" stroke="transparent" points="197,-338.6 53,-338.6 53,-288.6 197,-288.6 197,-338.6"/>
<text text-anchor="start" x="58" y="-321" font-family="Times New Roman,serif" font-size="14.00">(I)Command</text>
<text text-anchor="start" x="57.7" y="-297" font-family="Times New Roman,serif" font-size="14.00">+ execute(game: Game)</text>
<polygon fill="black" stroke="black" points="53,-313.6 53,-313.6 197,-313.6 197,-313.6 53,-313.6"/>
<polygon fill="none" stroke="black" points="53,-288.6 53,-338.6 197,-338.6 197,-288.6 53,-288.6"/>
</g>
<!-- StartCommand1702927325 -->
<g id="node3" class="node">
<title>StartCommand1702927325</title>
<polygon fill="#ffffff" stroke="transparent" points="250,-251.6 0,-251.6 0,-105.6 250,-105.6 250,-251.6"/>
<text text-anchor="start" x="5" y="-234" font-family="Times New Roman,serif" font-size="14.00">(C)StartCommand</text>
<text text-anchor="start" x="5" y="-210" font-family="Times New Roman,serif" font-size="14.00">&#45; &#160;&#160;cards: List&lt;Card&gt; [0..*]</text>
<text text-anchor="start" x="5" y="-186" font-family="Times New Roman,serif" font-size="14.00">+ StartCommand(cards: List&lt;Card&gt;)</text>
<text text-anchor="start" x="5" y="-162" font-family="Times New Roman,serif" font-size="14.00">+ cards(): List&lt;Card&gt;</text>
<text text-anchor="start" x="4.96" y="-138" font-family="Times New Roman,serif" font-size="14.00">&#45; deckFrom(cards: List&lt;Card&gt;): CardDeck</text>
<text text-anchor="start" x="5" y="-114" font-family="Times New Roman,serif" font-size="14.00">+ execute(game: Game)</text>
<polygon fill="black" stroke="black" points="0,-226.6 0,-226.6 250,-226.6 250,-226.6 0,-226.6"/>
<polygon fill="black" stroke="black" points="0,-202.6 0,-202.6 250,-202.6 250,-202.6 0,-202.6"/>
<polygon fill="none" stroke="black" points="0,-105.6 0,-251.6 250,-251.6 250,-105.6 0,-105.6"/>
</g>
<!-- Command1857742349&#45;&gt;StartCommand1702927325 -->
<g id="edge1" class="edge">
<title>Command1857742349&#45;&gt;StartCommand1702927325</title>
<path fill="none" stroke="black" d="M125,-278.25C125,-270.01 125,-260.91 125,-251.66"/>
<polygon fill="none" stroke="black" points="121.5,-278.51 125,-288.51 128.5,-278.51 121.5,-278.51"/>
</g>
<!-- StartCommand1702927325&#45;&gt;Card1697264569 -->
<g id="edge2" class="edge">
<title>StartCommand1702927325&#45;&gt;Card1697264569</title>
<path fill="none" stroke="black" d="M125,-105.26C125,-84.42 125,-62.93 125,-46.61"/>
<polygon fill="black" stroke="black" points="128.5,-46.21 125,-36.21 121.5,-46.21 128.5,-46.21"/>
<text text-anchor="middle" x="140.16" y="-75" font-family="Times New Roman,serif" font-size="14.00">cards</text>
<text text-anchor="middle" x="140.16" y="-58.2" font-family="Times New Roman,serif" font-size="14.00">[0..*]</text>
</g>
</g>
</svg>
