<?xml version="1.0" encoding="UTF-8" standalone="no"?>
<!DOCTYPE svg PUBLIC "-//W3C//DTD SVG 1.1//EN"
 "http://www.w3.org/Graphics/SVG/1.1/DTD/svg11.dtd">
<!-- Generated by graphviz version 2.44.1 (20200629.0846)
 -->
<!-- Title: g Pages: 1 -->
<svg width="225pt" height="323pt"
 viewBox="0.00 0.00 225.00 322.60" xmlns="http://www.w3.org/2000/svg" xmlns:xlink="http://www.w3.org/1999/xlink">
<g id="graph0" class="graph" transform="scale(1 1) rotate(0) translate(4 318.6)">
<title>g</title>
<polygon fill="white" stroke="transparent" points="-4,4 -4,-318.6 221,-318.6 221,4 -4,4"/>
<!-- Card1697264569 -->
<g id="node1" class="node">
<title>Card1697264569</title>
<polygon fill="#dcfbd5" stroke="transparent" points="140,-36 77,-36 77,0 140,0 140,-36"/>
<text text-anchor="start" x="86.46" y="-13.4" font-family="Times New Roman,serif" font-size="14.00">(E)Card</text>
<polygon fill="none" stroke="black" points="77,-1 77,-35 140,-35 140,-1 77,-1"/>
</g>
<!-- Command1857742349 -->
<g id="node2" class="node">
<title>Command1857742349</title>
<polygon fill="#f1e5fd" stroke="transparent" points="180.5,-314.6 36.5,-314.6 36.5,-264.6 180.5,-264.6 180.5,-314.6"/>
<text text-anchor="start" x="41.5" y="-297" font-family="Times New Roman,serif" font-size="14.00">(I)Command</text>
<text text-anchor="start" x="41.2" y="-273" font-family="Times New Roman,serif" font-size="14.00">+ execute(game: Game)</text>
<polygon fill="black" stroke="black" points="36.5,-289.6 36.5,-289.6 180.5,-289.6 180.5,-289.6 36.5,-289.6"/>
<polygon fill="none" stroke="black" points="36.5,-264.6 36.5,-314.6 180.5,-314.6 180.5,-264.6 36.5,-264.6"/>
</g>
<!-- StartCommand1702927325 -->
<g id="node3" class="node">
<title>StartCommand1702927325</title>
<polygon fill="#ffffff" stroke="transparent" points="217,-227.6 0,-227.6 0,-105.6 217,-105.6 217,-227.6"/>
<text text-anchor="start" x="5.5" y="-210" font-family="Times New Roman,serif" font-size="14.00">(C)StartCommand</text>
<text text-anchor="start" x="5.5" y="-186" font-family="Times New Roman,serif" font-size="14.00">&#45; &#160;&#160;cards: List&lt;Card&gt; [0..*]</text>
<text text-anchor="start" x="5.4" y="-162" font-family="Times New Roman,serif" font-size="14.00">+ StartCommand(cards: List&lt;Card&gt;)</text>
<text text-anchor="start" x="5.5" y="-138" font-family="Times New Roman,serif" font-size="14.00">+ cards(): List&lt;Card&gt;</text>
<text text-anchor="start" x="5.5" y="-114" font-family="Times New Roman,serif" font-size="14.00">+ execute(game: Game)</text>
<polygon fill="black" stroke="black" points="0.5,-202.6 0.5,-202.6 217.5,-202.6 217.5,-202.6 0.5,-202.6"/>
<polygon fill="black" stroke="black" points="0.5,-178.6 0.5,-178.6 217.5,-178.6 217.5,-178.6 0.5,-178.6"/>
<polygon fill="none" stroke="black" points="0,-105.6 0,-227.6 217,-227.6 217,-105.6 0,-105.6"/>
</g>
<!-- Command1857742349&#45;&gt;StartCommand1702927325 -->
<g id="edge1" class="edge">
<title>Command1857742349&#45;&gt;StartCommand1702927325</title>
<path fill="none" stroke="black" d="M108.5,-254.38C108.5,-246.07 108.5,-236.94 108.5,-227.82"/>
<polygon fill="none" stroke="black" points="105,-254.4 108.5,-264.4 112,-254.4 105,-254.4"/>
</g>
<!-- StartCommand1702927325&#45;&gt;Card1697264569 -->
<g id="edge2" class="edge">
<title>StartCommand1702927325&#45;&gt;Card1697264569</title>
<path fill="none" stroke="black" d="M108.5,-105.55C108.5,-84.92 108.5,-62.85 108.5,-46.15"/>
<polygon fill="black" stroke="black" points="112,-46.03 108.5,-36.03 105,-46.03 112,-46.03"/>
<text text-anchor="middle" x="123.66" y="-75" font-family="Times New Roman,serif" font-size="14.00">cards</text>
<text text-anchor="middle" x="123.66" y="-58.2" font-family="Times New Roman,serif" font-size="14.00">[0..*]</text>
</g>
</g>
</svg>
