<?xml version="1.0" encoding="UTF-8" standalone="no"?>
<!DOCTYPE svg PUBLIC "-//W3C//DTD SVG 1.1//EN"
 "http://www.w3.org/Graphics/SVG/1.1/DTD/svg11.dtd">
<!-- Generated by graphviz version 2.44.1 (20200629.0846)
 -->
<!-- Title: g Pages: 1 -->
<svg width="378pt" height="547pt"
 viewBox="0.00 0.00 378.00 547.20" xmlns="http://www.w3.org/2000/svg" xmlns:xlink="http://www.w3.org/1999/xlink">
<g id="graph0" class="graph" transform="scale(1 1) rotate(0) translate(4 543.2)">
<title>g</title>
<polygon fill="white" stroke="transparent" points="-4,4 -4,-543.2 374,-543.2 374,4 -4,4"/>
<!-- Camp1135820194 -->
<g id="node1" class="node">
<title>Camp1135820194</title>
<polygon fill="#ffffff" stroke="transparent" points="216,-539.2 154,-539.2 154,-503.2 216,-503.2 216,-539.2"/>
<text text-anchor="start" x="158.95" y="-516.6" font-family="Times New Roman,serif" font-size="14.00">(C)Camp</text>
<polygon fill="none" stroke="black" points="154,-508.2 154,-534.2 216,-534.2 216,-508.2 154,-508.2"/>
</g>
<!-- Workbench1135820194 -->
<g id="node3" class="node">
<title>Workbench1135820194</title>
<polygon fill="#ffffff" stroke="transparent" points="367.5,-433.6 2.5,-433.6 2.5,-263.6 367.5,-263.6 367.5,-433.6"/>
<text text-anchor="start" x="8" y="-416" font-family="Times New Roman,serif" font-size="14.00">(C)Workbench</text>
<text text-anchor="start" x="8" y="-392" font-family="Times New Roman,serif" font-size="14.00">&#45; &#160;&#160;stash: ResourceStash [0..1]</text>
<text text-anchor="start" x="8" y="-368" font-family="Times New Roman,serif" font-size="14.00">+ build(plan: CraftingPlan, hasFireplace: boolean): Buildable</text>
<text text-anchor="start" x="8" y="-344" font-family="Times New Roman,serif" font-size="14.00">&#45; build(plan: CraftingPlan): Buildable</text>
<text text-anchor="start" x="8" y="-320" font-family="Times New Roman,serif" font-size="14.00">&#45; canBuild(plan: CraftingPlan, hasFireplace: boolean): boolean</text>
<text text-anchor="start" x="7.85" y="-296" font-family="Times New Roman,serif" font-size="14.00">+ getCraftablePlans(hasFireplace: boolean): Set&lt;CraftingPlan&gt;</text>
<text text-anchor="start" x="8" y="-272" font-family="Times New Roman,serif" font-size="14.00">+ stash(): ResourceStash</text>
<polygon fill="black" stroke="black" points="3,-408.6 3,-408.6 368,-408.6 368,-408.6 3,-408.6"/>
<polygon fill="black" stroke="black" points="3,-384.6 3,-384.6 368,-384.6 368,-384.6 3,-384.6"/>
<polygon fill="none" stroke="black" points="2.5,-263.6 2.5,-433.6 367.5,-433.6 367.5,-263.6 2.5,-263.6"/>
</g>
<!-- Camp1135820194&#45;&gt;Workbench1135820194 -->
<g id="edge1" class="edge">
<title>Camp1135820194&#45;&gt;Workbench1135820194</title>
<path fill="none" stroke="black" d="M185,-502.9C185,-488.44 185,-466.58 185,-443.85"/>
<polygon fill="black" stroke="black" points="188.5,-443.73 185,-433.73 181.5,-443.73 188.5,-443.73"/>
<text text-anchor="middle" x="216.1" y="-472.6" font-family="Times New Roman,serif" font-size="14.00">workbench</text>
<text text-anchor="middle" x="216.1" y="-455.8" font-family="Times New Roman,serif" font-size="14.00">[0..1]</text>
</g>
<!-- ResourceStash1135820194 -->
<g id="node2" class="node">
<title>ResourceStash1135820194</title>
<polygon fill="#ffffff" stroke="transparent" points="370,-194 0,-194 0,0 370,0 370,-194"/>
<text text-anchor="start" x="5" y="-176.4" font-family="Times New Roman,serif" font-size="14.00">(C)ResourceStash</text>
<text text-anchor="start" x="5" y="-152.4" font-family="Times New Roman,serif" font-size="14.00">&#45; &#160;&#160;protectedResourcesCount: NonNegativeInteger [0..1]</text>
<text text-anchor="start" x="5" y="-128.4" font-family="Times New Roman,serif" font-size="14.00">&#45; &#160;&#160;stash: Deque&lt;Resource&gt; [0..*]</text>
<text text-anchor="start" x="5" y="-104.4" font-family="Times New Roman,serif" font-size="14.00">+ add(resource: Resource)</text>
<text text-anchor="start" x="5" y="-80.4" font-family="Times New Roman,serif" font-size="14.00">+ consumeResources(required: Set&lt;ResourceRequirement&gt;)</text>
<text text-anchor="start" x="5" y="-56.4" font-family="Times New Roman,serif" font-size="14.00">+ devastate()</text>
<text text-anchor="start" x="4.64" y="-32.4" font-family="Times New Roman,serif" font-size="14.00">+ hasResources(required: Set&lt;ResourceRequirement&gt;): boolean</text>
<text text-anchor="start" x="5" y="-8.4" font-family="Times New Roman,serif" font-size="14.00">+ protectTopMostNResources(n: NonNegativeInteger)</text>
<polygon fill="black" stroke="black" points="0,-169 0,-169 370,-169 370,-169 0,-169"/>
<polygon fill="black" stroke="black" points="0,-121 0,-121 370,-121 370,-121 0,-121"/>
<polygon fill="none" stroke="black" points="0,0 0,-194 370,-194 370,0 0,0"/>
</g>
<!-- Workbench1135820194&#45;&gt;ResourceStash1135820194 -->
<g id="edge2" class="edge">
<title>Workbench1135820194&#45;&gt;ResourceStash1135820194</title>
<path fill="none" stroke="black" d="M185,-263.44C185,-244.52 185,-224.2 185,-204.5"/>
<polygon fill="black" stroke="black" points="188.5,-204.27 185,-194.27 181.5,-204.27 188.5,-204.27"/>
<text text-anchor="middle" x="200.16" y="-233" font-family="Times New Roman,serif" font-size="14.00">stash</text>
<text text-anchor="middle" x="200.16" y="-216.2" font-family="Times New Roman,serif" font-size="14.00">[0..1]</text>
</g>
</g>
</svg>
