<?xml version="1.0" encoding="UTF-8" standalone="no"?>
<!DOCTYPE svg PUBLIC "-//W3C//DTD SVG 1.1//EN"
 "http://www.w3.org/Graphics/SVG/1.1/DTD/svg11.dtd">
<!-- Generated by graphviz version 2.44.1 (20200629.0846)
 -->
<!-- Title: g Pages: 1 -->
<svg width="378pt" height="658pt"
 viewBox="0.00 0.00 378.00 658.20" xmlns="http://www.w3.org/2000/svg" xmlns:xlink="http://www.w3.org/1999/xlink">
<g id="graph0" class="graph" transform="scale(1 1) rotate(0) translate(4 654.2)">
<title>g</title>
<polygon fill="white" stroke="transparent" points="-4,4 -4,-654.2 374,-654.2 374,4 -4,4"/>
<!-- Camp1135820194 -->
<g id="node1" class="node">
<title>Camp1135820194</title>
<polygon fill="#ffffff" stroke="transparent" points="216,-650.2 154,-650.2 154,-614.2 216,-614.2 216,-650.2"/>
<text text-anchor="start" x="158.95" y="-627.6" font-family="Times New Roman,serif" font-size="14.00">(C)Camp</text>
<polygon fill="none" stroke="black" points="154,-619.2 154,-645.2 216,-645.2 216,-619.2 154,-619.2"/>
</g>
<!-- Workbench1135820194 -->
<g id="node4" class="node">
<title>Workbench1135820194</title>
<polygon fill="#ffffff" stroke="transparent" points="367.5,-544.6 2.5,-544.6 2.5,-374.6 367.5,-374.6 367.5,-544.6"/>
<text text-anchor="start" x="8" y="-527" font-family="Times New Roman,serif" font-size="14.00">(C)Workbench</text>
<text text-anchor="start" x="8" y="-503" font-family="Times New Roman,serif" font-size="14.00">&#45; &#160;&#160;consumer: ResourceConsumer [0..1]</text>
<text text-anchor="start" x="8" y="-479" font-family="Times New Roman,serif" font-size="14.00">+ build(plan: CraftingPlan, hasFireplace: boolean): Buildable</text>
<text text-anchor="start" x="8" y="-455" font-family="Times New Roman,serif" font-size="14.00">&#45; build(plan: CraftingPlan): Buildable</text>
<text text-anchor="start" x="8" y="-431" font-family="Times New Roman,serif" font-size="14.00">&#45; canBuild(plan: CraftingPlan, hasFireplace: boolean): boolean</text>
<text text-anchor="start" x="7.85" y="-407" font-family="Times New Roman,serif" font-size="14.00">+ getCraftablePlans(hasFireplace: boolean): Set&lt;CraftingPlan&gt;</text>
<text text-anchor="start" x="8" y="-383" font-family="Times New Roman,serif" font-size="14.00">+ consumer(): ResourceConsumer</text>
<polygon fill="black" stroke="black" points="3,-519.6 3,-519.6 368,-519.6 368,-519.6 3,-519.6"/>
<polygon fill="black" stroke="black" points="3,-495.6 3,-495.6 368,-495.6 368,-495.6 3,-495.6"/>
<polygon fill="none" stroke="black" points="2.5,-374.6 2.5,-544.6 367.5,-544.6 367.5,-374.6 2.5,-374.6"/>
</g>
<!-- Camp1135820194&#45;&gt;Workbench1135820194 -->
<g id="edge1" class="edge">
<title>Camp1135820194&#45;&gt;Workbench1135820194</title>
<path fill="none" stroke="black" d="M185,-613.9C185,-599.44 185,-577.58 185,-554.85"/>
<polygon fill="black" stroke="black" points="188.5,-554.73 185,-544.73 181.5,-554.73 188.5,-554.73"/>
<text text-anchor="middle" x="216.1" y="-583.6" font-family="Times New Roman,serif" font-size="14.00">workbench</text>
<text text-anchor="middle" x="216.1" y="-566.8" font-family="Times New Roman,serif" font-size="14.00">[0..1]</text>
</g>
<!-- ResourceConsumer1135820194 -->
<g id="node2" class="node">
<title>ResourceConsumer1135820194</title>
<polygon fill="#f1e5fd" stroke="transparent" points="370,-305 0,-305 0,-231 370,-231 370,-305"/>
<text text-anchor="start" x="5" y="-287.4" font-family="Times New Roman,serif" font-size="14.00">(I)ResourceConsumer</text>
<text text-anchor="start" x="5" y="-263.4" font-family="Times New Roman,serif" font-size="14.00">+ consumeResources(required: Set&lt;ResourceRequirement&gt;)</text>
<text text-anchor="start" x="4.64" y="-239.4" font-family="Times New Roman,serif" font-size="14.00">+ hasResources(required: Set&lt;ResourceRequirement&gt;): boolean</text>
<polygon fill="black" stroke="black" points="0,-280 0,-280 370,-280 370,-280 0,-280"/>
<polygon fill="none" stroke="black" points="0,-231 0,-305 370,-305 370,-231 0,-231"/>
</g>
<!-- ResourceStash1135820194 -->
<g id="node3" class="node">
<title>ResourceStash1135820194</title>
<polygon fill="#ffffff" stroke="transparent" points="370,-194 0,-194 0,0 370,0 370,-194"/>
<text text-anchor="start" x="5" y="-176.4" font-family="Times New Roman,serif" font-size="14.00">(C)ResourceStash</text>
<text text-anchor="start" x="5" y="-152.4" font-family="Times New Roman,serif" font-size="14.00">&#45; &#160;&#160;protectedResourcesCount: NonNegativeInteger [0..1]</text>
<text text-anchor="start" x="5" y="-128.4" font-family="Times New Roman,serif" font-size="14.00">&#45; &#160;&#160;stash: Deque&lt;Resource&gt; [0..*]</text>
<text text-anchor="start" x="5" y="-104.4" font-family="Times New Roman,serif" font-size="14.00">+ add(resource: Resource)</text>
<text text-anchor="start" x="5" y="-80.4" font-family="Times New Roman,serif" font-size="14.00">+ consumeResources(required: Set&lt;ResourceRequirement&gt;)</text>
<text text-anchor="start" x="5" y="-56.4" font-family="Times New Roman,serif" font-size="14.00">+ devastate()</text>
<text text-anchor="start" x="4.64" y="-32.4" font-family="Times New Roman,serif" font-size="14.00">+ hasResources(required: Set&lt;ResourceRequirement&gt;): boolean</text>
<text text-anchor="start" x="5" y="-8.4" font-family="Times New Roman,serif" font-size="14.00">+ protectTopMostNResources(n: NonNegativeInteger)</text>
<polygon fill="black" stroke="black" points="0,-169 0,-169 370,-169 370,-169 0,-169"/>
<polygon fill="black" stroke="black" points="0,-121 0,-121 370,-121 370,-121 0,-121"/>
<polygon fill="none" stroke="black" points="0,0 0,-194 370,-194 370,0 0,0"/>
</g>
<!-- ResourceConsumer1135820194&#45;&gt;ResourceStash1135820194 -->
<g id="edge3" class="edge">
<title>ResourceConsumer1135820194&#45;&gt;ResourceStash1135820194</title>
<path fill="none" stroke="black" d="M185,-220.59C185,-212.28 185,-203.35 185,-194.23"/>
<polygon fill="none" stroke="black" points="181.5,-220.75 185,-230.75 188.5,-220.75 181.5,-220.75"/>
</g>
<!-- Workbench1135820194&#45;&gt;ResourceConsumer1135820194 -->
<g id="edge2" class="edge">
<title>Workbench1135820194&#45;&gt;ResourceConsumer1135820194</title>
<path fill="none" stroke="black" d="M185,-374.33C185,-354 185,-333 185,-315.16"/>
<polygon fill="black" stroke="black" points="188.5,-315.05 185,-305.05 181.5,-315.05 188.5,-315.05"/>
<text text-anchor="middle" x="212.21" y="-344" font-family="Times New Roman,serif" font-size="14.00">consumer</text>
<text text-anchor="middle" x="212.21" y="-327.2" font-family="Times New Roman,serif" font-size="14.00">[0..1]</text>
</g>
</g>
</svg>
